G75*
%MOIN*%
%OFA0B0*%
%FSLAX25Y25*%
%IPPOS*%
%LPD*%
%AMOC8*
5,1,8,0,0,1.08239X$1,22.5*
%
%ADD10C,0.00000*%
%ADD11C,0.00300*%
%ADD12C,0.01200*%
%ADD13C,0.00600*%
%ADD14C,0.00500*%
%ADD15R,0.10000X0.02000*%
%ADD16R,0.03000X0.07500*%
%ADD17R,0.02000X0.10000*%
%ADD18R,0.07500X0.03000*%
%ADD19R,0.01500X0.02000*%
%ADD20C,0.00400*%
%ADD21R,0.02000X0.01500*%
%ADD22C,0.00060*%
D10*
X0001500Y0095000D02*
X0001500Y0208701D01*
X0266421Y0208701D01*
X0266421Y0095000D01*
X0001500Y0095000D01*
X0014867Y0109331D02*
X0014869Y0109478D01*
X0014875Y0109624D01*
X0014885Y0109770D01*
X0014899Y0109916D01*
X0014917Y0110062D01*
X0014938Y0110207D01*
X0014964Y0110351D01*
X0014994Y0110495D01*
X0015027Y0110637D01*
X0015064Y0110779D01*
X0015105Y0110920D01*
X0015150Y0111059D01*
X0015199Y0111198D01*
X0015251Y0111335D01*
X0015308Y0111470D01*
X0015367Y0111604D01*
X0015431Y0111736D01*
X0015498Y0111866D01*
X0015568Y0111995D01*
X0015642Y0112122D01*
X0015719Y0112246D01*
X0015800Y0112369D01*
X0015884Y0112489D01*
X0015971Y0112607D01*
X0016061Y0112722D01*
X0016154Y0112835D01*
X0016251Y0112946D01*
X0016350Y0113054D01*
X0016452Y0113159D01*
X0016557Y0113261D01*
X0016665Y0113360D01*
X0016776Y0113457D01*
X0016889Y0113550D01*
X0017004Y0113640D01*
X0017122Y0113727D01*
X0017242Y0113811D01*
X0017365Y0113892D01*
X0017489Y0113969D01*
X0017616Y0114043D01*
X0017745Y0114113D01*
X0017875Y0114180D01*
X0018007Y0114244D01*
X0018141Y0114303D01*
X0018276Y0114360D01*
X0018413Y0114412D01*
X0018552Y0114461D01*
X0018691Y0114506D01*
X0018832Y0114547D01*
X0018974Y0114584D01*
X0019116Y0114617D01*
X0019260Y0114647D01*
X0019404Y0114673D01*
X0019549Y0114694D01*
X0019695Y0114712D01*
X0019841Y0114726D01*
X0019987Y0114736D01*
X0020133Y0114742D01*
X0020280Y0114744D01*
X0020427Y0114742D01*
X0020573Y0114736D01*
X0020719Y0114726D01*
X0020865Y0114712D01*
X0021011Y0114694D01*
X0021156Y0114673D01*
X0021300Y0114647D01*
X0021444Y0114617D01*
X0021586Y0114584D01*
X0021728Y0114547D01*
X0021869Y0114506D01*
X0022008Y0114461D01*
X0022147Y0114412D01*
X0022284Y0114360D01*
X0022419Y0114303D01*
X0022553Y0114244D01*
X0022685Y0114180D01*
X0022815Y0114113D01*
X0022944Y0114043D01*
X0023071Y0113969D01*
X0023195Y0113892D01*
X0023318Y0113811D01*
X0023438Y0113727D01*
X0023556Y0113640D01*
X0023671Y0113550D01*
X0023784Y0113457D01*
X0023895Y0113360D01*
X0024003Y0113261D01*
X0024108Y0113159D01*
X0024210Y0113054D01*
X0024309Y0112946D01*
X0024406Y0112835D01*
X0024499Y0112722D01*
X0024589Y0112607D01*
X0024676Y0112489D01*
X0024760Y0112369D01*
X0024841Y0112246D01*
X0024918Y0112122D01*
X0024992Y0111995D01*
X0025062Y0111866D01*
X0025129Y0111736D01*
X0025193Y0111604D01*
X0025252Y0111470D01*
X0025309Y0111335D01*
X0025361Y0111198D01*
X0025410Y0111059D01*
X0025455Y0110920D01*
X0025496Y0110779D01*
X0025533Y0110637D01*
X0025566Y0110495D01*
X0025596Y0110351D01*
X0025622Y0110207D01*
X0025643Y0110062D01*
X0025661Y0109916D01*
X0025675Y0109770D01*
X0025685Y0109624D01*
X0025691Y0109478D01*
X0025693Y0109331D01*
X0025691Y0109184D01*
X0025685Y0109038D01*
X0025675Y0108892D01*
X0025661Y0108746D01*
X0025643Y0108600D01*
X0025622Y0108455D01*
X0025596Y0108311D01*
X0025566Y0108167D01*
X0025533Y0108025D01*
X0025496Y0107883D01*
X0025455Y0107742D01*
X0025410Y0107603D01*
X0025361Y0107464D01*
X0025309Y0107327D01*
X0025252Y0107192D01*
X0025193Y0107058D01*
X0025129Y0106926D01*
X0025062Y0106796D01*
X0024992Y0106667D01*
X0024918Y0106540D01*
X0024841Y0106416D01*
X0024760Y0106293D01*
X0024676Y0106173D01*
X0024589Y0106055D01*
X0024499Y0105940D01*
X0024406Y0105827D01*
X0024309Y0105716D01*
X0024210Y0105608D01*
X0024108Y0105503D01*
X0024003Y0105401D01*
X0023895Y0105302D01*
X0023784Y0105205D01*
X0023671Y0105112D01*
X0023556Y0105022D01*
X0023438Y0104935D01*
X0023318Y0104851D01*
X0023195Y0104770D01*
X0023071Y0104693D01*
X0022944Y0104619D01*
X0022815Y0104549D01*
X0022685Y0104482D01*
X0022553Y0104418D01*
X0022419Y0104359D01*
X0022284Y0104302D01*
X0022147Y0104250D01*
X0022008Y0104201D01*
X0021869Y0104156D01*
X0021728Y0104115D01*
X0021586Y0104078D01*
X0021444Y0104045D01*
X0021300Y0104015D01*
X0021156Y0103989D01*
X0021011Y0103968D01*
X0020865Y0103950D01*
X0020719Y0103936D01*
X0020573Y0103926D01*
X0020427Y0103920D01*
X0020280Y0103918D01*
X0020133Y0103920D01*
X0019987Y0103926D01*
X0019841Y0103936D01*
X0019695Y0103950D01*
X0019549Y0103968D01*
X0019404Y0103989D01*
X0019260Y0104015D01*
X0019116Y0104045D01*
X0018974Y0104078D01*
X0018832Y0104115D01*
X0018691Y0104156D01*
X0018552Y0104201D01*
X0018413Y0104250D01*
X0018276Y0104302D01*
X0018141Y0104359D01*
X0018007Y0104418D01*
X0017875Y0104482D01*
X0017745Y0104549D01*
X0017616Y0104619D01*
X0017489Y0104693D01*
X0017365Y0104770D01*
X0017242Y0104851D01*
X0017122Y0104935D01*
X0017004Y0105022D01*
X0016889Y0105112D01*
X0016776Y0105205D01*
X0016665Y0105302D01*
X0016557Y0105401D01*
X0016452Y0105503D01*
X0016350Y0105608D01*
X0016251Y0105716D01*
X0016154Y0105827D01*
X0016061Y0105940D01*
X0015971Y0106055D01*
X0015884Y0106173D01*
X0015800Y0106293D01*
X0015719Y0106416D01*
X0015642Y0106540D01*
X0015568Y0106667D01*
X0015498Y0106796D01*
X0015431Y0106926D01*
X0015367Y0107058D01*
X0015308Y0107192D01*
X0015251Y0107327D01*
X0015199Y0107464D01*
X0015150Y0107603D01*
X0015105Y0107742D01*
X0015064Y0107883D01*
X0015027Y0108025D01*
X0014994Y0108167D01*
X0014964Y0108311D01*
X0014938Y0108455D01*
X0014917Y0108600D01*
X0014899Y0108746D01*
X0014885Y0108892D01*
X0014875Y0109038D01*
X0014869Y0109184D01*
X0014867Y0109331D01*
X0243213Y0109331D02*
X0243215Y0109478D01*
X0243221Y0109624D01*
X0243231Y0109770D01*
X0243245Y0109916D01*
X0243263Y0110062D01*
X0243284Y0110207D01*
X0243310Y0110351D01*
X0243340Y0110495D01*
X0243373Y0110637D01*
X0243410Y0110779D01*
X0243451Y0110920D01*
X0243496Y0111059D01*
X0243545Y0111198D01*
X0243597Y0111335D01*
X0243654Y0111470D01*
X0243713Y0111604D01*
X0243777Y0111736D01*
X0243844Y0111866D01*
X0243914Y0111995D01*
X0243988Y0112122D01*
X0244065Y0112246D01*
X0244146Y0112369D01*
X0244230Y0112489D01*
X0244317Y0112607D01*
X0244407Y0112722D01*
X0244500Y0112835D01*
X0244597Y0112946D01*
X0244696Y0113054D01*
X0244798Y0113159D01*
X0244903Y0113261D01*
X0245011Y0113360D01*
X0245122Y0113457D01*
X0245235Y0113550D01*
X0245350Y0113640D01*
X0245468Y0113727D01*
X0245588Y0113811D01*
X0245711Y0113892D01*
X0245835Y0113969D01*
X0245962Y0114043D01*
X0246091Y0114113D01*
X0246221Y0114180D01*
X0246353Y0114244D01*
X0246487Y0114303D01*
X0246622Y0114360D01*
X0246759Y0114412D01*
X0246898Y0114461D01*
X0247037Y0114506D01*
X0247178Y0114547D01*
X0247320Y0114584D01*
X0247462Y0114617D01*
X0247606Y0114647D01*
X0247750Y0114673D01*
X0247895Y0114694D01*
X0248041Y0114712D01*
X0248187Y0114726D01*
X0248333Y0114736D01*
X0248479Y0114742D01*
X0248626Y0114744D01*
X0248773Y0114742D01*
X0248919Y0114736D01*
X0249065Y0114726D01*
X0249211Y0114712D01*
X0249357Y0114694D01*
X0249502Y0114673D01*
X0249646Y0114647D01*
X0249790Y0114617D01*
X0249932Y0114584D01*
X0250074Y0114547D01*
X0250215Y0114506D01*
X0250354Y0114461D01*
X0250493Y0114412D01*
X0250630Y0114360D01*
X0250765Y0114303D01*
X0250899Y0114244D01*
X0251031Y0114180D01*
X0251161Y0114113D01*
X0251290Y0114043D01*
X0251417Y0113969D01*
X0251541Y0113892D01*
X0251664Y0113811D01*
X0251784Y0113727D01*
X0251902Y0113640D01*
X0252017Y0113550D01*
X0252130Y0113457D01*
X0252241Y0113360D01*
X0252349Y0113261D01*
X0252454Y0113159D01*
X0252556Y0113054D01*
X0252655Y0112946D01*
X0252752Y0112835D01*
X0252845Y0112722D01*
X0252935Y0112607D01*
X0253022Y0112489D01*
X0253106Y0112369D01*
X0253187Y0112246D01*
X0253264Y0112122D01*
X0253338Y0111995D01*
X0253408Y0111866D01*
X0253475Y0111736D01*
X0253539Y0111604D01*
X0253598Y0111470D01*
X0253655Y0111335D01*
X0253707Y0111198D01*
X0253756Y0111059D01*
X0253801Y0110920D01*
X0253842Y0110779D01*
X0253879Y0110637D01*
X0253912Y0110495D01*
X0253942Y0110351D01*
X0253968Y0110207D01*
X0253989Y0110062D01*
X0254007Y0109916D01*
X0254021Y0109770D01*
X0254031Y0109624D01*
X0254037Y0109478D01*
X0254039Y0109331D01*
X0254037Y0109184D01*
X0254031Y0109038D01*
X0254021Y0108892D01*
X0254007Y0108746D01*
X0253989Y0108600D01*
X0253968Y0108455D01*
X0253942Y0108311D01*
X0253912Y0108167D01*
X0253879Y0108025D01*
X0253842Y0107883D01*
X0253801Y0107742D01*
X0253756Y0107603D01*
X0253707Y0107464D01*
X0253655Y0107327D01*
X0253598Y0107192D01*
X0253539Y0107058D01*
X0253475Y0106926D01*
X0253408Y0106796D01*
X0253338Y0106667D01*
X0253264Y0106540D01*
X0253187Y0106416D01*
X0253106Y0106293D01*
X0253022Y0106173D01*
X0252935Y0106055D01*
X0252845Y0105940D01*
X0252752Y0105827D01*
X0252655Y0105716D01*
X0252556Y0105608D01*
X0252454Y0105503D01*
X0252349Y0105401D01*
X0252241Y0105302D01*
X0252130Y0105205D01*
X0252017Y0105112D01*
X0251902Y0105022D01*
X0251784Y0104935D01*
X0251664Y0104851D01*
X0251541Y0104770D01*
X0251417Y0104693D01*
X0251290Y0104619D01*
X0251161Y0104549D01*
X0251031Y0104482D01*
X0250899Y0104418D01*
X0250765Y0104359D01*
X0250630Y0104302D01*
X0250493Y0104250D01*
X0250354Y0104201D01*
X0250215Y0104156D01*
X0250074Y0104115D01*
X0249932Y0104078D01*
X0249790Y0104045D01*
X0249646Y0104015D01*
X0249502Y0103989D01*
X0249357Y0103968D01*
X0249211Y0103950D01*
X0249065Y0103936D01*
X0248919Y0103926D01*
X0248773Y0103920D01*
X0248626Y0103918D01*
X0248479Y0103920D01*
X0248333Y0103926D01*
X0248187Y0103936D01*
X0248041Y0103950D01*
X0247895Y0103968D01*
X0247750Y0103989D01*
X0247606Y0104015D01*
X0247462Y0104045D01*
X0247320Y0104078D01*
X0247178Y0104115D01*
X0247037Y0104156D01*
X0246898Y0104201D01*
X0246759Y0104250D01*
X0246622Y0104302D01*
X0246487Y0104359D01*
X0246353Y0104418D01*
X0246221Y0104482D01*
X0246091Y0104549D01*
X0245962Y0104619D01*
X0245835Y0104693D01*
X0245711Y0104770D01*
X0245588Y0104851D01*
X0245468Y0104935D01*
X0245350Y0105022D01*
X0245235Y0105112D01*
X0245122Y0105205D01*
X0245011Y0105302D01*
X0244903Y0105401D01*
X0244798Y0105503D01*
X0244696Y0105608D01*
X0244597Y0105716D01*
X0244500Y0105827D01*
X0244407Y0105940D01*
X0244317Y0106055D01*
X0244230Y0106173D01*
X0244146Y0106293D01*
X0244065Y0106416D01*
X0243988Y0106540D01*
X0243914Y0106667D01*
X0243844Y0106796D01*
X0243777Y0106926D01*
X0243713Y0107058D01*
X0243654Y0107192D01*
X0243597Y0107327D01*
X0243545Y0107464D01*
X0243496Y0107603D01*
X0243451Y0107742D01*
X0243410Y0107883D01*
X0243373Y0108025D01*
X0243340Y0108167D01*
X0243310Y0108311D01*
X0243284Y0108455D01*
X0243263Y0108600D01*
X0243245Y0108746D01*
X0243231Y0108892D01*
X0243221Y0109038D01*
X0243215Y0109184D01*
X0243213Y0109331D01*
D11*
X0201355Y0136285D02*
X0200387Y0135317D01*
X0200387Y0134834D02*
X0200387Y0134350D01*
X0201355Y0136285D02*
X0201355Y0136769D01*
X0200871Y0137252D01*
X0199904Y0137252D01*
X0199420Y0136769D01*
X0198408Y0136769D02*
X0198408Y0136285D01*
X0197441Y0135317D01*
X0197441Y0134834D02*
X0197441Y0134350D01*
X0197925Y0132452D02*
X0198408Y0131969D01*
X0198408Y0131485D01*
X0197441Y0130517D01*
X0197441Y0130034D02*
X0197441Y0129550D01*
X0196473Y0131969D02*
X0196957Y0132452D01*
X0197925Y0132452D01*
X0195462Y0131969D02*
X0195462Y0131485D01*
X0194494Y0130517D01*
X0194494Y0130034D02*
X0194494Y0129550D01*
X0193527Y0131969D02*
X0194011Y0132452D01*
X0194978Y0132452D01*
X0195462Y0131969D01*
X0194494Y0134350D02*
X0194494Y0134834D01*
X0194494Y0135317D02*
X0195462Y0136285D01*
X0195462Y0136769D01*
X0194978Y0137252D01*
X0194011Y0137252D01*
X0193527Y0136769D01*
X0192515Y0136769D02*
X0192515Y0136285D01*
X0191548Y0135317D01*
X0191548Y0134834D02*
X0191548Y0134350D01*
X0192032Y0132452D02*
X0192515Y0131969D01*
X0192515Y0131485D01*
X0191548Y0130517D01*
X0191548Y0130034D02*
X0191548Y0129550D01*
X0192032Y0127652D02*
X0192515Y0127169D01*
X0192515Y0126685D01*
X0191548Y0125717D01*
X0191548Y0125234D02*
X0191548Y0124750D01*
X0189569Y0126685D02*
X0188601Y0125717D01*
X0188601Y0125234D02*
X0188601Y0124750D01*
X0188118Y0122852D02*
X0189085Y0122852D01*
X0189569Y0122369D01*
X0189569Y0121885D01*
X0188601Y0120917D01*
X0188601Y0120434D02*
X0188601Y0119950D01*
X0187634Y0122369D02*
X0188118Y0122852D01*
X0186622Y0122369D02*
X0186622Y0121885D01*
X0185655Y0120917D01*
X0185655Y0120434D02*
X0185655Y0119950D01*
X0186622Y0122369D02*
X0186139Y0122852D01*
X0185171Y0122852D01*
X0184687Y0122369D01*
X0183676Y0122369D02*
X0183676Y0121885D01*
X0182708Y0120917D01*
X0182708Y0120434D02*
X0182708Y0119950D01*
X0181741Y0122369D02*
X0182225Y0122852D01*
X0183192Y0122852D01*
X0183676Y0122369D01*
X0182708Y0124750D02*
X0182708Y0125234D01*
X0182708Y0125717D02*
X0183676Y0126685D01*
X0183676Y0127169D01*
X0183192Y0127652D01*
X0182225Y0127652D01*
X0181741Y0127169D01*
X0180729Y0127169D02*
X0180729Y0126685D01*
X0179762Y0125717D01*
X0179762Y0125234D02*
X0179762Y0124750D01*
X0180246Y0122852D02*
X0180729Y0122369D01*
X0180729Y0121885D01*
X0179762Y0120917D01*
X0179762Y0120434D02*
X0179762Y0119950D01*
X0178794Y0122369D02*
X0179278Y0122852D01*
X0180246Y0122852D01*
X0177783Y0122369D02*
X0177783Y0121885D01*
X0176815Y0120917D01*
X0176815Y0120434D02*
X0176815Y0119950D01*
X0175848Y0122369D02*
X0176332Y0122852D01*
X0177299Y0122852D01*
X0177783Y0122369D01*
X0176815Y0124750D02*
X0176815Y0125234D01*
X0176815Y0125717D02*
X0177783Y0126685D01*
X0177783Y0127169D01*
X0177299Y0127652D01*
X0176332Y0127652D01*
X0175848Y0127169D01*
X0174836Y0127169D02*
X0174836Y0126685D01*
X0173869Y0125717D01*
X0173869Y0125234D02*
X0173869Y0124750D01*
X0173385Y0122852D02*
X0174352Y0122852D01*
X0174836Y0122369D01*
X0174836Y0121885D01*
X0173869Y0120917D01*
X0173869Y0120434D02*
X0173869Y0119950D01*
X0172901Y0122369D02*
X0173385Y0122852D01*
X0171890Y0122369D02*
X0171890Y0121885D01*
X0170922Y0120917D01*
X0170922Y0120434D02*
X0170922Y0119950D01*
X0169955Y0122369D02*
X0170438Y0122852D01*
X0171406Y0122852D01*
X0171890Y0122369D01*
X0170922Y0124750D02*
X0170922Y0125234D01*
X0170922Y0125717D02*
X0171890Y0126685D01*
X0171890Y0127169D01*
X0171406Y0127652D01*
X0170438Y0127652D01*
X0169955Y0127169D01*
X0168943Y0127169D02*
X0168943Y0126685D01*
X0167976Y0125717D01*
X0167976Y0125234D02*
X0167976Y0124750D01*
X0168459Y0122852D02*
X0168943Y0122369D01*
X0168943Y0121885D01*
X0167976Y0120917D01*
X0167976Y0120434D02*
X0167976Y0119950D01*
X0167008Y0122369D02*
X0167492Y0122852D01*
X0168459Y0122852D01*
X0165997Y0122369D02*
X0165997Y0121885D01*
X0165029Y0120917D01*
X0165029Y0120434D02*
X0165029Y0119950D01*
X0164062Y0122369D02*
X0164545Y0122852D01*
X0165513Y0122852D01*
X0165997Y0122369D01*
X0165029Y0124750D02*
X0165029Y0125234D01*
X0165029Y0125717D02*
X0165997Y0126685D01*
X0165997Y0127169D01*
X0165513Y0127652D01*
X0164545Y0127652D01*
X0164062Y0127169D01*
X0163050Y0127169D02*
X0163050Y0126685D01*
X0162083Y0125717D01*
X0162083Y0125234D02*
X0162083Y0124750D01*
X0162566Y0122852D02*
X0163050Y0122369D01*
X0163050Y0121885D01*
X0162083Y0120917D01*
X0162083Y0120434D02*
X0162083Y0119950D01*
X0161115Y0122369D02*
X0161599Y0122852D01*
X0162566Y0122852D01*
X0160104Y0122369D02*
X0160104Y0121885D01*
X0159136Y0120917D01*
X0159136Y0120434D02*
X0159136Y0119950D01*
X0158169Y0122369D02*
X0158652Y0122852D01*
X0159620Y0122852D01*
X0160104Y0122369D01*
X0159136Y0124750D02*
X0159136Y0125234D01*
X0159136Y0125717D02*
X0160104Y0126685D01*
X0160104Y0127169D01*
X0159620Y0127652D01*
X0158652Y0127652D01*
X0158169Y0127169D01*
X0157157Y0127169D02*
X0157157Y0126685D01*
X0156190Y0125717D01*
X0156190Y0125234D02*
X0156190Y0124750D01*
X0156673Y0122852D02*
X0157157Y0122369D01*
X0157157Y0121885D01*
X0156190Y0120917D01*
X0156190Y0120434D02*
X0156190Y0119950D01*
X0155222Y0122369D02*
X0155706Y0122852D01*
X0156673Y0122852D01*
X0154211Y0122369D02*
X0154211Y0121885D01*
X0153243Y0120917D01*
X0153243Y0120434D02*
X0153243Y0119950D01*
X0152276Y0122369D02*
X0152759Y0122852D01*
X0153727Y0122852D01*
X0154211Y0122369D01*
X0153243Y0124750D02*
X0153243Y0125234D01*
X0153243Y0125717D02*
X0154211Y0126685D01*
X0154211Y0127169D01*
X0153727Y0127652D01*
X0152759Y0127652D01*
X0152276Y0127169D01*
X0151264Y0127169D02*
X0151264Y0126685D01*
X0150297Y0125717D01*
X0150297Y0125234D02*
X0150297Y0124750D01*
X0150780Y0122852D02*
X0151264Y0122369D01*
X0151264Y0121885D01*
X0150297Y0120917D01*
X0150297Y0120434D02*
X0150297Y0119950D01*
X0149329Y0122369D02*
X0149813Y0122852D01*
X0150780Y0122852D01*
X0148318Y0122369D02*
X0148318Y0121885D01*
X0147350Y0120917D01*
X0147350Y0120434D02*
X0147350Y0119950D01*
X0146383Y0122369D02*
X0146866Y0122852D01*
X0147834Y0122852D01*
X0148318Y0122369D01*
X0147350Y0124750D02*
X0147350Y0125234D01*
X0147350Y0125717D02*
X0148318Y0126685D01*
X0148318Y0127169D01*
X0147834Y0127652D01*
X0146866Y0127652D01*
X0146383Y0127169D01*
X0145371Y0127169D02*
X0145371Y0126685D01*
X0144404Y0125717D01*
X0144404Y0125234D02*
X0144404Y0124750D01*
X0143920Y0122852D02*
X0144887Y0122852D01*
X0145371Y0122369D01*
X0145371Y0121885D01*
X0144404Y0120917D01*
X0144404Y0120434D02*
X0144404Y0119950D01*
X0143436Y0122369D02*
X0143920Y0122852D01*
X0142425Y0122369D02*
X0142425Y0121885D01*
X0141457Y0120917D01*
X0141457Y0120434D02*
X0141457Y0119950D01*
X0140490Y0122369D02*
X0140973Y0122852D01*
X0141941Y0122852D01*
X0142425Y0122369D01*
X0141457Y0124750D02*
X0141457Y0125234D01*
X0141457Y0125717D02*
X0142425Y0126685D01*
X0142425Y0127169D01*
X0141941Y0127652D01*
X0140973Y0127652D01*
X0140490Y0127169D01*
X0139478Y0127169D02*
X0139478Y0126685D01*
X0138511Y0125717D01*
X0138511Y0125234D02*
X0138511Y0124750D01*
X0138994Y0122852D02*
X0139478Y0122369D01*
X0139478Y0121885D01*
X0138511Y0120917D01*
X0138511Y0120434D02*
X0138511Y0119950D01*
X0137543Y0122369D02*
X0138027Y0122852D01*
X0138994Y0122852D01*
X0136531Y0122369D02*
X0136531Y0121885D01*
X0135564Y0120917D01*
X0135564Y0120434D02*
X0135564Y0119950D01*
X0134597Y0122369D02*
X0135080Y0122852D01*
X0136048Y0122852D01*
X0136531Y0122369D01*
X0135564Y0124750D02*
X0135564Y0125234D01*
X0135564Y0125717D02*
X0136531Y0126685D01*
X0136531Y0127169D01*
X0136048Y0127652D01*
X0135080Y0127652D01*
X0134597Y0127169D01*
X0133585Y0127169D02*
X0133585Y0126685D01*
X0132617Y0125717D01*
X0132617Y0125234D02*
X0132617Y0124750D01*
X0132134Y0122852D02*
X0133101Y0122852D01*
X0133585Y0122369D01*
X0133585Y0121885D01*
X0132617Y0120917D01*
X0132617Y0120434D02*
X0132617Y0119950D01*
X0131650Y0122369D02*
X0132134Y0122852D01*
X0131650Y0127169D02*
X0132134Y0127652D01*
X0133101Y0127652D01*
X0133585Y0127169D01*
X0132617Y0129550D02*
X0132617Y0130034D01*
X0132617Y0130517D02*
X0133585Y0131485D01*
X0133585Y0131969D01*
X0133101Y0132452D01*
X0132134Y0132452D01*
X0131650Y0131969D01*
X0132617Y0134350D02*
X0132617Y0134834D01*
X0132617Y0135317D02*
X0133585Y0136285D01*
X0133585Y0136769D01*
X0133101Y0137252D01*
X0132134Y0137252D01*
X0131650Y0136769D01*
X0134597Y0136769D02*
X0135080Y0137252D01*
X0136048Y0137252D01*
X0136531Y0136769D01*
X0136531Y0136285D01*
X0135564Y0135317D01*
X0135564Y0134834D02*
X0135564Y0134350D01*
X0136048Y0132452D02*
X0136531Y0131969D01*
X0136531Y0131485D01*
X0135564Y0130517D01*
X0135564Y0130034D02*
X0135564Y0129550D01*
X0134597Y0131969D02*
X0135080Y0132452D01*
X0136048Y0132452D01*
X0137543Y0131969D02*
X0138027Y0132452D01*
X0138994Y0132452D01*
X0139478Y0131969D01*
X0139478Y0131485D01*
X0138511Y0130517D01*
X0138511Y0130034D02*
X0138511Y0129550D01*
X0138994Y0127652D02*
X0139478Y0127169D01*
X0138994Y0127652D02*
X0138027Y0127652D01*
X0137543Y0127169D01*
X0141457Y0129550D02*
X0141457Y0130034D01*
X0141457Y0130517D02*
X0142425Y0131485D01*
X0142425Y0131969D01*
X0141941Y0132452D01*
X0140973Y0132452D01*
X0140490Y0131969D01*
X0141457Y0134350D02*
X0141457Y0134834D01*
X0141457Y0135317D02*
X0142425Y0136285D01*
X0142425Y0136769D01*
X0141941Y0137252D01*
X0140973Y0137252D01*
X0140490Y0136769D01*
X0139478Y0136769D02*
X0139478Y0136285D01*
X0138511Y0135317D01*
X0138511Y0134834D02*
X0138511Y0134350D01*
X0139478Y0136769D02*
X0138994Y0137252D01*
X0138027Y0137252D01*
X0137543Y0136769D01*
X0143436Y0136769D02*
X0143920Y0137252D01*
X0144887Y0137252D01*
X0145371Y0136769D01*
X0145371Y0136285D01*
X0144404Y0135317D01*
X0144404Y0134834D02*
X0144404Y0134350D01*
X0143920Y0132452D02*
X0144887Y0132452D01*
X0145371Y0131969D01*
X0145371Y0131485D01*
X0144404Y0130517D01*
X0144404Y0130034D02*
X0144404Y0129550D01*
X0143920Y0127652D02*
X0144887Y0127652D01*
X0145371Y0127169D01*
X0143920Y0127652D02*
X0143436Y0127169D01*
X0147350Y0129550D02*
X0147350Y0130034D01*
X0147350Y0130517D02*
X0148318Y0131485D01*
X0148318Y0131969D01*
X0147834Y0132452D01*
X0146866Y0132452D01*
X0146383Y0131969D01*
X0143920Y0132452D02*
X0143436Y0131969D01*
X0147350Y0134350D02*
X0147350Y0134834D01*
X0147350Y0135317D02*
X0148318Y0136285D01*
X0148318Y0136769D01*
X0147834Y0137252D01*
X0146866Y0137252D01*
X0146383Y0136769D01*
X0149329Y0136769D02*
X0149813Y0137252D01*
X0150780Y0137252D01*
X0151264Y0136769D01*
X0151264Y0136285D01*
X0150297Y0135317D01*
X0150297Y0134834D02*
X0150297Y0134350D01*
X0149813Y0132452D02*
X0150780Y0132452D01*
X0151264Y0131969D01*
X0151264Y0131485D01*
X0150297Y0130517D01*
X0150297Y0130034D02*
X0150297Y0129550D01*
X0149813Y0127652D02*
X0150780Y0127652D01*
X0151264Y0127169D01*
X0149813Y0127652D02*
X0149329Y0127169D01*
X0153243Y0129550D02*
X0153243Y0130034D01*
X0153243Y0130517D02*
X0154211Y0131485D01*
X0154211Y0131969D01*
X0153727Y0132452D01*
X0152759Y0132452D01*
X0152276Y0131969D01*
X0149813Y0132452D02*
X0149329Y0131969D01*
X0153243Y0134350D02*
X0153243Y0134834D01*
X0153243Y0135317D02*
X0154211Y0136285D01*
X0154211Y0136769D01*
X0153727Y0137252D01*
X0152759Y0137252D01*
X0152276Y0136769D01*
X0155222Y0136769D02*
X0155706Y0137252D01*
X0156673Y0137252D01*
X0157157Y0136769D01*
X0157157Y0136285D01*
X0156190Y0135317D01*
X0156190Y0134834D02*
X0156190Y0134350D01*
X0156673Y0132452D02*
X0157157Y0131969D01*
X0157157Y0131485D01*
X0156190Y0130517D01*
X0156190Y0130034D02*
X0156190Y0129550D01*
X0156673Y0127652D02*
X0157157Y0127169D01*
X0156673Y0127652D02*
X0155706Y0127652D01*
X0155222Y0127169D01*
X0159136Y0129550D02*
X0159136Y0130034D01*
X0159136Y0130517D02*
X0160104Y0131485D01*
X0160104Y0131969D01*
X0159620Y0132452D01*
X0158652Y0132452D01*
X0158169Y0131969D01*
X0156673Y0132452D02*
X0155706Y0132452D01*
X0155222Y0131969D01*
X0159136Y0134350D02*
X0159136Y0134834D01*
X0159136Y0135317D02*
X0160104Y0136285D01*
X0160104Y0136769D01*
X0159620Y0137252D01*
X0158652Y0137252D01*
X0158169Y0136769D01*
X0161115Y0136769D02*
X0161599Y0137252D01*
X0162566Y0137252D01*
X0163050Y0136769D01*
X0163050Y0136285D01*
X0162083Y0135317D01*
X0162083Y0134834D02*
X0162083Y0134350D01*
X0162566Y0132452D02*
X0163050Y0131969D01*
X0163050Y0131485D01*
X0162083Y0130517D01*
X0162083Y0130034D02*
X0162083Y0129550D01*
X0162566Y0127652D02*
X0163050Y0127169D01*
X0162566Y0127652D02*
X0161599Y0127652D01*
X0161115Y0127169D01*
X0165029Y0129550D02*
X0165029Y0130034D01*
X0165029Y0130517D02*
X0165997Y0131485D01*
X0165997Y0131969D01*
X0165513Y0132452D01*
X0164545Y0132452D01*
X0164062Y0131969D01*
X0162566Y0132452D02*
X0161599Y0132452D01*
X0161115Y0131969D01*
X0165029Y0134350D02*
X0165029Y0134834D01*
X0165029Y0135317D02*
X0165997Y0136285D01*
X0165997Y0136769D01*
X0165513Y0137252D01*
X0164545Y0137252D01*
X0164062Y0136769D01*
X0167008Y0136769D02*
X0167492Y0137252D01*
X0168459Y0137252D01*
X0168943Y0136769D01*
X0168943Y0136285D01*
X0167976Y0135317D01*
X0167976Y0134834D02*
X0167976Y0134350D01*
X0168459Y0132452D02*
X0168943Y0131969D01*
X0168943Y0131485D01*
X0167976Y0130517D01*
X0167976Y0130034D02*
X0167976Y0129550D01*
X0168459Y0127652D02*
X0168943Y0127169D01*
X0168459Y0127652D02*
X0167492Y0127652D01*
X0167008Y0127169D01*
X0170922Y0129550D02*
X0170922Y0130034D01*
X0170922Y0130517D02*
X0171890Y0131485D01*
X0171890Y0131969D01*
X0171406Y0132452D01*
X0170438Y0132452D01*
X0169955Y0131969D01*
X0168459Y0132452D02*
X0167492Y0132452D01*
X0167008Y0131969D01*
X0170922Y0134350D02*
X0170922Y0134834D01*
X0170922Y0135317D02*
X0171890Y0136285D01*
X0171890Y0136769D01*
X0171406Y0137252D01*
X0170438Y0137252D01*
X0169955Y0136769D01*
X0172901Y0136769D02*
X0173385Y0137252D01*
X0174352Y0137252D01*
X0174836Y0136769D01*
X0174836Y0136285D01*
X0173869Y0135317D01*
X0173869Y0134834D02*
X0173869Y0134350D01*
X0173385Y0132452D02*
X0174352Y0132452D01*
X0174836Y0131969D01*
X0174836Y0131485D01*
X0173869Y0130517D01*
X0173869Y0130034D02*
X0173869Y0129550D01*
X0173385Y0127652D02*
X0174352Y0127652D01*
X0174836Y0127169D01*
X0173385Y0127652D02*
X0172901Y0127169D01*
X0176815Y0129550D02*
X0176815Y0130034D01*
X0176815Y0130517D02*
X0177783Y0131485D01*
X0177783Y0131969D01*
X0177299Y0132452D01*
X0176332Y0132452D01*
X0175848Y0131969D01*
X0173385Y0132452D02*
X0172901Y0131969D01*
X0176815Y0134350D02*
X0176815Y0134834D01*
X0176815Y0135317D02*
X0177783Y0136285D01*
X0177783Y0136769D01*
X0177299Y0137252D01*
X0176332Y0137252D01*
X0175848Y0136769D01*
X0178794Y0136769D02*
X0179278Y0137252D01*
X0180246Y0137252D01*
X0180729Y0136769D01*
X0180729Y0136285D01*
X0179762Y0135317D01*
X0179762Y0134834D02*
X0179762Y0134350D01*
X0179278Y0132452D02*
X0180246Y0132452D01*
X0180729Y0131969D01*
X0180729Y0131485D01*
X0179762Y0130517D01*
X0179762Y0130034D02*
X0179762Y0129550D01*
X0179278Y0127652D02*
X0180246Y0127652D01*
X0180729Y0127169D01*
X0179278Y0127652D02*
X0178794Y0127169D01*
X0182708Y0129550D02*
X0182708Y0130034D01*
X0182708Y0130517D02*
X0183676Y0131485D01*
X0183676Y0131969D01*
X0183192Y0132452D01*
X0182225Y0132452D01*
X0181741Y0131969D01*
X0179278Y0132452D02*
X0178794Y0131969D01*
X0182708Y0134350D02*
X0182708Y0134834D01*
X0182708Y0135317D02*
X0183676Y0136285D01*
X0183676Y0136769D01*
X0183192Y0137252D01*
X0182225Y0137252D01*
X0181741Y0136769D01*
X0184687Y0136769D02*
X0185171Y0137252D01*
X0186139Y0137252D01*
X0186622Y0136769D01*
X0186622Y0136285D01*
X0185655Y0135317D01*
X0185655Y0134834D02*
X0185655Y0134350D01*
X0186139Y0132452D02*
X0186622Y0131969D01*
X0186622Y0131485D01*
X0185655Y0130517D01*
X0185655Y0130034D02*
X0185655Y0129550D01*
X0186139Y0127652D02*
X0186622Y0127169D01*
X0186622Y0126685D01*
X0185655Y0125717D01*
X0185655Y0125234D02*
X0185655Y0124750D01*
X0189569Y0126685D02*
X0189569Y0127169D01*
X0189085Y0127652D01*
X0188118Y0127652D01*
X0187634Y0127169D01*
X0186139Y0127652D02*
X0185171Y0127652D01*
X0184687Y0127169D01*
X0188601Y0129550D02*
X0188601Y0130034D01*
X0188601Y0130517D02*
X0189569Y0131485D01*
X0189569Y0131969D01*
X0189085Y0132452D01*
X0188118Y0132452D01*
X0187634Y0131969D01*
X0186139Y0132452D02*
X0185171Y0132452D01*
X0184687Y0131969D01*
X0188601Y0134350D02*
X0188601Y0134834D01*
X0188601Y0135317D02*
X0189569Y0136285D01*
X0189569Y0136769D01*
X0189085Y0137252D01*
X0188118Y0137252D01*
X0187634Y0136769D01*
X0190580Y0136769D02*
X0191064Y0137252D01*
X0192032Y0137252D01*
X0192515Y0136769D01*
X0196473Y0136769D02*
X0196957Y0137252D01*
X0197925Y0137252D01*
X0198408Y0136769D01*
X0192032Y0132452D02*
X0191064Y0132452D01*
X0190580Y0131969D01*
X0191064Y0127652D02*
X0192032Y0127652D01*
X0191064Y0127652D02*
X0190580Y0127169D01*
D12*
X0124000Y0153700D02*
X0121500Y0153700D01*
X0119000Y0153700D01*
X0119000Y0156200D02*
X0121500Y0156200D01*
X0124000Y0156200D01*
X0074000Y0158800D02*
X0071500Y0158800D01*
X0069000Y0158800D01*
X0069000Y0161300D02*
X0071500Y0161300D01*
X0074000Y0161300D01*
D13*
X0071500Y0161300D02*
X0071500Y0166000D01*
X0071500Y0158800D02*
X0071500Y0154000D01*
X0065500Y0146500D02*
X0065502Y0146440D01*
X0065507Y0146379D01*
X0065516Y0146320D01*
X0065529Y0146261D01*
X0065545Y0146202D01*
X0065565Y0146145D01*
X0065588Y0146090D01*
X0065615Y0146035D01*
X0065644Y0145983D01*
X0065677Y0145932D01*
X0065713Y0145883D01*
X0065751Y0145837D01*
X0065793Y0145793D01*
X0065837Y0145751D01*
X0065883Y0145713D01*
X0065932Y0145677D01*
X0065983Y0145644D01*
X0066035Y0145615D01*
X0066090Y0145588D01*
X0066145Y0145565D01*
X0066202Y0145545D01*
X0066261Y0145529D01*
X0066320Y0145516D01*
X0066379Y0145507D01*
X0066440Y0145502D01*
X0066500Y0145500D01*
X0076500Y0145500D01*
X0076560Y0145502D01*
X0076621Y0145507D01*
X0076680Y0145516D01*
X0076739Y0145529D01*
X0076798Y0145545D01*
X0076855Y0145565D01*
X0076910Y0145588D01*
X0076965Y0145615D01*
X0077017Y0145644D01*
X0077068Y0145677D01*
X0077117Y0145713D01*
X0077163Y0145751D01*
X0077207Y0145793D01*
X0077249Y0145837D01*
X0077287Y0145883D01*
X0077323Y0145932D01*
X0077356Y0145983D01*
X0077385Y0146035D01*
X0077412Y0146090D01*
X0077435Y0146145D01*
X0077455Y0146202D01*
X0077471Y0146261D01*
X0077484Y0146320D01*
X0077493Y0146379D01*
X0077498Y0146440D01*
X0077500Y0146500D01*
X0077500Y0173500D01*
X0077498Y0173560D01*
X0077493Y0173621D01*
X0077484Y0173680D01*
X0077471Y0173739D01*
X0077455Y0173798D01*
X0077435Y0173855D01*
X0077412Y0173910D01*
X0077385Y0173965D01*
X0077356Y0174017D01*
X0077323Y0174068D01*
X0077287Y0174117D01*
X0077249Y0174163D01*
X0077207Y0174207D01*
X0077163Y0174249D01*
X0077117Y0174287D01*
X0077068Y0174323D01*
X0077017Y0174356D01*
X0076965Y0174385D01*
X0076910Y0174412D01*
X0076855Y0174435D01*
X0076798Y0174455D01*
X0076739Y0174471D01*
X0076680Y0174484D01*
X0076621Y0174493D01*
X0076560Y0174498D01*
X0076500Y0174500D01*
X0066500Y0174500D01*
X0066440Y0174498D01*
X0066379Y0174493D01*
X0066320Y0174484D01*
X0066261Y0174471D01*
X0066202Y0174455D01*
X0066145Y0174435D01*
X0066090Y0174412D01*
X0066035Y0174385D01*
X0065983Y0174356D01*
X0065932Y0174323D01*
X0065883Y0174287D01*
X0065837Y0174249D01*
X0065793Y0174207D01*
X0065751Y0174163D01*
X0065713Y0174117D01*
X0065677Y0174068D01*
X0065644Y0174017D01*
X0065615Y0173965D01*
X0065588Y0173910D01*
X0065565Y0173855D01*
X0065545Y0173798D01*
X0065529Y0173739D01*
X0065516Y0173680D01*
X0065507Y0173621D01*
X0065502Y0173560D01*
X0065500Y0173500D01*
X0065500Y0146500D01*
X0056500Y0157000D02*
X0046500Y0157000D01*
X0046500Y0173000D01*
X0056500Y0173000D01*
X0056500Y0157000D01*
X0051500Y0162500D02*
X0051500Y0165000D01*
X0054000Y0165000D01*
X0051500Y0165000D02*
X0054000Y0169000D01*
X0049000Y0169000D01*
X0051500Y0165000D01*
X0049000Y0165000D01*
X0051500Y0165000D02*
X0051500Y0171000D01*
X0021500Y0173000D02*
X0021500Y0157000D01*
X0011500Y0157000D01*
X0011500Y0173000D01*
X0021500Y0173000D01*
X0019000Y0169000D02*
X0016500Y0165000D01*
X0019000Y0165000D01*
X0016500Y0165000D02*
X0014000Y0165000D01*
X0016500Y0165000D02*
X0014000Y0169000D01*
X0019000Y0169000D01*
X0016500Y0171000D02*
X0016500Y0165000D01*
X0016500Y0162500D01*
X0047500Y0134000D02*
X0049000Y0134000D01*
X0049500Y0133500D01*
X0063500Y0133500D01*
X0064000Y0134000D01*
X0065500Y0134000D01*
X0065560Y0133998D01*
X0065621Y0133993D01*
X0065680Y0133984D01*
X0065739Y0133971D01*
X0065798Y0133955D01*
X0065855Y0133935D01*
X0065910Y0133912D01*
X0065965Y0133885D01*
X0066017Y0133856D01*
X0066068Y0133823D01*
X0066117Y0133787D01*
X0066163Y0133749D01*
X0066207Y0133707D01*
X0066249Y0133663D01*
X0066287Y0133617D01*
X0066323Y0133568D01*
X0066356Y0133517D01*
X0066385Y0133465D01*
X0066412Y0133410D01*
X0066435Y0133355D01*
X0066455Y0133298D01*
X0066471Y0133239D01*
X0066484Y0133180D01*
X0066493Y0133121D01*
X0066498Y0133060D01*
X0066500Y0133000D01*
X0066500Y0127000D01*
X0066498Y0126940D01*
X0066493Y0126879D01*
X0066484Y0126820D01*
X0066471Y0126761D01*
X0066455Y0126702D01*
X0066435Y0126645D01*
X0066412Y0126590D01*
X0066385Y0126535D01*
X0066356Y0126483D01*
X0066323Y0126432D01*
X0066287Y0126383D01*
X0066249Y0126337D01*
X0066207Y0126293D01*
X0066163Y0126251D01*
X0066117Y0126213D01*
X0066068Y0126177D01*
X0066017Y0126144D01*
X0065965Y0126115D01*
X0065910Y0126088D01*
X0065855Y0126065D01*
X0065798Y0126045D01*
X0065739Y0126029D01*
X0065680Y0126016D01*
X0065621Y0126007D01*
X0065560Y0126002D01*
X0065500Y0126000D01*
X0064000Y0126000D01*
X0063500Y0126500D01*
X0049500Y0126500D01*
X0049000Y0126000D01*
X0047500Y0126000D01*
X0047440Y0126002D01*
X0047379Y0126007D01*
X0047320Y0126016D01*
X0047261Y0126029D01*
X0047202Y0126045D01*
X0047145Y0126065D01*
X0047090Y0126088D01*
X0047035Y0126115D01*
X0046983Y0126144D01*
X0046932Y0126177D01*
X0046883Y0126213D01*
X0046837Y0126251D01*
X0046793Y0126293D01*
X0046751Y0126337D01*
X0046713Y0126383D01*
X0046677Y0126432D01*
X0046644Y0126483D01*
X0046615Y0126535D01*
X0046588Y0126590D01*
X0046565Y0126645D01*
X0046545Y0126702D01*
X0046529Y0126761D01*
X0046516Y0126820D01*
X0046507Y0126879D01*
X0046502Y0126940D01*
X0046500Y0127000D01*
X0046500Y0133000D01*
X0046502Y0133060D01*
X0046507Y0133121D01*
X0046516Y0133180D01*
X0046529Y0133239D01*
X0046545Y0133298D01*
X0046565Y0133355D01*
X0046588Y0133410D01*
X0046615Y0133465D01*
X0046644Y0133517D01*
X0046677Y0133568D01*
X0046713Y0133617D01*
X0046751Y0133663D01*
X0046793Y0133707D01*
X0046837Y0133749D01*
X0046883Y0133787D01*
X0046932Y0133823D01*
X0046983Y0133856D01*
X0047035Y0133885D01*
X0047090Y0133912D01*
X0047145Y0133935D01*
X0047202Y0133955D01*
X0047261Y0133971D01*
X0047320Y0133984D01*
X0047379Y0133993D01*
X0047440Y0133998D01*
X0047500Y0134000D01*
X0082500Y0146000D02*
X0082500Y0147500D01*
X0083000Y0148000D01*
X0083000Y0162000D01*
X0082500Y0162500D01*
X0082500Y0164000D01*
X0082502Y0164060D01*
X0082507Y0164121D01*
X0082516Y0164180D01*
X0082529Y0164239D01*
X0082545Y0164298D01*
X0082565Y0164355D01*
X0082588Y0164410D01*
X0082615Y0164465D01*
X0082644Y0164517D01*
X0082677Y0164568D01*
X0082713Y0164617D01*
X0082751Y0164663D01*
X0082793Y0164707D01*
X0082837Y0164749D01*
X0082883Y0164787D01*
X0082932Y0164823D01*
X0082983Y0164856D01*
X0083035Y0164885D01*
X0083090Y0164912D01*
X0083145Y0164935D01*
X0083202Y0164955D01*
X0083261Y0164971D01*
X0083320Y0164984D01*
X0083379Y0164993D01*
X0083440Y0164998D01*
X0083500Y0165000D01*
X0089500Y0165000D01*
X0089560Y0164998D01*
X0089621Y0164993D01*
X0089680Y0164984D01*
X0089739Y0164971D01*
X0089798Y0164955D01*
X0089855Y0164935D01*
X0089910Y0164912D01*
X0089965Y0164885D01*
X0090017Y0164856D01*
X0090068Y0164823D01*
X0090117Y0164787D01*
X0090163Y0164749D01*
X0090207Y0164707D01*
X0090249Y0164663D01*
X0090287Y0164617D01*
X0090323Y0164568D01*
X0090356Y0164517D01*
X0090385Y0164465D01*
X0090412Y0164410D01*
X0090435Y0164355D01*
X0090455Y0164298D01*
X0090471Y0164239D01*
X0090484Y0164180D01*
X0090493Y0164121D01*
X0090498Y0164060D01*
X0090500Y0164000D01*
X0090500Y0162500D01*
X0090000Y0162000D01*
X0090000Y0148000D01*
X0090500Y0147500D01*
X0090500Y0146000D01*
X0090498Y0145940D01*
X0090493Y0145879D01*
X0090484Y0145820D01*
X0090471Y0145761D01*
X0090455Y0145702D01*
X0090435Y0145645D01*
X0090412Y0145590D01*
X0090385Y0145535D01*
X0090356Y0145483D01*
X0090323Y0145432D01*
X0090287Y0145383D01*
X0090249Y0145337D01*
X0090207Y0145293D01*
X0090163Y0145251D01*
X0090117Y0145213D01*
X0090068Y0145177D01*
X0090017Y0145144D01*
X0089965Y0145115D01*
X0089910Y0145088D01*
X0089855Y0145065D01*
X0089798Y0145045D01*
X0089739Y0145029D01*
X0089680Y0145016D01*
X0089621Y0145007D01*
X0089560Y0145002D01*
X0089500Y0145000D01*
X0083500Y0145000D01*
X0083440Y0145002D01*
X0083379Y0145007D01*
X0083320Y0145016D01*
X0083261Y0145029D01*
X0083202Y0145045D01*
X0083145Y0145065D01*
X0083090Y0145088D01*
X0083035Y0145115D01*
X0082983Y0145144D01*
X0082932Y0145177D01*
X0082883Y0145213D01*
X0082837Y0145251D01*
X0082793Y0145293D01*
X0082751Y0145337D01*
X0082713Y0145383D01*
X0082677Y0145432D01*
X0082644Y0145483D01*
X0082615Y0145535D01*
X0082588Y0145590D01*
X0082565Y0145645D01*
X0082545Y0145702D01*
X0082529Y0145761D01*
X0082516Y0145820D01*
X0082507Y0145879D01*
X0082502Y0145940D01*
X0082500Y0146000D01*
X0096500Y0138000D02*
X0096500Y0132000D01*
X0096502Y0131940D01*
X0096507Y0131879D01*
X0096516Y0131820D01*
X0096529Y0131761D01*
X0096545Y0131702D01*
X0096565Y0131645D01*
X0096588Y0131590D01*
X0096615Y0131535D01*
X0096644Y0131483D01*
X0096677Y0131432D01*
X0096713Y0131383D01*
X0096751Y0131337D01*
X0096793Y0131293D01*
X0096837Y0131251D01*
X0096883Y0131213D01*
X0096932Y0131177D01*
X0096983Y0131144D01*
X0097035Y0131115D01*
X0097090Y0131088D01*
X0097145Y0131065D01*
X0097202Y0131045D01*
X0097261Y0131029D01*
X0097320Y0131016D01*
X0097379Y0131007D01*
X0097440Y0131002D01*
X0097500Y0131000D01*
X0099000Y0131000D01*
X0099500Y0131500D01*
X0113500Y0131500D01*
X0114000Y0131000D01*
X0115500Y0131000D01*
X0115560Y0131002D01*
X0115621Y0131007D01*
X0115680Y0131016D01*
X0115739Y0131029D01*
X0115798Y0131045D01*
X0115855Y0131065D01*
X0115910Y0131088D01*
X0115965Y0131115D01*
X0116017Y0131144D01*
X0116068Y0131177D01*
X0116117Y0131213D01*
X0116163Y0131251D01*
X0116207Y0131293D01*
X0116249Y0131337D01*
X0116287Y0131383D01*
X0116323Y0131432D01*
X0116356Y0131483D01*
X0116385Y0131535D01*
X0116412Y0131590D01*
X0116435Y0131645D01*
X0116455Y0131702D01*
X0116471Y0131761D01*
X0116484Y0131820D01*
X0116493Y0131879D01*
X0116498Y0131940D01*
X0116500Y0132000D01*
X0116500Y0138000D01*
X0116498Y0138060D01*
X0116493Y0138121D01*
X0116484Y0138180D01*
X0116471Y0138239D01*
X0116455Y0138298D01*
X0116435Y0138355D01*
X0116412Y0138410D01*
X0116385Y0138465D01*
X0116356Y0138517D01*
X0116323Y0138568D01*
X0116287Y0138617D01*
X0116249Y0138663D01*
X0116207Y0138707D01*
X0116163Y0138749D01*
X0116117Y0138787D01*
X0116068Y0138823D01*
X0116017Y0138856D01*
X0115965Y0138885D01*
X0115910Y0138912D01*
X0115855Y0138935D01*
X0115798Y0138955D01*
X0115739Y0138971D01*
X0115680Y0138984D01*
X0115621Y0138993D01*
X0115560Y0138998D01*
X0115500Y0139000D01*
X0114000Y0139000D01*
X0113500Y0138500D01*
X0099500Y0138500D01*
X0099000Y0139000D01*
X0097500Y0139000D01*
X0097440Y0138998D01*
X0097379Y0138993D01*
X0097320Y0138984D01*
X0097261Y0138971D01*
X0097202Y0138955D01*
X0097145Y0138935D01*
X0097090Y0138912D01*
X0097035Y0138885D01*
X0096983Y0138856D01*
X0096932Y0138823D01*
X0096883Y0138787D01*
X0096837Y0138749D01*
X0096793Y0138707D01*
X0096751Y0138663D01*
X0096713Y0138617D01*
X0096677Y0138568D01*
X0096644Y0138517D01*
X0096615Y0138465D01*
X0096588Y0138410D01*
X0096565Y0138355D01*
X0096545Y0138298D01*
X0096529Y0138239D01*
X0096516Y0138180D01*
X0096507Y0138121D01*
X0096502Y0138060D01*
X0096500Y0138000D01*
X0115500Y0141500D02*
X0115500Y0168500D01*
X0115502Y0168560D01*
X0115507Y0168621D01*
X0115516Y0168680D01*
X0115529Y0168739D01*
X0115545Y0168798D01*
X0115565Y0168855D01*
X0115588Y0168910D01*
X0115615Y0168965D01*
X0115644Y0169017D01*
X0115677Y0169068D01*
X0115713Y0169117D01*
X0115751Y0169163D01*
X0115793Y0169207D01*
X0115837Y0169249D01*
X0115883Y0169287D01*
X0115932Y0169323D01*
X0115983Y0169356D01*
X0116035Y0169385D01*
X0116090Y0169412D01*
X0116145Y0169435D01*
X0116202Y0169455D01*
X0116261Y0169471D01*
X0116320Y0169484D01*
X0116379Y0169493D01*
X0116440Y0169498D01*
X0116500Y0169500D01*
X0126500Y0169500D01*
X0126560Y0169498D01*
X0126621Y0169493D01*
X0126680Y0169484D01*
X0126739Y0169471D01*
X0126798Y0169455D01*
X0126855Y0169435D01*
X0126910Y0169412D01*
X0126965Y0169385D01*
X0127017Y0169356D01*
X0127068Y0169323D01*
X0127117Y0169287D01*
X0127163Y0169249D01*
X0127207Y0169207D01*
X0127249Y0169163D01*
X0127287Y0169117D01*
X0127323Y0169068D01*
X0127356Y0169017D01*
X0127385Y0168965D01*
X0127412Y0168910D01*
X0127435Y0168855D01*
X0127455Y0168798D01*
X0127471Y0168739D01*
X0127484Y0168680D01*
X0127493Y0168621D01*
X0127498Y0168560D01*
X0127500Y0168500D01*
X0127500Y0141500D01*
X0127498Y0141440D01*
X0127493Y0141379D01*
X0127484Y0141320D01*
X0127471Y0141261D01*
X0127455Y0141202D01*
X0127435Y0141145D01*
X0127412Y0141090D01*
X0127385Y0141035D01*
X0127356Y0140983D01*
X0127323Y0140932D01*
X0127287Y0140883D01*
X0127249Y0140837D01*
X0127207Y0140793D01*
X0127163Y0140751D01*
X0127117Y0140713D01*
X0127068Y0140677D01*
X0127017Y0140644D01*
X0126965Y0140615D01*
X0126910Y0140588D01*
X0126855Y0140565D01*
X0126798Y0140545D01*
X0126739Y0140529D01*
X0126680Y0140516D01*
X0126621Y0140507D01*
X0126560Y0140502D01*
X0126500Y0140500D01*
X0116500Y0140500D01*
X0116440Y0140502D01*
X0116379Y0140507D01*
X0116320Y0140516D01*
X0116261Y0140529D01*
X0116202Y0140545D01*
X0116145Y0140565D01*
X0116090Y0140588D01*
X0116035Y0140615D01*
X0115983Y0140644D01*
X0115932Y0140677D01*
X0115883Y0140713D01*
X0115837Y0140751D01*
X0115793Y0140793D01*
X0115751Y0140837D01*
X0115713Y0140883D01*
X0115677Y0140932D01*
X0115644Y0140983D01*
X0115615Y0141035D01*
X0115588Y0141090D01*
X0115565Y0141145D01*
X0115545Y0141202D01*
X0115529Y0141261D01*
X0115516Y0141320D01*
X0115507Y0141379D01*
X0115502Y0141440D01*
X0115500Y0141500D01*
X0121500Y0149000D02*
X0121500Y0153700D01*
X0121500Y0156200D02*
X0121500Y0161000D01*
X0100500Y0161000D02*
X0100500Y0162500D01*
X0100000Y0163000D01*
X0100000Y0177000D01*
X0100500Y0177500D01*
X0100500Y0179000D01*
X0100498Y0179060D01*
X0100493Y0179121D01*
X0100484Y0179180D01*
X0100471Y0179239D01*
X0100455Y0179298D01*
X0100435Y0179355D01*
X0100412Y0179410D01*
X0100385Y0179465D01*
X0100356Y0179517D01*
X0100323Y0179568D01*
X0100287Y0179617D01*
X0100249Y0179663D01*
X0100207Y0179707D01*
X0100163Y0179749D01*
X0100117Y0179787D01*
X0100068Y0179823D01*
X0100017Y0179856D01*
X0099965Y0179885D01*
X0099910Y0179912D01*
X0099855Y0179935D01*
X0099798Y0179955D01*
X0099739Y0179971D01*
X0099680Y0179984D01*
X0099621Y0179993D01*
X0099560Y0179998D01*
X0099500Y0180000D01*
X0093500Y0180000D01*
X0093440Y0179998D01*
X0093379Y0179993D01*
X0093320Y0179984D01*
X0093261Y0179971D01*
X0093202Y0179955D01*
X0093145Y0179935D01*
X0093090Y0179912D01*
X0093035Y0179885D01*
X0092983Y0179856D01*
X0092932Y0179823D01*
X0092883Y0179787D01*
X0092837Y0179749D01*
X0092793Y0179707D01*
X0092751Y0179663D01*
X0092713Y0179617D01*
X0092677Y0179568D01*
X0092644Y0179517D01*
X0092615Y0179465D01*
X0092588Y0179410D01*
X0092565Y0179355D01*
X0092545Y0179298D01*
X0092529Y0179239D01*
X0092516Y0179180D01*
X0092507Y0179121D01*
X0092502Y0179060D01*
X0092500Y0179000D01*
X0092500Y0177500D01*
X0093000Y0177000D01*
X0093000Y0163000D01*
X0092500Y0162500D01*
X0092500Y0161000D01*
X0092502Y0160940D01*
X0092507Y0160879D01*
X0092516Y0160820D01*
X0092529Y0160761D01*
X0092545Y0160702D01*
X0092565Y0160645D01*
X0092588Y0160590D01*
X0092615Y0160535D01*
X0092644Y0160483D01*
X0092677Y0160432D01*
X0092713Y0160383D01*
X0092751Y0160337D01*
X0092793Y0160293D01*
X0092837Y0160251D01*
X0092883Y0160213D01*
X0092932Y0160177D01*
X0092983Y0160144D01*
X0093035Y0160115D01*
X0093090Y0160088D01*
X0093145Y0160065D01*
X0093202Y0160045D01*
X0093261Y0160029D01*
X0093320Y0160016D01*
X0093379Y0160007D01*
X0093440Y0160002D01*
X0093500Y0160000D01*
X0099500Y0160000D01*
X0099560Y0160002D01*
X0099621Y0160007D01*
X0099680Y0160016D01*
X0099739Y0160029D01*
X0099798Y0160045D01*
X0099855Y0160065D01*
X0099910Y0160088D01*
X0099965Y0160115D01*
X0100017Y0160144D01*
X0100068Y0160177D01*
X0100117Y0160213D01*
X0100163Y0160251D01*
X0100207Y0160293D01*
X0100249Y0160337D01*
X0100287Y0160383D01*
X0100323Y0160432D01*
X0100356Y0160483D01*
X0100385Y0160535D01*
X0100412Y0160590D01*
X0100435Y0160645D01*
X0100455Y0160702D01*
X0100471Y0160761D01*
X0100484Y0160820D01*
X0100493Y0160879D01*
X0100498Y0160940D01*
X0100500Y0161000D01*
X0112500Y0191000D02*
X0114000Y0191000D01*
X0114500Y0191500D01*
X0128500Y0191500D01*
X0129000Y0191000D01*
X0130500Y0191000D01*
X0130560Y0191002D01*
X0130621Y0191007D01*
X0130680Y0191016D01*
X0130739Y0191029D01*
X0130798Y0191045D01*
X0130855Y0191065D01*
X0130910Y0191088D01*
X0130965Y0191115D01*
X0131017Y0191144D01*
X0131068Y0191177D01*
X0131117Y0191213D01*
X0131163Y0191251D01*
X0131207Y0191293D01*
X0131249Y0191337D01*
X0131287Y0191383D01*
X0131323Y0191432D01*
X0131356Y0191483D01*
X0131385Y0191535D01*
X0131412Y0191590D01*
X0131435Y0191645D01*
X0131455Y0191702D01*
X0131471Y0191761D01*
X0131484Y0191820D01*
X0131493Y0191879D01*
X0131498Y0191940D01*
X0131500Y0192000D01*
X0131500Y0198000D01*
X0131498Y0198060D01*
X0131493Y0198121D01*
X0131484Y0198180D01*
X0131471Y0198239D01*
X0131455Y0198298D01*
X0131435Y0198355D01*
X0131412Y0198410D01*
X0131385Y0198465D01*
X0131356Y0198517D01*
X0131323Y0198568D01*
X0131287Y0198617D01*
X0131249Y0198663D01*
X0131207Y0198707D01*
X0131163Y0198749D01*
X0131117Y0198787D01*
X0131068Y0198823D01*
X0131017Y0198856D01*
X0130965Y0198885D01*
X0130910Y0198912D01*
X0130855Y0198935D01*
X0130798Y0198955D01*
X0130739Y0198971D01*
X0130680Y0198984D01*
X0130621Y0198993D01*
X0130560Y0198998D01*
X0130500Y0199000D01*
X0129000Y0199000D01*
X0128500Y0198500D01*
X0114500Y0198500D01*
X0114000Y0199000D01*
X0112500Y0199000D01*
X0112440Y0198998D01*
X0112379Y0198993D01*
X0112320Y0198984D01*
X0112261Y0198971D01*
X0112202Y0198955D01*
X0112145Y0198935D01*
X0112090Y0198912D01*
X0112035Y0198885D01*
X0111983Y0198856D01*
X0111932Y0198823D01*
X0111883Y0198787D01*
X0111837Y0198749D01*
X0111793Y0198707D01*
X0111751Y0198663D01*
X0111713Y0198617D01*
X0111677Y0198568D01*
X0111644Y0198517D01*
X0111615Y0198465D01*
X0111588Y0198410D01*
X0111565Y0198355D01*
X0111545Y0198298D01*
X0111529Y0198239D01*
X0111516Y0198180D01*
X0111507Y0198121D01*
X0111502Y0198060D01*
X0111500Y0198000D01*
X0111500Y0192000D01*
X0111502Y0191940D01*
X0111507Y0191879D01*
X0111516Y0191820D01*
X0111529Y0191761D01*
X0111545Y0191702D01*
X0111565Y0191645D01*
X0111588Y0191590D01*
X0111615Y0191535D01*
X0111644Y0191483D01*
X0111677Y0191432D01*
X0111713Y0191383D01*
X0111751Y0191337D01*
X0111793Y0191293D01*
X0111837Y0191251D01*
X0111883Y0191213D01*
X0111932Y0191177D01*
X0111983Y0191144D01*
X0112035Y0191115D01*
X0112090Y0191088D01*
X0112145Y0191065D01*
X0112202Y0191045D01*
X0112261Y0191029D01*
X0112320Y0191016D01*
X0112379Y0191007D01*
X0112440Y0191002D01*
X0112500Y0191000D01*
X0148500Y0190000D02*
X0148500Y0180000D01*
X0164500Y0180000D01*
X0164500Y0190000D01*
X0148500Y0190000D01*
X0152500Y0187500D02*
X0156500Y0185000D01*
X0156500Y0187500D01*
X0156500Y0185000D02*
X0156500Y0182500D01*
X0156500Y0185000D02*
X0152500Y0182500D01*
X0152500Y0187500D01*
X0150500Y0185000D02*
X0156500Y0185000D01*
X0159000Y0185000D01*
X0167500Y0165452D02*
X0167500Y0163873D01*
X0173000Y0163246D02*
X0173000Y0146754D01*
X0167500Y0146127D02*
X0167500Y0144548D01*
X0167500Y0153873D02*
X0167500Y0156127D01*
X0153000Y0163246D02*
X0153000Y0146754D01*
X0147500Y0146127D02*
X0147500Y0144548D01*
X0147500Y0153873D02*
X0147500Y0156127D01*
X0147500Y0163873D02*
X0147500Y0165452D01*
X0217000Y0195500D02*
X0219000Y0195500D01*
X0217000Y0195500D02*
X0217000Y0197500D01*
X0217000Y0202500D02*
X0217000Y0204500D01*
X0219000Y0204500D01*
X0224000Y0204500D02*
X0226000Y0204500D01*
X0226000Y0202500D01*
X0226000Y0197500D02*
X0226000Y0195500D01*
X0224000Y0195500D01*
X0242000Y0195500D02*
X0244000Y0195500D01*
X0242000Y0195500D02*
X0242000Y0197500D01*
X0242000Y0202500D02*
X0242000Y0204500D01*
X0244000Y0204500D01*
X0249000Y0204500D02*
X0251000Y0204500D01*
X0251000Y0202500D01*
X0251000Y0197500D02*
X0251000Y0195500D01*
X0249000Y0195500D01*
X0235500Y0134000D02*
X0234000Y0134000D01*
X0233500Y0133500D01*
X0219500Y0133500D01*
X0219000Y0134000D01*
X0217500Y0134000D01*
X0217440Y0133998D01*
X0217379Y0133993D01*
X0217320Y0133984D01*
X0217261Y0133971D01*
X0217202Y0133955D01*
X0217145Y0133935D01*
X0217090Y0133912D01*
X0217035Y0133885D01*
X0216983Y0133856D01*
X0216932Y0133823D01*
X0216883Y0133787D01*
X0216837Y0133749D01*
X0216793Y0133707D01*
X0216751Y0133663D01*
X0216713Y0133617D01*
X0216677Y0133568D01*
X0216644Y0133517D01*
X0216615Y0133465D01*
X0216588Y0133410D01*
X0216565Y0133355D01*
X0216545Y0133298D01*
X0216529Y0133239D01*
X0216516Y0133180D01*
X0216507Y0133121D01*
X0216502Y0133060D01*
X0216500Y0133000D01*
X0216500Y0127000D01*
X0216502Y0126940D01*
X0216507Y0126879D01*
X0216516Y0126820D01*
X0216529Y0126761D01*
X0216545Y0126702D01*
X0216565Y0126645D01*
X0216588Y0126590D01*
X0216615Y0126535D01*
X0216644Y0126483D01*
X0216677Y0126432D01*
X0216713Y0126383D01*
X0216751Y0126337D01*
X0216793Y0126293D01*
X0216837Y0126251D01*
X0216883Y0126213D01*
X0216932Y0126177D01*
X0216983Y0126144D01*
X0217035Y0126115D01*
X0217090Y0126088D01*
X0217145Y0126065D01*
X0217202Y0126045D01*
X0217261Y0126029D01*
X0217320Y0126016D01*
X0217379Y0126007D01*
X0217440Y0126002D01*
X0217500Y0126000D01*
X0219000Y0126000D01*
X0219500Y0126500D01*
X0233500Y0126500D01*
X0234000Y0126000D01*
X0235500Y0126000D01*
X0235560Y0126002D01*
X0235621Y0126007D01*
X0235680Y0126016D01*
X0235739Y0126029D01*
X0235798Y0126045D01*
X0235855Y0126065D01*
X0235910Y0126088D01*
X0235965Y0126115D01*
X0236017Y0126144D01*
X0236068Y0126177D01*
X0236117Y0126213D01*
X0236163Y0126251D01*
X0236207Y0126293D01*
X0236249Y0126337D01*
X0236287Y0126383D01*
X0236323Y0126432D01*
X0236356Y0126483D01*
X0236385Y0126535D01*
X0236412Y0126590D01*
X0236435Y0126645D01*
X0236455Y0126702D01*
X0236471Y0126761D01*
X0236484Y0126820D01*
X0236493Y0126879D01*
X0236498Y0126940D01*
X0236500Y0127000D01*
X0236500Y0133000D01*
X0236498Y0133060D01*
X0236493Y0133121D01*
X0236484Y0133180D01*
X0236471Y0133239D01*
X0236455Y0133298D01*
X0236435Y0133355D01*
X0236412Y0133410D01*
X0236385Y0133465D01*
X0236356Y0133517D01*
X0236323Y0133568D01*
X0236287Y0133617D01*
X0236249Y0133663D01*
X0236207Y0133707D01*
X0236163Y0133749D01*
X0236117Y0133787D01*
X0236068Y0133823D01*
X0236017Y0133856D01*
X0235965Y0133885D01*
X0235910Y0133912D01*
X0235855Y0133935D01*
X0235798Y0133955D01*
X0235739Y0133971D01*
X0235680Y0133984D01*
X0235621Y0133993D01*
X0235560Y0133998D01*
X0235500Y0134000D01*
X0046000Y0195500D02*
X0044000Y0195500D01*
X0046000Y0195500D02*
X0046000Y0197500D01*
X0046000Y0202500D02*
X0046000Y0204500D01*
X0044000Y0204500D01*
X0039000Y0204500D02*
X0037000Y0204500D01*
X0037000Y0202500D01*
X0037000Y0197500D02*
X0037000Y0195500D01*
X0039000Y0195500D01*
X0021000Y0195500D02*
X0019000Y0195500D01*
X0021000Y0195500D02*
X0021000Y0197500D01*
X0021000Y0202500D02*
X0021000Y0204500D01*
X0019000Y0204500D01*
X0014000Y0204500D02*
X0012000Y0204500D01*
X0012000Y0202500D01*
X0012000Y0197500D02*
X0012000Y0195500D01*
X0014000Y0195500D01*
D14*
X0014856Y0195254D02*
X0014856Y0191501D01*
X0014106Y0190750D01*
X0012605Y0190750D01*
X0011854Y0191501D01*
X0011854Y0195254D01*
X0010253Y0193753D02*
X0010253Y0190750D01*
X0010253Y0193002D02*
X0007250Y0193002D01*
X0007250Y0193753D02*
X0008751Y0195254D01*
X0010253Y0193753D01*
X0007250Y0193753D02*
X0007250Y0190750D01*
X0016458Y0190750D02*
X0018710Y0190750D01*
X0019460Y0191501D01*
X0019460Y0194503D01*
X0018710Y0195254D01*
X0016458Y0195254D01*
X0016458Y0190750D01*
X0021062Y0190750D02*
X0022563Y0190750D01*
X0021812Y0190750D02*
X0021812Y0195254D01*
X0021062Y0195254D02*
X0022563Y0195254D01*
X0024131Y0194503D02*
X0024131Y0191501D01*
X0024882Y0190750D01*
X0026383Y0190750D01*
X0027134Y0191501D01*
X0027134Y0194503D01*
X0026383Y0195254D01*
X0024882Y0195254D01*
X0024131Y0194503D01*
X0037250Y0194503D02*
X0037250Y0191501D01*
X0038001Y0190750D01*
X0039502Y0190750D01*
X0040253Y0191501D01*
X0040253Y0193002D01*
X0038751Y0193002D01*
X0037250Y0194503D02*
X0038001Y0195254D01*
X0039502Y0195254D01*
X0040253Y0194503D01*
X0041854Y0195254D02*
X0041854Y0190750D01*
X0044856Y0190750D02*
X0044856Y0195254D01*
X0046458Y0195254D02*
X0048710Y0195254D01*
X0049460Y0194503D01*
X0049460Y0191501D01*
X0048710Y0190750D01*
X0046458Y0190750D01*
X0046458Y0195254D01*
X0041854Y0195254D02*
X0044856Y0190750D01*
X0044750Y0164856D02*
X0044750Y0161854D01*
X0041747Y0164856D01*
X0040997Y0164856D01*
X0040246Y0164106D01*
X0040246Y0162605D01*
X0040997Y0161854D01*
X0040997Y0160253D02*
X0040246Y0159502D01*
X0040246Y0157250D01*
X0044750Y0157250D01*
X0044750Y0159502D01*
X0043999Y0160253D01*
X0040997Y0160253D01*
X0059746Y0156355D02*
X0064250Y0156355D01*
X0064250Y0154854D02*
X0064250Y0157856D01*
X0061247Y0154854D02*
X0059746Y0156355D01*
X0060497Y0153253D02*
X0059746Y0152502D01*
X0059746Y0151001D01*
X0060497Y0150250D01*
X0063499Y0150250D01*
X0064250Y0151001D01*
X0064250Y0152502D01*
X0063499Y0153253D01*
X0034453Y0119331D02*
X0234453Y0119331D01*
X0234453Y0099331D01*
X0044453Y0099331D01*
X0044453Y0109331D01*
X0034453Y0109331D01*
X0034453Y0099331D01*
X0038203Y0099331D01*
X0038203Y0098081D01*
X0040703Y0098081D01*
X0040703Y0099331D01*
X0044453Y0099331D01*
X0040703Y0099331D02*
X0038203Y0099331D01*
X0034453Y0109331D02*
X0034453Y0119331D01*
X0009750Y0157250D02*
X0005246Y0157250D01*
X0005246Y0159502D01*
X0005997Y0160253D01*
X0008999Y0160253D01*
X0009750Y0159502D01*
X0009750Y0157250D01*
X0009750Y0161854D02*
X0009750Y0164856D01*
X0009750Y0163355D02*
X0005246Y0163355D01*
X0006747Y0161854D01*
X0128746Y0161397D02*
X0129497Y0160646D01*
X0128746Y0161397D02*
X0128746Y0162898D01*
X0129497Y0163649D01*
X0130247Y0163649D01*
X0133250Y0160646D01*
X0133250Y0163649D01*
X0132499Y0159045D02*
X0133250Y0158294D01*
X0133250Y0156793D01*
X0132499Y0156042D01*
X0129497Y0156042D01*
X0128746Y0156793D01*
X0128746Y0158294D01*
X0129497Y0159045D01*
X0139246Y0168501D02*
X0139246Y0170002D01*
X0139997Y0170753D01*
X0142999Y0170753D01*
X0143750Y0170002D01*
X0143750Y0168501D01*
X0142999Y0167750D01*
X0139997Y0167750D01*
X0139246Y0168501D01*
X0142249Y0169251D02*
X0143750Y0170753D01*
X0142999Y0172354D02*
X0143750Y0173105D01*
X0143750Y0174606D01*
X0142999Y0175356D01*
X0142249Y0175356D01*
X0141498Y0174606D01*
X0141498Y0173855D01*
X0141498Y0174606D02*
X0140747Y0175356D01*
X0139997Y0175356D01*
X0139246Y0174606D01*
X0139246Y0173105D01*
X0139997Y0172354D01*
X0155542Y0173750D02*
X0157794Y0173750D01*
X0158545Y0174501D01*
X0158545Y0177503D01*
X0157794Y0178254D01*
X0155542Y0178254D01*
X0155542Y0173750D01*
X0159246Y0174606D02*
X0161498Y0172354D01*
X0161498Y0175356D01*
X0161647Y0176002D02*
X0162398Y0176002D01*
X0163149Y0175251D01*
X0163149Y0174501D01*
X0162398Y0173750D01*
X0160897Y0173750D01*
X0160146Y0174501D01*
X0159246Y0174606D02*
X0163750Y0174606D01*
X0162398Y0176002D02*
X0163149Y0176753D01*
X0163149Y0177503D01*
X0162398Y0178254D01*
X0160897Y0178254D01*
X0160146Y0177503D01*
X0159997Y0170753D02*
X0162999Y0170753D01*
X0163750Y0170002D01*
X0163750Y0168501D01*
X0162999Y0167750D01*
X0159997Y0167750D01*
X0159246Y0168501D01*
X0159246Y0170002D01*
X0159997Y0170753D01*
X0162249Y0169251D02*
X0163750Y0170753D01*
X0181657Y0164843D02*
X0201343Y0164843D01*
X0201343Y0145157D01*
X0185594Y0145157D01*
X0181657Y0149094D01*
X0181657Y0164843D01*
X0183232Y0155000D02*
X0183234Y0155203D01*
X0183242Y0155406D01*
X0183254Y0155608D01*
X0183272Y0155810D01*
X0183294Y0156012D01*
X0183321Y0156213D01*
X0183354Y0156414D01*
X0183391Y0156613D01*
X0183433Y0156812D01*
X0183480Y0157009D01*
X0183531Y0157205D01*
X0183588Y0157400D01*
X0183649Y0157594D01*
X0183715Y0157785D01*
X0183786Y0157976D01*
X0183861Y0158164D01*
X0183941Y0158351D01*
X0184026Y0158535D01*
X0184115Y0158717D01*
X0184208Y0158898D01*
X0184306Y0159075D01*
X0184408Y0159251D01*
X0184515Y0159423D01*
X0184625Y0159593D01*
X0184740Y0159761D01*
X0184859Y0159925D01*
X0184982Y0160087D01*
X0185109Y0160245D01*
X0185239Y0160400D01*
X0185374Y0160552D01*
X0185512Y0160701D01*
X0185654Y0160846D01*
X0185799Y0160988D01*
X0185948Y0161126D01*
X0186100Y0161261D01*
X0186255Y0161391D01*
X0186413Y0161518D01*
X0186575Y0161641D01*
X0186739Y0161760D01*
X0186907Y0161875D01*
X0187077Y0161985D01*
X0187249Y0162092D01*
X0187425Y0162194D01*
X0187602Y0162292D01*
X0187783Y0162385D01*
X0187965Y0162474D01*
X0188149Y0162559D01*
X0188336Y0162639D01*
X0188524Y0162714D01*
X0188715Y0162785D01*
X0188906Y0162851D01*
X0189100Y0162912D01*
X0189295Y0162969D01*
X0189491Y0163020D01*
X0189688Y0163067D01*
X0189887Y0163109D01*
X0190086Y0163146D01*
X0190287Y0163179D01*
X0190488Y0163206D01*
X0190690Y0163228D01*
X0190892Y0163246D01*
X0191094Y0163258D01*
X0191297Y0163266D01*
X0191500Y0163268D01*
X0191703Y0163266D01*
X0191906Y0163258D01*
X0192108Y0163246D01*
X0192310Y0163228D01*
X0192512Y0163206D01*
X0192713Y0163179D01*
X0192914Y0163146D01*
X0193113Y0163109D01*
X0193312Y0163067D01*
X0193509Y0163020D01*
X0193705Y0162969D01*
X0193900Y0162912D01*
X0194094Y0162851D01*
X0194285Y0162785D01*
X0194476Y0162714D01*
X0194664Y0162639D01*
X0194851Y0162559D01*
X0195035Y0162474D01*
X0195217Y0162385D01*
X0195398Y0162292D01*
X0195575Y0162194D01*
X0195751Y0162092D01*
X0195923Y0161985D01*
X0196093Y0161875D01*
X0196261Y0161760D01*
X0196425Y0161641D01*
X0196587Y0161518D01*
X0196745Y0161391D01*
X0196900Y0161261D01*
X0197052Y0161126D01*
X0197201Y0160988D01*
X0197346Y0160846D01*
X0197488Y0160701D01*
X0197626Y0160552D01*
X0197761Y0160400D01*
X0197891Y0160245D01*
X0198018Y0160087D01*
X0198141Y0159925D01*
X0198260Y0159761D01*
X0198375Y0159593D01*
X0198485Y0159423D01*
X0198592Y0159251D01*
X0198694Y0159075D01*
X0198792Y0158898D01*
X0198885Y0158717D01*
X0198974Y0158535D01*
X0199059Y0158351D01*
X0199139Y0158164D01*
X0199214Y0157976D01*
X0199285Y0157785D01*
X0199351Y0157594D01*
X0199412Y0157400D01*
X0199469Y0157205D01*
X0199520Y0157009D01*
X0199567Y0156812D01*
X0199609Y0156613D01*
X0199646Y0156414D01*
X0199679Y0156213D01*
X0199706Y0156012D01*
X0199728Y0155810D01*
X0199746Y0155608D01*
X0199758Y0155406D01*
X0199766Y0155203D01*
X0199768Y0155000D01*
X0199766Y0154797D01*
X0199758Y0154594D01*
X0199746Y0154392D01*
X0199728Y0154190D01*
X0199706Y0153988D01*
X0199679Y0153787D01*
X0199646Y0153586D01*
X0199609Y0153387D01*
X0199567Y0153188D01*
X0199520Y0152991D01*
X0199469Y0152795D01*
X0199412Y0152600D01*
X0199351Y0152406D01*
X0199285Y0152215D01*
X0199214Y0152024D01*
X0199139Y0151836D01*
X0199059Y0151649D01*
X0198974Y0151465D01*
X0198885Y0151283D01*
X0198792Y0151102D01*
X0198694Y0150925D01*
X0198592Y0150749D01*
X0198485Y0150577D01*
X0198375Y0150407D01*
X0198260Y0150239D01*
X0198141Y0150075D01*
X0198018Y0149913D01*
X0197891Y0149755D01*
X0197761Y0149600D01*
X0197626Y0149448D01*
X0197488Y0149299D01*
X0197346Y0149154D01*
X0197201Y0149012D01*
X0197052Y0148874D01*
X0196900Y0148739D01*
X0196745Y0148609D01*
X0196587Y0148482D01*
X0196425Y0148359D01*
X0196261Y0148240D01*
X0196093Y0148125D01*
X0195923Y0148015D01*
X0195751Y0147908D01*
X0195575Y0147806D01*
X0195398Y0147708D01*
X0195217Y0147615D01*
X0195035Y0147526D01*
X0194851Y0147441D01*
X0194664Y0147361D01*
X0194476Y0147286D01*
X0194285Y0147215D01*
X0194094Y0147149D01*
X0193900Y0147088D01*
X0193705Y0147031D01*
X0193509Y0146980D01*
X0193312Y0146933D01*
X0193113Y0146891D01*
X0192914Y0146854D01*
X0192713Y0146821D01*
X0192512Y0146794D01*
X0192310Y0146772D01*
X0192108Y0146754D01*
X0191906Y0146742D01*
X0191703Y0146734D01*
X0191500Y0146732D01*
X0191297Y0146734D01*
X0191094Y0146742D01*
X0190892Y0146754D01*
X0190690Y0146772D01*
X0190488Y0146794D01*
X0190287Y0146821D01*
X0190086Y0146854D01*
X0189887Y0146891D01*
X0189688Y0146933D01*
X0189491Y0146980D01*
X0189295Y0147031D01*
X0189100Y0147088D01*
X0188906Y0147149D01*
X0188715Y0147215D01*
X0188524Y0147286D01*
X0188336Y0147361D01*
X0188149Y0147441D01*
X0187965Y0147526D01*
X0187783Y0147615D01*
X0187602Y0147708D01*
X0187425Y0147806D01*
X0187249Y0147908D01*
X0187077Y0148015D01*
X0186907Y0148125D01*
X0186739Y0148240D01*
X0186575Y0148359D01*
X0186413Y0148482D01*
X0186255Y0148609D01*
X0186100Y0148739D01*
X0185948Y0148874D01*
X0185799Y0149012D01*
X0185654Y0149154D01*
X0185512Y0149299D01*
X0185374Y0149448D01*
X0185239Y0149600D01*
X0185109Y0149755D01*
X0184982Y0149913D01*
X0184859Y0150075D01*
X0184740Y0150239D01*
X0184625Y0150407D01*
X0184515Y0150577D01*
X0184408Y0150749D01*
X0184306Y0150925D01*
X0184208Y0151102D01*
X0184115Y0151283D01*
X0184026Y0151465D01*
X0183941Y0151649D01*
X0183861Y0151836D01*
X0183786Y0152024D01*
X0183715Y0152215D01*
X0183649Y0152406D01*
X0183588Y0152600D01*
X0183531Y0152795D01*
X0183480Y0152991D01*
X0183433Y0153188D01*
X0183391Y0153387D01*
X0183354Y0153586D01*
X0183321Y0153787D01*
X0183294Y0153988D01*
X0183272Y0154190D01*
X0183254Y0154392D01*
X0183242Y0154594D01*
X0183234Y0154797D01*
X0183232Y0155000D01*
X0181657Y0149094D02*
X0181657Y0145157D01*
X0185594Y0145157D01*
X0180360Y0143449D02*
X0180362Y0143496D01*
X0180368Y0143542D01*
X0180377Y0143588D01*
X0180391Y0143632D01*
X0180408Y0143676D01*
X0180429Y0143717D01*
X0180453Y0143757D01*
X0180480Y0143795D01*
X0180511Y0143830D01*
X0180544Y0143863D01*
X0180580Y0143893D01*
X0180619Y0143919D01*
X0180659Y0143943D01*
X0180701Y0143962D01*
X0180745Y0143979D01*
X0180790Y0143991D01*
X0180836Y0144000D01*
X0180882Y0144005D01*
X0180929Y0144006D01*
X0180975Y0144003D01*
X0181021Y0143996D01*
X0181067Y0143985D01*
X0181111Y0143971D01*
X0181154Y0143953D01*
X0181195Y0143931D01*
X0181235Y0143906D01*
X0181272Y0143878D01*
X0181307Y0143847D01*
X0181339Y0143813D01*
X0181368Y0143776D01*
X0181393Y0143738D01*
X0181416Y0143697D01*
X0181435Y0143654D01*
X0181450Y0143610D01*
X0181462Y0143565D01*
X0181470Y0143519D01*
X0181474Y0143472D01*
X0181474Y0143426D01*
X0181470Y0143379D01*
X0181462Y0143333D01*
X0181450Y0143288D01*
X0181435Y0143244D01*
X0181416Y0143201D01*
X0181393Y0143160D01*
X0181368Y0143122D01*
X0181339Y0143085D01*
X0181307Y0143051D01*
X0181272Y0143020D01*
X0181235Y0142992D01*
X0181196Y0142967D01*
X0181154Y0142945D01*
X0181111Y0142927D01*
X0181067Y0142913D01*
X0181021Y0142902D01*
X0180975Y0142895D01*
X0180929Y0142892D01*
X0180882Y0142893D01*
X0180836Y0142898D01*
X0180790Y0142907D01*
X0180745Y0142919D01*
X0180701Y0142936D01*
X0180659Y0142955D01*
X0180619Y0142979D01*
X0180580Y0143005D01*
X0180544Y0143035D01*
X0180511Y0143068D01*
X0180480Y0143103D01*
X0180453Y0143141D01*
X0180429Y0143181D01*
X0180408Y0143222D01*
X0180391Y0143266D01*
X0180377Y0143310D01*
X0180368Y0143356D01*
X0180362Y0143402D01*
X0180360Y0143449D01*
X0210360Y0143449D02*
X0210362Y0143496D01*
X0210368Y0143542D01*
X0210377Y0143588D01*
X0210391Y0143632D01*
X0210408Y0143676D01*
X0210429Y0143717D01*
X0210453Y0143757D01*
X0210480Y0143795D01*
X0210511Y0143830D01*
X0210544Y0143863D01*
X0210580Y0143893D01*
X0210619Y0143919D01*
X0210659Y0143943D01*
X0210701Y0143962D01*
X0210745Y0143979D01*
X0210790Y0143991D01*
X0210836Y0144000D01*
X0210882Y0144005D01*
X0210929Y0144006D01*
X0210975Y0144003D01*
X0211021Y0143996D01*
X0211067Y0143985D01*
X0211111Y0143971D01*
X0211154Y0143953D01*
X0211195Y0143931D01*
X0211235Y0143906D01*
X0211272Y0143878D01*
X0211307Y0143847D01*
X0211339Y0143813D01*
X0211368Y0143776D01*
X0211393Y0143738D01*
X0211416Y0143697D01*
X0211435Y0143654D01*
X0211450Y0143610D01*
X0211462Y0143565D01*
X0211470Y0143519D01*
X0211474Y0143472D01*
X0211474Y0143426D01*
X0211470Y0143379D01*
X0211462Y0143333D01*
X0211450Y0143288D01*
X0211435Y0143244D01*
X0211416Y0143201D01*
X0211393Y0143160D01*
X0211368Y0143122D01*
X0211339Y0143085D01*
X0211307Y0143051D01*
X0211272Y0143020D01*
X0211235Y0142992D01*
X0211196Y0142967D01*
X0211154Y0142945D01*
X0211111Y0142927D01*
X0211067Y0142913D01*
X0211021Y0142902D01*
X0210975Y0142895D01*
X0210929Y0142892D01*
X0210882Y0142893D01*
X0210836Y0142898D01*
X0210790Y0142907D01*
X0210745Y0142919D01*
X0210701Y0142936D01*
X0210659Y0142955D01*
X0210619Y0142979D01*
X0210580Y0143005D01*
X0210544Y0143035D01*
X0210511Y0143068D01*
X0210480Y0143103D01*
X0210453Y0143141D01*
X0210429Y0143181D01*
X0210408Y0143222D01*
X0210391Y0143266D01*
X0210377Y0143310D01*
X0210368Y0143356D01*
X0210362Y0143402D01*
X0210360Y0143449D01*
X0211657Y0145157D02*
X0211657Y0149094D01*
X0215594Y0145157D01*
X0211657Y0145157D01*
X0211657Y0149094D02*
X0211657Y0164843D01*
X0231343Y0164843D01*
X0231343Y0145157D01*
X0215594Y0145157D01*
X0213232Y0155000D02*
X0213234Y0155203D01*
X0213242Y0155406D01*
X0213254Y0155608D01*
X0213272Y0155810D01*
X0213294Y0156012D01*
X0213321Y0156213D01*
X0213354Y0156414D01*
X0213391Y0156613D01*
X0213433Y0156812D01*
X0213480Y0157009D01*
X0213531Y0157205D01*
X0213588Y0157400D01*
X0213649Y0157594D01*
X0213715Y0157785D01*
X0213786Y0157976D01*
X0213861Y0158164D01*
X0213941Y0158351D01*
X0214026Y0158535D01*
X0214115Y0158717D01*
X0214208Y0158898D01*
X0214306Y0159075D01*
X0214408Y0159251D01*
X0214515Y0159423D01*
X0214625Y0159593D01*
X0214740Y0159761D01*
X0214859Y0159925D01*
X0214982Y0160087D01*
X0215109Y0160245D01*
X0215239Y0160400D01*
X0215374Y0160552D01*
X0215512Y0160701D01*
X0215654Y0160846D01*
X0215799Y0160988D01*
X0215948Y0161126D01*
X0216100Y0161261D01*
X0216255Y0161391D01*
X0216413Y0161518D01*
X0216575Y0161641D01*
X0216739Y0161760D01*
X0216907Y0161875D01*
X0217077Y0161985D01*
X0217249Y0162092D01*
X0217425Y0162194D01*
X0217602Y0162292D01*
X0217783Y0162385D01*
X0217965Y0162474D01*
X0218149Y0162559D01*
X0218336Y0162639D01*
X0218524Y0162714D01*
X0218715Y0162785D01*
X0218906Y0162851D01*
X0219100Y0162912D01*
X0219295Y0162969D01*
X0219491Y0163020D01*
X0219688Y0163067D01*
X0219887Y0163109D01*
X0220086Y0163146D01*
X0220287Y0163179D01*
X0220488Y0163206D01*
X0220690Y0163228D01*
X0220892Y0163246D01*
X0221094Y0163258D01*
X0221297Y0163266D01*
X0221500Y0163268D01*
X0221703Y0163266D01*
X0221906Y0163258D01*
X0222108Y0163246D01*
X0222310Y0163228D01*
X0222512Y0163206D01*
X0222713Y0163179D01*
X0222914Y0163146D01*
X0223113Y0163109D01*
X0223312Y0163067D01*
X0223509Y0163020D01*
X0223705Y0162969D01*
X0223900Y0162912D01*
X0224094Y0162851D01*
X0224285Y0162785D01*
X0224476Y0162714D01*
X0224664Y0162639D01*
X0224851Y0162559D01*
X0225035Y0162474D01*
X0225217Y0162385D01*
X0225398Y0162292D01*
X0225575Y0162194D01*
X0225751Y0162092D01*
X0225923Y0161985D01*
X0226093Y0161875D01*
X0226261Y0161760D01*
X0226425Y0161641D01*
X0226587Y0161518D01*
X0226745Y0161391D01*
X0226900Y0161261D01*
X0227052Y0161126D01*
X0227201Y0160988D01*
X0227346Y0160846D01*
X0227488Y0160701D01*
X0227626Y0160552D01*
X0227761Y0160400D01*
X0227891Y0160245D01*
X0228018Y0160087D01*
X0228141Y0159925D01*
X0228260Y0159761D01*
X0228375Y0159593D01*
X0228485Y0159423D01*
X0228592Y0159251D01*
X0228694Y0159075D01*
X0228792Y0158898D01*
X0228885Y0158717D01*
X0228974Y0158535D01*
X0229059Y0158351D01*
X0229139Y0158164D01*
X0229214Y0157976D01*
X0229285Y0157785D01*
X0229351Y0157594D01*
X0229412Y0157400D01*
X0229469Y0157205D01*
X0229520Y0157009D01*
X0229567Y0156812D01*
X0229609Y0156613D01*
X0229646Y0156414D01*
X0229679Y0156213D01*
X0229706Y0156012D01*
X0229728Y0155810D01*
X0229746Y0155608D01*
X0229758Y0155406D01*
X0229766Y0155203D01*
X0229768Y0155000D01*
X0229766Y0154797D01*
X0229758Y0154594D01*
X0229746Y0154392D01*
X0229728Y0154190D01*
X0229706Y0153988D01*
X0229679Y0153787D01*
X0229646Y0153586D01*
X0229609Y0153387D01*
X0229567Y0153188D01*
X0229520Y0152991D01*
X0229469Y0152795D01*
X0229412Y0152600D01*
X0229351Y0152406D01*
X0229285Y0152215D01*
X0229214Y0152024D01*
X0229139Y0151836D01*
X0229059Y0151649D01*
X0228974Y0151465D01*
X0228885Y0151283D01*
X0228792Y0151102D01*
X0228694Y0150925D01*
X0228592Y0150749D01*
X0228485Y0150577D01*
X0228375Y0150407D01*
X0228260Y0150239D01*
X0228141Y0150075D01*
X0228018Y0149913D01*
X0227891Y0149755D01*
X0227761Y0149600D01*
X0227626Y0149448D01*
X0227488Y0149299D01*
X0227346Y0149154D01*
X0227201Y0149012D01*
X0227052Y0148874D01*
X0226900Y0148739D01*
X0226745Y0148609D01*
X0226587Y0148482D01*
X0226425Y0148359D01*
X0226261Y0148240D01*
X0226093Y0148125D01*
X0225923Y0148015D01*
X0225751Y0147908D01*
X0225575Y0147806D01*
X0225398Y0147708D01*
X0225217Y0147615D01*
X0225035Y0147526D01*
X0224851Y0147441D01*
X0224664Y0147361D01*
X0224476Y0147286D01*
X0224285Y0147215D01*
X0224094Y0147149D01*
X0223900Y0147088D01*
X0223705Y0147031D01*
X0223509Y0146980D01*
X0223312Y0146933D01*
X0223113Y0146891D01*
X0222914Y0146854D01*
X0222713Y0146821D01*
X0222512Y0146794D01*
X0222310Y0146772D01*
X0222108Y0146754D01*
X0221906Y0146742D01*
X0221703Y0146734D01*
X0221500Y0146732D01*
X0221297Y0146734D01*
X0221094Y0146742D01*
X0220892Y0146754D01*
X0220690Y0146772D01*
X0220488Y0146794D01*
X0220287Y0146821D01*
X0220086Y0146854D01*
X0219887Y0146891D01*
X0219688Y0146933D01*
X0219491Y0146980D01*
X0219295Y0147031D01*
X0219100Y0147088D01*
X0218906Y0147149D01*
X0218715Y0147215D01*
X0218524Y0147286D01*
X0218336Y0147361D01*
X0218149Y0147441D01*
X0217965Y0147526D01*
X0217783Y0147615D01*
X0217602Y0147708D01*
X0217425Y0147806D01*
X0217249Y0147908D01*
X0217077Y0148015D01*
X0216907Y0148125D01*
X0216739Y0148240D01*
X0216575Y0148359D01*
X0216413Y0148482D01*
X0216255Y0148609D01*
X0216100Y0148739D01*
X0215948Y0148874D01*
X0215799Y0149012D01*
X0215654Y0149154D01*
X0215512Y0149299D01*
X0215374Y0149448D01*
X0215239Y0149600D01*
X0215109Y0149755D01*
X0214982Y0149913D01*
X0214859Y0150075D01*
X0214740Y0150239D01*
X0214625Y0150407D01*
X0214515Y0150577D01*
X0214408Y0150749D01*
X0214306Y0150925D01*
X0214208Y0151102D01*
X0214115Y0151283D01*
X0214026Y0151465D01*
X0213941Y0151649D01*
X0213861Y0151836D01*
X0213786Y0152024D01*
X0213715Y0152215D01*
X0213649Y0152406D01*
X0213588Y0152600D01*
X0213531Y0152795D01*
X0213480Y0152991D01*
X0213433Y0153188D01*
X0213391Y0153387D01*
X0213354Y0153586D01*
X0213321Y0153787D01*
X0213294Y0153988D01*
X0213272Y0154190D01*
X0213254Y0154392D01*
X0213242Y0154594D01*
X0213234Y0154797D01*
X0213232Y0155000D01*
X0213001Y0190750D02*
X0214502Y0190750D01*
X0215253Y0191501D01*
X0213001Y0190750D02*
X0212250Y0191501D01*
X0212250Y0194503D01*
X0213001Y0195254D01*
X0214502Y0195254D01*
X0215253Y0194503D01*
X0216854Y0195254D02*
X0219856Y0195254D01*
X0218355Y0195254D02*
X0218355Y0190750D01*
X0221458Y0190750D02*
X0221458Y0195254D01*
X0223710Y0195254D01*
X0224460Y0194503D01*
X0224460Y0193002D01*
X0223710Y0192251D01*
X0221458Y0192251D01*
X0222959Y0192251D02*
X0224460Y0190750D01*
X0226062Y0190750D02*
X0229064Y0190750D01*
X0226062Y0190750D02*
X0226062Y0195254D01*
X0242250Y0195254D02*
X0242250Y0190750D01*
X0245253Y0190750D01*
X0246854Y0190750D02*
X0248355Y0190750D01*
X0247605Y0190750D02*
X0247605Y0195254D01*
X0248355Y0195254D02*
X0246854Y0195254D01*
X0249923Y0194503D02*
X0249923Y0191501D01*
X0250674Y0190750D01*
X0252175Y0190750D01*
X0252926Y0191501D01*
X0252926Y0193002D01*
X0251424Y0193002D01*
X0249923Y0194503D02*
X0250674Y0195254D01*
X0252175Y0195254D01*
X0252926Y0194503D01*
X0254527Y0195254D02*
X0254527Y0190750D01*
X0254527Y0193002D02*
X0257530Y0193002D01*
X0257530Y0195254D02*
X0257530Y0190750D01*
X0260632Y0190750D02*
X0260632Y0195254D01*
X0259131Y0195254D02*
X0262134Y0195254D01*
D15*
X0051500Y0159500D03*
X0016500Y0159500D03*
D16*
X0016500Y0153250D03*
X0016500Y0176750D03*
X0051500Y0176750D03*
X0051500Y0153250D03*
D17*
X0162000Y0185000D03*
D18*
X0168250Y0185000D03*
X0144750Y0185000D03*
D19*
X0132250Y0195000D03*
X0110750Y0195000D03*
X0117250Y0135000D03*
X0095750Y0135000D03*
X0067250Y0130000D03*
X0045750Y0130000D03*
X0215750Y0130000D03*
X0237250Y0130000D03*
D20*
X0235444Y0124703D02*
X0234277Y0124119D01*
X0233109Y0122951D01*
X0234860Y0122951D01*
X0235444Y0122368D01*
X0235444Y0121784D01*
X0234860Y0121200D01*
X0233693Y0121200D01*
X0233109Y0121784D01*
X0233109Y0122951D01*
X0231853Y0122951D02*
X0231269Y0122368D01*
X0229518Y0122368D01*
X0230686Y0122368D02*
X0231853Y0121200D01*
X0231853Y0122951D02*
X0231853Y0124119D01*
X0231269Y0124703D01*
X0229518Y0124703D01*
X0229518Y0121200D01*
X0233113Y0143477D02*
X0237717Y0143477D01*
X0237717Y0146546D01*
X0237717Y0148081D02*
X0237717Y0151150D01*
X0237717Y0152685D02*
X0237717Y0154987D01*
X0236950Y0155754D01*
X0233881Y0155754D01*
X0233113Y0154987D01*
X0233113Y0152685D01*
X0237717Y0152685D01*
X0235415Y0149616D02*
X0235415Y0148081D01*
X0233113Y0148081D02*
X0233113Y0151150D01*
X0233113Y0148081D02*
X0237717Y0148081D01*
X0237717Y0157289D02*
X0237717Y0160358D01*
X0237717Y0158824D02*
X0233113Y0158824D01*
X0234648Y0157289D01*
X0207717Y0157289D02*
X0204648Y0160358D01*
X0203881Y0160358D01*
X0203113Y0159591D01*
X0203113Y0158056D01*
X0203881Y0157289D01*
X0203881Y0155754D02*
X0203113Y0154987D01*
X0203113Y0152685D01*
X0207717Y0152685D01*
X0207717Y0154987D01*
X0206950Y0155754D01*
X0203881Y0155754D01*
X0207717Y0157289D02*
X0207717Y0160358D01*
X0207717Y0151150D02*
X0207717Y0148081D01*
X0203113Y0148081D01*
X0203113Y0151150D01*
X0205415Y0149616D02*
X0205415Y0148081D01*
X0207717Y0146546D02*
X0207717Y0143477D01*
X0203113Y0143477D01*
X0117626Y0200884D02*
X0117043Y0200300D01*
X0115875Y0200300D01*
X0115291Y0200884D01*
X0115291Y0202051D02*
X0116459Y0202635D01*
X0117043Y0202635D01*
X0117626Y0202051D01*
X0117626Y0200884D01*
X0115291Y0202051D02*
X0115291Y0203803D01*
X0117626Y0203803D01*
X0114035Y0203219D02*
X0114035Y0202051D01*
X0113451Y0201468D01*
X0111700Y0201468D01*
X0112868Y0201468D02*
X0114035Y0200300D01*
X0111700Y0200300D02*
X0111700Y0203803D01*
X0113451Y0203803D01*
X0114035Y0203219D01*
X0105300Y0178360D02*
X0101797Y0178360D01*
X0103549Y0176609D01*
X0103549Y0178944D01*
X0103549Y0175353D02*
X0104132Y0174769D01*
X0104132Y0173018D01*
X0104132Y0174186D02*
X0105300Y0175353D01*
X0103549Y0175353D02*
X0102381Y0175353D01*
X0101797Y0174769D01*
X0101797Y0173018D01*
X0105300Y0173018D01*
X0095300Y0163944D02*
X0095300Y0161609D01*
X0092965Y0163944D01*
X0092381Y0163944D01*
X0091797Y0163360D01*
X0091797Y0162193D01*
X0092381Y0161609D01*
X0092381Y0160353D02*
X0093549Y0160353D01*
X0094132Y0159769D01*
X0094132Y0158018D01*
X0094132Y0159186D02*
X0095300Y0160353D01*
X0095300Y0158018D02*
X0091797Y0158018D01*
X0091797Y0159769D01*
X0092381Y0160353D01*
X0096700Y0143803D02*
X0098451Y0143803D01*
X0099035Y0143219D01*
X0099035Y0142051D01*
X0098451Y0141468D01*
X0096700Y0141468D01*
X0097868Y0141468D02*
X0099035Y0140300D01*
X0100291Y0140300D02*
X0102626Y0140300D01*
X0101459Y0140300D02*
X0101459Y0143803D01*
X0100291Y0142635D01*
X0096700Y0143803D02*
X0096700Y0140300D01*
X0065444Y0124119D02*
X0065444Y0123535D01*
X0064860Y0122951D01*
X0065444Y0122368D01*
X0065444Y0121784D01*
X0064860Y0121200D01*
X0063693Y0121200D01*
X0063109Y0121784D01*
X0061853Y0121200D02*
X0060686Y0122368D01*
X0061269Y0122368D02*
X0059518Y0122368D01*
X0059518Y0121200D02*
X0059518Y0124703D01*
X0061269Y0124703D01*
X0061853Y0124119D01*
X0061853Y0122951D01*
X0061269Y0122368D01*
X0063109Y0124119D02*
X0063693Y0124703D01*
X0064860Y0124703D01*
X0065444Y0124119D01*
X0064860Y0122951D02*
X0064277Y0122951D01*
X0039604Y0096884D02*
X0039604Y0093281D01*
X0038403Y0093281D02*
X0040805Y0093281D01*
X0038403Y0095683D02*
X0039604Y0096884D01*
D21*
X0086500Y0144250D03*
X0096500Y0159250D03*
X0086500Y0165750D03*
X0096500Y0180750D03*
D22*
X0136218Y0151797D02*
X0136734Y0151956D01*
X0136734Y0151955D02*
X0136811Y0151717D01*
X0136894Y0151481D01*
X0136983Y0151247D01*
X0137078Y0151015D01*
X0137178Y0150786D01*
X0137284Y0150559D01*
X0137396Y0150335D01*
X0137512Y0150114D01*
X0137635Y0149895D01*
X0137762Y0149680D01*
X0137895Y0149468D01*
X0138033Y0149259D01*
X0138176Y0149053D01*
X0138324Y0148851D01*
X0138477Y0148653D01*
X0138634Y0148459D01*
X0138797Y0148268D01*
X0138964Y0148082D01*
X0139135Y0147900D01*
X0139311Y0147721D01*
X0139492Y0147548D01*
X0139676Y0147379D01*
X0139865Y0147214D01*
X0140057Y0147054D01*
X0140253Y0146899D01*
X0140454Y0146748D01*
X0140657Y0146603D01*
X0140864Y0146462D01*
X0141075Y0146327D01*
X0141289Y0146197D01*
X0141506Y0146072D01*
X0141726Y0145952D01*
X0141949Y0145838D01*
X0142174Y0145730D01*
X0142402Y0145627D01*
X0142633Y0145529D01*
X0142866Y0145437D01*
X0143101Y0145351D01*
X0143338Y0145271D01*
X0143577Y0145196D01*
X0143818Y0145128D01*
X0144060Y0145065D01*
X0144304Y0145009D01*
X0144549Y0144958D01*
X0144795Y0144913D01*
X0145043Y0144874D01*
X0145291Y0144842D01*
X0145540Y0144815D01*
X0145789Y0144795D01*
X0146039Y0144780D01*
X0146289Y0144772D01*
X0146540Y0144770D01*
X0146790Y0144774D01*
X0147040Y0144784D01*
X0147290Y0144801D01*
X0147539Y0144823D01*
X0147788Y0144851D01*
X0148036Y0144886D01*
X0148283Y0144927D01*
X0148529Y0144973D01*
X0148774Y0145026D01*
X0149017Y0145084D01*
X0149259Y0145149D01*
X0149499Y0145219D01*
X0149737Y0145296D01*
X0149974Y0145378D01*
X0150208Y0145466D01*
X0150440Y0145559D01*
X0150670Y0145659D01*
X0150898Y0145763D01*
X0151122Y0145874D01*
X0151344Y0145990D01*
X0151563Y0146111D01*
X0151779Y0146237D01*
X0151992Y0146369D01*
X0152202Y0146506D01*
X0152408Y0146648D01*
X0152610Y0146795D01*
X0152809Y0146947D01*
X0153143Y0146524D01*
X0153143Y0146523D01*
X0152934Y0146363D01*
X0152721Y0146208D01*
X0152504Y0146059D01*
X0152283Y0145914D01*
X0152059Y0145776D01*
X0151832Y0145642D01*
X0151601Y0145515D01*
X0151367Y0145393D01*
X0151131Y0145276D01*
X0150891Y0145166D01*
X0150649Y0145061D01*
X0150405Y0144963D01*
X0150158Y0144870D01*
X0149909Y0144784D01*
X0149658Y0144703D01*
X0149405Y0144629D01*
X0149151Y0144561D01*
X0148894Y0144500D01*
X0148637Y0144444D01*
X0148378Y0144395D01*
X0148118Y0144352D01*
X0147857Y0144316D01*
X0147595Y0144286D01*
X0147332Y0144262D01*
X0147069Y0144245D01*
X0146806Y0144234D01*
X0146542Y0144230D01*
X0146279Y0144232D01*
X0146015Y0144241D01*
X0145752Y0144256D01*
X0145489Y0144278D01*
X0145227Y0144305D01*
X0144966Y0144340D01*
X0144706Y0144381D01*
X0144446Y0144428D01*
X0144188Y0144481D01*
X0143931Y0144541D01*
X0143676Y0144607D01*
X0143423Y0144679D01*
X0143171Y0144757D01*
X0142921Y0144842D01*
X0142674Y0144933D01*
X0142429Y0145029D01*
X0142186Y0145132D01*
X0141946Y0145240D01*
X0141708Y0145355D01*
X0141474Y0145475D01*
X0141242Y0145601D01*
X0141014Y0145732D01*
X0140788Y0145869D01*
X0140567Y0146012D01*
X0140348Y0146160D01*
X0140134Y0146313D01*
X0139923Y0146471D01*
X0139717Y0146635D01*
X0139514Y0146803D01*
X0139315Y0146977D01*
X0139121Y0147155D01*
X0138931Y0147338D01*
X0138746Y0147525D01*
X0138566Y0147717D01*
X0138390Y0147914D01*
X0138219Y0148114D01*
X0138053Y0148319D01*
X0137892Y0148528D01*
X0137736Y0148740D01*
X0137585Y0148957D01*
X0137440Y0149177D01*
X0137300Y0149400D01*
X0137166Y0149627D01*
X0137037Y0149857D01*
X0136914Y0150090D01*
X0136797Y0150326D01*
X0136686Y0150565D01*
X0136580Y0150806D01*
X0136480Y0151050D01*
X0136387Y0151297D01*
X0136299Y0151545D01*
X0136218Y0151796D01*
X0136271Y0151813D01*
X0136352Y0151563D01*
X0136439Y0151316D01*
X0136532Y0151071D01*
X0136632Y0150828D01*
X0136737Y0150588D01*
X0136848Y0150350D01*
X0136964Y0150115D01*
X0137087Y0149884D01*
X0137215Y0149655D01*
X0137348Y0149429D01*
X0137487Y0149207D01*
X0137632Y0148988D01*
X0137782Y0148773D01*
X0137937Y0148561D01*
X0138097Y0148354D01*
X0138262Y0148150D01*
X0138432Y0147950D01*
X0138607Y0147755D01*
X0138787Y0147564D01*
X0138971Y0147378D01*
X0139160Y0147196D01*
X0139353Y0147018D01*
X0139550Y0146846D01*
X0139752Y0146678D01*
X0139958Y0146516D01*
X0140167Y0146358D01*
X0140380Y0146206D01*
X0140598Y0146058D01*
X0140818Y0145917D01*
X0141042Y0145780D01*
X0141269Y0145650D01*
X0141500Y0145524D01*
X0141733Y0145405D01*
X0141969Y0145291D01*
X0142208Y0145183D01*
X0142450Y0145081D01*
X0142694Y0144985D01*
X0142940Y0144895D01*
X0143188Y0144811D01*
X0143439Y0144733D01*
X0143691Y0144661D01*
X0143945Y0144595D01*
X0144200Y0144536D01*
X0144457Y0144483D01*
X0144715Y0144436D01*
X0144974Y0144395D01*
X0145234Y0144361D01*
X0145495Y0144333D01*
X0145756Y0144312D01*
X0146018Y0144297D01*
X0146280Y0144288D01*
X0146542Y0144286D01*
X0146804Y0144290D01*
X0147066Y0144301D01*
X0147328Y0144318D01*
X0147589Y0144341D01*
X0147849Y0144371D01*
X0148109Y0144408D01*
X0148368Y0144450D01*
X0148625Y0144499D01*
X0148882Y0144554D01*
X0149137Y0144616D01*
X0149390Y0144683D01*
X0149642Y0144757D01*
X0149891Y0144837D01*
X0150139Y0144923D01*
X0150385Y0145015D01*
X0150628Y0145113D01*
X0150868Y0145217D01*
X0151107Y0145327D01*
X0151342Y0145443D01*
X0151574Y0145564D01*
X0151804Y0145691D01*
X0152030Y0145823D01*
X0152253Y0145962D01*
X0152472Y0146105D01*
X0152688Y0146254D01*
X0152900Y0146408D01*
X0153109Y0146567D01*
X0153074Y0146611D01*
X0152867Y0146453D01*
X0152656Y0146299D01*
X0152441Y0146151D01*
X0152223Y0146009D01*
X0152001Y0145871D01*
X0151776Y0145739D01*
X0151548Y0145613D01*
X0151317Y0145492D01*
X0151082Y0145377D01*
X0150846Y0145268D01*
X0150606Y0145165D01*
X0150364Y0145067D01*
X0150120Y0144976D01*
X0149874Y0144890D01*
X0149625Y0144810D01*
X0149375Y0144737D01*
X0149123Y0144670D01*
X0148869Y0144609D01*
X0148614Y0144554D01*
X0148358Y0144505D01*
X0148101Y0144463D01*
X0147842Y0144427D01*
X0147583Y0144397D01*
X0147323Y0144374D01*
X0147063Y0144357D01*
X0146802Y0144346D01*
X0146542Y0144342D01*
X0146281Y0144344D01*
X0146020Y0144353D01*
X0145760Y0144368D01*
X0145500Y0144389D01*
X0145240Y0144417D01*
X0144982Y0144451D01*
X0144724Y0144491D01*
X0144468Y0144538D01*
X0144212Y0144590D01*
X0143958Y0144650D01*
X0143706Y0144715D01*
X0143455Y0144786D01*
X0143206Y0144864D01*
X0142959Y0144948D01*
X0142714Y0145037D01*
X0142471Y0145133D01*
X0142231Y0145234D01*
X0141993Y0145342D01*
X0141758Y0145455D01*
X0141526Y0145574D01*
X0141297Y0145698D01*
X0141071Y0145829D01*
X0140848Y0145964D01*
X0140628Y0146105D01*
X0140412Y0146252D01*
X0140200Y0146403D01*
X0139992Y0146560D01*
X0139787Y0146722D01*
X0139587Y0146888D01*
X0139390Y0147060D01*
X0139198Y0147236D01*
X0139010Y0147417D01*
X0138827Y0147603D01*
X0138648Y0147793D01*
X0138474Y0147987D01*
X0138305Y0148186D01*
X0138141Y0148388D01*
X0137981Y0148595D01*
X0137827Y0148805D01*
X0137678Y0149019D01*
X0137534Y0149237D01*
X0137396Y0149458D01*
X0137263Y0149683D01*
X0137136Y0149910D01*
X0137014Y0150141D01*
X0136898Y0150374D01*
X0136788Y0150611D01*
X0136683Y0150850D01*
X0136585Y0151091D01*
X0136492Y0151335D01*
X0136405Y0151581D01*
X0136325Y0151829D01*
X0136378Y0151846D01*
X0136458Y0151599D01*
X0136545Y0151354D01*
X0136637Y0151112D01*
X0136735Y0150871D01*
X0136839Y0150634D01*
X0136949Y0150399D01*
X0137064Y0150166D01*
X0137185Y0149937D01*
X0137312Y0149710D01*
X0137444Y0149487D01*
X0137582Y0149267D01*
X0137725Y0149051D01*
X0137873Y0148838D01*
X0138026Y0148628D01*
X0138185Y0148423D01*
X0138348Y0148221D01*
X0138516Y0148024D01*
X0138689Y0147831D01*
X0138867Y0147642D01*
X0139050Y0147457D01*
X0139236Y0147277D01*
X0139428Y0147102D01*
X0139623Y0146931D01*
X0139822Y0146765D01*
X0140026Y0146604D01*
X0140233Y0146448D01*
X0140445Y0146297D01*
X0140659Y0146152D01*
X0140878Y0146012D01*
X0141099Y0145877D01*
X0141324Y0145747D01*
X0141552Y0145623D01*
X0141783Y0145505D01*
X0142017Y0145393D01*
X0142253Y0145286D01*
X0142492Y0145185D01*
X0142734Y0145090D01*
X0142977Y0145000D01*
X0143223Y0144917D01*
X0143471Y0144840D01*
X0143720Y0144769D01*
X0143971Y0144704D01*
X0144224Y0144645D01*
X0144478Y0144593D01*
X0144733Y0144546D01*
X0144990Y0144506D01*
X0145247Y0144472D01*
X0145505Y0144445D01*
X0145764Y0144424D01*
X0146023Y0144409D01*
X0146282Y0144400D01*
X0146541Y0144398D01*
X0146801Y0144402D01*
X0147060Y0144413D01*
X0147319Y0144430D01*
X0147577Y0144453D01*
X0147835Y0144482D01*
X0148092Y0144518D01*
X0148348Y0144560D01*
X0148603Y0144609D01*
X0148857Y0144663D01*
X0149109Y0144724D01*
X0149360Y0144791D01*
X0149609Y0144864D01*
X0149856Y0144943D01*
X0150101Y0145028D01*
X0150344Y0145119D01*
X0150584Y0145216D01*
X0150823Y0145319D01*
X0151058Y0145428D01*
X0151291Y0145542D01*
X0151521Y0145662D01*
X0151748Y0145788D01*
X0151972Y0145919D01*
X0152193Y0146056D01*
X0152410Y0146198D01*
X0152623Y0146345D01*
X0152833Y0146498D01*
X0153039Y0146655D01*
X0153005Y0146699D01*
X0152800Y0146542D01*
X0152591Y0146391D01*
X0152378Y0146244D01*
X0152162Y0146103D01*
X0151943Y0145967D01*
X0151720Y0145837D01*
X0151494Y0145712D01*
X0151266Y0145592D01*
X0151034Y0145478D01*
X0150800Y0145370D01*
X0150563Y0145268D01*
X0150323Y0145171D01*
X0150082Y0145081D01*
X0149838Y0144996D01*
X0149592Y0144917D01*
X0149344Y0144845D01*
X0149095Y0144778D01*
X0148844Y0144718D01*
X0148592Y0144664D01*
X0148338Y0144615D01*
X0148084Y0144574D01*
X0147828Y0144538D01*
X0147572Y0144509D01*
X0147315Y0144486D01*
X0147057Y0144469D01*
X0146799Y0144458D01*
X0146541Y0144454D01*
X0146283Y0144456D01*
X0146025Y0144465D01*
X0145767Y0144479D01*
X0145510Y0144501D01*
X0145254Y0144528D01*
X0144998Y0144562D01*
X0144743Y0144601D01*
X0144489Y0144648D01*
X0144236Y0144700D01*
X0143985Y0144758D01*
X0143735Y0144823D01*
X0143487Y0144894D01*
X0143240Y0144970D01*
X0142996Y0145053D01*
X0142753Y0145142D01*
X0142513Y0145237D01*
X0142276Y0145337D01*
X0142040Y0145443D01*
X0141808Y0145555D01*
X0141578Y0145673D01*
X0141351Y0145796D01*
X0141128Y0145925D01*
X0140907Y0146059D01*
X0140690Y0146199D01*
X0140477Y0146343D01*
X0140267Y0146493D01*
X0140060Y0146649D01*
X0139858Y0146809D01*
X0139659Y0146974D01*
X0139465Y0147143D01*
X0139275Y0147318D01*
X0139089Y0147497D01*
X0138908Y0147681D01*
X0138731Y0147869D01*
X0138559Y0148061D01*
X0138391Y0148257D01*
X0138229Y0148458D01*
X0138071Y0148662D01*
X0137918Y0148870D01*
X0137771Y0149082D01*
X0137629Y0149297D01*
X0137492Y0149516D01*
X0137360Y0149738D01*
X0137234Y0149963D01*
X0137114Y0150192D01*
X0136999Y0150423D01*
X0136890Y0150657D01*
X0136787Y0150893D01*
X0136689Y0151132D01*
X0136597Y0151373D01*
X0136511Y0151617D01*
X0136432Y0151862D01*
X0136485Y0151879D01*
X0136565Y0151635D01*
X0136650Y0151392D01*
X0136741Y0151152D01*
X0136838Y0150915D01*
X0136941Y0150680D01*
X0137050Y0150447D01*
X0137164Y0150217D01*
X0137284Y0149990D01*
X0137409Y0149766D01*
X0137540Y0149545D01*
X0137676Y0149328D01*
X0137817Y0149113D01*
X0137964Y0148903D01*
X0138116Y0148696D01*
X0138273Y0148492D01*
X0138434Y0148293D01*
X0138601Y0148098D01*
X0138772Y0147906D01*
X0138948Y0147719D01*
X0139128Y0147537D01*
X0139313Y0147359D01*
X0139502Y0147185D01*
X0139696Y0147016D01*
X0139893Y0146852D01*
X0140094Y0146693D01*
X0140300Y0146539D01*
X0140509Y0146389D01*
X0140721Y0146245D01*
X0140937Y0146107D01*
X0141156Y0145973D01*
X0141379Y0145845D01*
X0141604Y0145722D01*
X0141833Y0145605D01*
X0142064Y0145494D01*
X0142298Y0145388D01*
X0142535Y0145288D01*
X0142773Y0145194D01*
X0143014Y0145106D01*
X0143258Y0145024D01*
X0143503Y0144947D01*
X0143750Y0144877D01*
X0143998Y0144813D01*
X0144248Y0144755D01*
X0144499Y0144703D01*
X0144752Y0144657D01*
X0145006Y0144617D01*
X0145260Y0144584D01*
X0145515Y0144556D01*
X0145771Y0144535D01*
X0146028Y0144521D01*
X0146284Y0144512D01*
X0146541Y0144510D01*
X0146798Y0144514D01*
X0147054Y0144525D01*
X0147310Y0144541D01*
X0147566Y0144564D01*
X0147821Y0144594D01*
X0148075Y0144629D01*
X0148329Y0144671D01*
X0148581Y0144718D01*
X0148832Y0144772D01*
X0149081Y0144833D01*
X0149329Y0144899D01*
X0149576Y0144971D01*
X0149820Y0145049D01*
X0150063Y0145133D01*
X0150303Y0145224D01*
X0150541Y0145320D01*
X0150777Y0145421D01*
X0151010Y0145529D01*
X0151240Y0145642D01*
X0151468Y0145761D01*
X0151692Y0145885D01*
X0151914Y0146015D01*
X0152132Y0146150D01*
X0152347Y0146291D01*
X0152558Y0146436D01*
X0152766Y0146587D01*
X0152970Y0146743D01*
X0152935Y0146787D01*
X0152733Y0146632D01*
X0152526Y0146482D01*
X0152316Y0146337D01*
X0152102Y0146197D01*
X0151885Y0146063D01*
X0151665Y0145934D01*
X0151441Y0145810D01*
X0151215Y0145692D01*
X0150986Y0145579D01*
X0150754Y0145472D01*
X0150519Y0145371D01*
X0150283Y0145276D01*
X0150043Y0145186D01*
X0149802Y0145102D01*
X0149559Y0145025D01*
X0149314Y0144953D01*
X0149067Y0144887D01*
X0148819Y0144827D01*
X0148570Y0144773D01*
X0148319Y0144726D01*
X0148067Y0144684D01*
X0147814Y0144649D01*
X0147560Y0144620D01*
X0147306Y0144597D01*
X0147051Y0144581D01*
X0146796Y0144570D01*
X0146541Y0144566D01*
X0146285Y0144568D01*
X0146030Y0144577D01*
X0145775Y0144591D01*
X0145521Y0144612D01*
X0145267Y0144639D01*
X0145014Y0144672D01*
X0144761Y0144712D01*
X0144510Y0144757D01*
X0144260Y0144809D01*
X0144011Y0144867D01*
X0143764Y0144931D01*
X0143519Y0145001D01*
X0143275Y0145077D01*
X0143033Y0145159D01*
X0142793Y0145247D01*
X0142556Y0145340D01*
X0142321Y0145440D01*
X0142088Y0145545D01*
X0141858Y0145656D01*
X0141631Y0145772D01*
X0141406Y0145894D01*
X0141185Y0146021D01*
X0140967Y0146154D01*
X0140752Y0146292D01*
X0140541Y0146435D01*
X0140333Y0146584D01*
X0140129Y0146737D01*
X0139928Y0146896D01*
X0139732Y0147059D01*
X0139540Y0147227D01*
X0139352Y0147399D01*
X0139168Y0147577D01*
X0138988Y0147758D01*
X0138813Y0147944D01*
X0138643Y0148134D01*
X0138477Y0148329D01*
X0138317Y0148527D01*
X0138161Y0148729D01*
X0138010Y0148935D01*
X0137864Y0149145D01*
X0137723Y0149358D01*
X0137588Y0149574D01*
X0137458Y0149794D01*
X0137333Y0150017D01*
X0137214Y0150243D01*
X0137100Y0150471D01*
X0136992Y0150703D01*
X0136890Y0150937D01*
X0136793Y0151173D01*
X0136702Y0151412D01*
X0136618Y0151652D01*
X0136539Y0151895D01*
X0136592Y0151912D01*
X0136671Y0151670D01*
X0136755Y0151431D01*
X0136845Y0151193D01*
X0136941Y0150958D01*
X0137043Y0150726D01*
X0137151Y0150495D01*
X0137264Y0150268D01*
X0137382Y0150043D01*
X0137506Y0149822D01*
X0137636Y0149603D01*
X0137770Y0149388D01*
X0137910Y0149176D01*
X0138055Y0148968D01*
X0138205Y0148763D01*
X0138361Y0148562D01*
X0138521Y0148364D01*
X0138685Y0148171D01*
X0138855Y0147982D01*
X0139029Y0147797D01*
X0139207Y0147616D01*
X0139390Y0147440D01*
X0139577Y0147268D01*
X0139768Y0147101D01*
X0139964Y0146939D01*
X0140163Y0146781D01*
X0140366Y0146629D01*
X0140573Y0146481D01*
X0140783Y0146339D01*
X0140996Y0146201D01*
X0141213Y0146069D01*
X0141434Y0145943D01*
X0141657Y0145821D01*
X0141883Y0145706D01*
X0142112Y0145596D01*
X0142343Y0145491D01*
X0142577Y0145392D01*
X0142813Y0145299D01*
X0143052Y0145212D01*
X0143292Y0145130D01*
X0143535Y0145055D01*
X0143779Y0144985D01*
X0144025Y0144922D01*
X0144272Y0144864D01*
X0144521Y0144812D01*
X0144771Y0144767D01*
X0145022Y0144728D01*
X0145273Y0144695D01*
X0145526Y0144668D01*
X0145779Y0144647D01*
X0146033Y0144633D01*
X0146286Y0144624D01*
X0146540Y0144622D01*
X0146794Y0144626D01*
X0147048Y0144636D01*
X0147301Y0144653D01*
X0147554Y0144676D01*
X0147807Y0144705D01*
X0148058Y0144740D01*
X0148309Y0144781D01*
X0148558Y0144828D01*
X0148807Y0144882D01*
X0149054Y0144941D01*
X0149299Y0145007D01*
X0149543Y0145078D01*
X0149784Y0145155D01*
X0150024Y0145239D01*
X0150262Y0145328D01*
X0150498Y0145423D01*
X0150731Y0145524D01*
X0150961Y0145630D01*
X0151189Y0145742D01*
X0151415Y0145859D01*
X0151637Y0145982D01*
X0151856Y0146111D01*
X0152072Y0146245D01*
X0152284Y0146383D01*
X0152493Y0146528D01*
X0152699Y0146677D01*
X0152901Y0146831D01*
X0152866Y0146875D01*
X0152665Y0146722D01*
X0152461Y0146573D01*
X0152253Y0146430D01*
X0152042Y0146292D01*
X0151827Y0146159D01*
X0151609Y0146031D01*
X0151388Y0145909D01*
X0151164Y0145792D01*
X0150937Y0145680D01*
X0150708Y0145575D01*
X0150476Y0145475D01*
X0150242Y0145380D01*
X0150005Y0145291D01*
X0149767Y0145209D01*
X0149526Y0145132D01*
X0149284Y0145060D01*
X0149040Y0144995D01*
X0148794Y0144936D01*
X0148547Y0144883D01*
X0148299Y0144836D01*
X0148050Y0144795D01*
X0147800Y0144760D01*
X0147549Y0144731D01*
X0147297Y0144709D01*
X0147045Y0144692D01*
X0146793Y0144682D01*
X0146540Y0144678D01*
X0146288Y0144680D01*
X0146035Y0144688D01*
X0145783Y0144703D01*
X0145531Y0144724D01*
X0145280Y0144750D01*
X0145030Y0144783D01*
X0144780Y0144822D01*
X0144531Y0144867D01*
X0144284Y0144919D01*
X0144038Y0144976D01*
X0143794Y0145039D01*
X0143551Y0145108D01*
X0143310Y0145183D01*
X0143070Y0145264D01*
X0142833Y0145351D01*
X0142598Y0145444D01*
X0142365Y0145542D01*
X0142135Y0145646D01*
X0141908Y0145756D01*
X0141683Y0145871D01*
X0141461Y0145992D01*
X0141242Y0146118D01*
X0141026Y0146249D01*
X0140814Y0146385D01*
X0140605Y0146527D01*
X0140399Y0146674D01*
X0140197Y0146826D01*
X0139999Y0146982D01*
X0139805Y0147144D01*
X0139615Y0147310D01*
X0139429Y0147481D01*
X0139247Y0147656D01*
X0139069Y0147836D01*
X0138896Y0148020D01*
X0138728Y0148208D01*
X0138564Y0148400D01*
X0138405Y0148596D01*
X0138250Y0148796D01*
X0138101Y0149000D01*
X0137957Y0149207D01*
X0137817Y0149418D01*
X0137683Y0149632D01*
X0137555Y0149850D01*
X0137431Y0150070D01*
X0137314Y0150293D01*
X0137201Y0150520D01*
X0137094Y0150748D01*
X0136993Y0150980D01*
X0136898Y0151214D01*
X0136808Y0151450D01*
X0136724Y0151688D01*
X0136646Y0151928D01*
X0136699Y0151945D01*
X0136777Y0151706D01*
X0136860Y0151469D01*
X0136950Y0151234D01*
X0137045Y0151002D01*
X0137145Y0150771D01*
X0137252Y0150544D01*
X0137363Y0150319D01*
X0137481Y0150097D01*
X0137603Y0149877D01*
X0137731Y0149661D01*
X0137865Y0149448D01*
X0138003Y0149239D01*
X0138147Y0149032D01*
X0138295Y0148830D01*
X0138449Y0148631D01*
X0138607Y0148436D01*
X0138770Y0148245D01*
X0138937Y0148058D01*
X0139109Y0147875D01*
X0139286Y0147696D01*
X0139467Y0147522D01*
X0139652Y0147352D01*
X0139841Y0147186D01*
X0140034Y0147026D01*
X0140231Y0146870D01*
X0140432Y0146719D01*
X0140637Y0146573D01*
X0140845Y0146432D01*
X0141056Y0146296D01*
X0141271Y0146166D01*
X0141488Y0146040D01*
X0141709Y0145921D01*
X0141933Y0145806D01*
X0142159Y0145697D01*
X0142388Y0145594D01*
X0142619Y0145496D01*
X0142853Y0145404D01*
X0143089Y0145317D01*
X0143327Y0145237D01*
X0143567Y0145162D01*
X0143808Y0145093D01*
X0144051Y0145030D01*
X0144296Y0144973D01*
X0144542Y0144922D01*
X0144789Y0144878D01*
X0145038Y0144839D01*
X0145287Y0144806D01*
X0145536Y0144779D01*
X0145787Y0144759D01*
X0146038Y0144744D01*
X0146289Y0144736D01*
X0146540Y0144734D01*
X0146791Y0144738D01*
X0147042Y0144748D01*
X0147293Y0144765D01*
X0147543Y0144787D01*
X0147792Y0144816D01*
X0148041Y0144850D01*
X0148289Y0144891D01*
X0148536Y0144938D01*
X0148782Y0144991D01*
X0149026Y0145050D01*
X0149269Y0145114D01*
X0149510Y0145185D01*
X0149749Y0145262D01*
X0149986Y0145344D01*
X0150221Y0145432D01*
X0150454Y0145526D01*
X0150685Y0145626D01*
X0150913Y0145731D01*
X0151139Y0145842D01*
X0151361Y0145958D01*
X0151581Y0146080D01*
X0151798Y0146207D01*
X0152011Y0146339D01*
X0152222Y0146476D01*
X0152429Y0146619D01*
X0152632Y0146766D01*
X0152831Y0146919D01*
X0153143Y0163476D02*
X0152809Y0163052D01*
X0152809Y0163053D02*
X0152610Y0163205D01*
X0152408Y0163352D01*
X0152202Y0163494D01*
X0151992Y0163631D01*
X0151779Y0163763D01*
X0151563Y0163889D01*
X0151344Y0164010D01*
X0151122Y0164126D01*
X0150898Y0164237D01*
X0150670Y0164341D01*
X0150441Y0164441D01*
X0150208Y0164534D01*
X0149974Y0164622D01*
X0149738Y0164704D01*
X0149499Y0164780D01*
X0149259Y0164851D01*
X0149017Y0164916D01*
X0148774Y0164974D01*
X0148529Y0165027D01*
X0148283Y0165073D01*
X0148036Y0165114D01*
X0147788Y0165149D01*
X0147539Y0165177D01*
X0147290Y0165199D01*
X0147040Y0165216D01*
X0146790Y0165226D01*
X0146540Y0165230D01*
X0146289Y0165228D01*
X0146039Y0165220D01*
X0145789Y0165205D01*
X0145540Y0165185D01*
X0145291Y0165158D01*
X0145043Y0165126D01*
X0144795Y0165087D01*
X0144549Y0165042D01*
X0144304Y0164992D01*
X0144060Y0164935D01*
X0143818Y0164872D01*
X0143577Y0164804D01*
X0143338Y0164729D01*
X0143101Y0164649D01*
X0142866Y0164563D01*
X0142633Y0164471D01*
X0142402Y0164374D01*
X0142174Y0164270D01*
X0141949Y0164162D01*
X0141726Y0164048D01*
X0141506Y0163928D01*
X0141289Y0163803D01*
X0141075Y0163673D01*
X0140865Y0163538D01*
X0140657Y0163397D01*
X0140454Y0163252D01*
X0140254Y0163102D01*
X0140057Y0162946D01*
X0139865Y0162786D01*
X0139676Y0162622D01*
X0139492Y0162452D01*
X0139311Y0162279D01*
X0139136Y0162101D01*
X0138964Y0161918D01*
X0138797Y0161732D01*
X0138635Y0161541D01*
X0138477Y0161347D01*
X0138324Y0161149D01*
X0138176Y0160947D01*
X0138033Y0160741D01*
X0137895Y0160532D01*
X0137762Y0160320D01*
X0137635Y0160105D01*
X0137512Y0159886D01*
X0137396Y0159665D01*
X0137284Y0159441D01*
X0137178Y0159214D01*
X0137078Y0158985D01*
X0136983Y0158753D01*
X0136894Y0158519D01*
X0136811Y0158283D01*
X0136734Y0158045D01*
X0136218Y0158203D01*
X0136218Y0158204D01*
X0136299Y0158455D01*
X0136387Y0158703D01*
X0136480Y0158950D01*
X0136580Y0159194D01*
X0136686Y0159435D01*
X0136797Y0159674D01*
X0136914Y0159910D01*
X0137037Y0160143D01*
X0137166Y0160373D01*
X0137300Y0160600D01*
X0137440Y0160823D01*
X0137585Y0161043D01*
X0137736Y0161260D01*
X0137892Y0161472D01*
X0138053Y0161681D01*
X0138219Y0161886D01*
X0138390Y0162086D01*
X0138566Y0162283D01*
X0138746Y0162475D01*
X0138931Y0162662D01*
X0139121Y0162845D01*
X0139315Y0163023D01*
X0139514Y0163197D01*
X0139717Y0163365D01*
X0139923Y0163529D01*
X0140134Y0163687D01*
X0140349Y0163840D01*
X0140567Y0163988D01*
X0140788Y0164131D01*
X0141014Y0164268D01*
X0141242Y0164399D01*
X0141474Y0164525D01*
X0141708Y0164645D01*
X0141946Y0164760D01*
X0142186Y0164868D01*
X0142429Y0164971D01*
X0142674Y0165067D01*
X0142922Y0165158D01*
X0143171Y0165243D01*
X0143423Y0165321D01*
X0143676Y0165393D01*
X0143932Y0165459D01*
X0144188Y0165519D01*
X0144446Y0165572D01*
X0144706Y0165619D01*
X0144966Y0165660D01*
X0145227Y0165695D01*
X0145490Y0165722D01*
X0145752Y0165744D01*
X0146015Y0165759D01*
X0146279Y0165768D01*
X0146542Y0165770D01*
X0146806Y0165766D01*
X0147069Y0165755D01*
X0147332Y0165738D01*
X0147595Y0165714D01*
X0147857Y0165684D01*
X0148118Y0165648D01*
X0148378Y0165605D01*
X0148637Y0165556D01*
X0148895Y0165500D01*
X0149151Y0165439D01*
X0149405Y0165371D01*
X0149658Y0165296D01*
X0149909Y0165216D01*
X0150158Y0165130D01*
X0150405Y0165037D01*
X0150650Y0164938D01*
X0150892Y0164834D01*
X0151131Y0164724D01*
X0151368Y0164607D01*
X0151601Y0164485D01*
X0151832Y0164358D01*
X0152059Y0164224D01*
X0152283Y0164086D01*
X0152504Y0163941D01*
X0152721Y0163792D01*
X0152934Y0163637D01*
X0153144Y0163477D01*
X0153109Y0163433D01*
X0152901Y0163592D01*
X0152688Y0163746D01*
X0152473Y0163895D01*
X0152253Y0164038D01*
X0152030Y0164176D01*
X0151804Y0164309D01*
X0151575Y0164436D01*
X0151342Y0164557D01*
X0151107Y0164673D01*
X0150869Y0164783D01*
X0150628Y0164887D01*
X0150385Y0164985D01*
X0150139Y0165077D01*
X0149892Y0165163D01*
X0149642Y0165243D01*
X0149390Y0165317D01*
X0149137Y0165384D01*
X0148882Y0165446D01*
X0148626Y0165501D01*
X0148368Y0165550D01*
X0148109Y0165592D01*
X0147850Y0165629D01*
X0147589Y0165658D01*
X0147328Y0165682D01*
X0147066Y0165699D01*
X0146804Y0165710D01*
X0146542Y0165714D01*
X0146280Y0165712D01*
X0146018Y0165703D01*
X0145756Y0165688D01*
X0145495Y0165667D01*
X0145234Y0165639D01*
X0144974Y0165605D01*
X0144715Y0165564D01*
X0144457Y0165517D01*
X0144200Y0165464D01*
X0143945Y0165405D01*
X0143691Y0165339D01*
X0143439Y0165267D01*
X0143188Y0165189D01*
X0142940Y0165105D01*
X0142694Y0165015D01*
X0142450Y0164919D01*
X0142208Y0164817D01*
X0141969Y0164709D01*
X0141733Y0164595D01*
X0141500Y0164476D01*
X0141269Y0164350D01*
X0141042Y0164220D01*
X0140818Y0164083D01*
X0140598Y0163942D01*
X0140381Y0163794D01*
X0140167Y0163642D01*
X0139958Y0163485D01*
X0139752Y0163322D01*
X0139550Y0163154D01*
X0139353Y0162982D01*
X0139160Y0162804D01*
X0138971Y0162622D01*
X0138787Y0162436D01*
X0138607Y0162245D01*
X0138432Y0162050D01*
X0138262Y0161850D01*
X0138097Y0161646D01*
X0137937Y0161439D01*
X0137782Y0161227D01*
X0137632Y0161012D01*
X0137487Y0160793D01*
X0137348Y0160571D01*
X0137215Y0160345D01*
X0137087Y0160117D01*
X0136964Y0159885D01*
X0136848Y0159650D01*
X0136737Y0159412D01*
X0136632Y0159172D01*
X0136533Y0158929D01*
X0136439Y0158684D01*
X0136352Y0158437D01*
X0136271Y0158187D01*
X0136325Y0158171D01*
X0136405Y0158419D01*
X0136492Y0158665D01*
X0136585Y0158909D01*
X0136683Y0159150D01*
X0136788Y0159389D01*
X0136898Y0159626D01*
X0137014Y0159859D01*
X0137136Y0160090D01*
X0137263Y0160318D01*
X0137396Y0160542D01*
X0137535Y0160763D01*
X0137678Y0160981D01*
X0137827Y0161195D01*
X0137981Y0161405D01*
X0138141Y0161612D01*
X0138305Y0161814D01*
X0138474Y0162013D01*
X0138648Y0162207D01*
X0138827Y0162397D01*
X0139010Y0162583D01*
X0139198Y0162764D01*
X0139390Y0162940D01*
X0139587Y0163112D01*
X0139787Y0163278D01*
X0139992Y0163440D01*
X0140200Y0163597D01*
X0140413Y0163749D01*
X0140629Y0163895D01*
X0140848Y0164036D01*
X0141071Y0164171D01*
X0141297Y0164302D01*
X0141526Y0164426D01*
X0141758Y0164545D01*
X0141993Y0164658D01*
X0142231Y0164766D01*
X0142471Y0164867D01*
X0142714Y0164963D01*
X0142959Y0165052D01*
X0143206Y0165136D01*
X0143455Y0165214D01*
X0143706Y0165285D01*
X0143958Y0165350D01*
X0144212Y0165410D01*
X0144468Y0165462D01*
X0144724Y0165509D01*
X0144982Y0165549D01*
X0145241Y0165583D01*
X0145500Y0165611D01*
X0145760Y0165632D01*
X0146020Y0165647D01*
X0146281Y0165656D01*
X0146542Y0165658D01*
X0146803Y0165654D01*
X0147063Y0165643D01*
X0147324Y0165626D01*
X0147583Y0165603D01*
X0147843Y0165573D01*
X0148101Y0165537D01*
X0148358Y0165495D01*
X0148614Y0165446D01*
X0148869Y0165391D01*
X0149123Y0165330D01*
X0149375Y0165263D01*
X0149625Y0165189D01*
X0149874Y0165110D01*
X0150120Y0165024D01*
X0150364Y0164933D01*
X0150606Y0164835D01*
X0150846Y0164732D01*
X0151083Y0164623D01*
X0151317Y0164507D01*
X0151548Y0164387D01*
X0151776Y0164260D01*
X0152001Y0164129D01*
X0152223Y0163991D01*
X0152441Y0163848D01*
X0152656Y0163700D01*
X0152867Y0163547D01*
X0153074Y0163389D01*
X0153040Y0163345D01*
X0152833Y0163502D01*
X0152623Y0163655D01*
X0152410Y0163802D01*
X0152193Y0163944D01*
X0151972Y0164081D01*
X0151748Y0164212D01*
X0151521Y0164338D01*
X0151291Y0164458D01*
X0151058Y0164572D01*
X0150823Y0164681D01*
X0150585Y0164784D01*
X0150344Y0164881D01*
X0150101Y0164972D01*
X0149856Y0165057D01*
X0149609Y0165136D01*
X0149360Y0165209D01*
X0149109Y0165276D01*
X0148857Y0165337D01*
X0148603Y0165391D01*
X0148348Y0165440D01*
X0148092Y0165482D01*
X0147835Y0165518D01*
X0147578Y0165547D01*
X0147319Y0165570D01*
X0147060Y0165587D01*
X0146801Y0165598D01*
X0146542Y0165602D01*
X0146282Y0165600D01*
X0146023Y0165591D01*
X0145764Y0165576D01*
X0145505Y0165555D01*
X0145247Y0165528D01*
X0144990Y0165494D01*
X0144734Y0165454D01*
X0144478Y0165407D01*
X0144224Y0165355D01*
X0143972Y0165296D01*
X0143720Y0165231D01*
X0143471Y0165160D01*
X0143223Y0165083D01*
X0142977Y0165000D01*
X0142734Y0164910D01*
X0142492Y0164815D01*
X0142253Y0164714D01*
X0142017Y0164607D01*
X0141783Y0164495D01*
X0141552Y0164377D01*
X0141324Y0164253D01*
X0141099Y0164123D01*
X0140878Y0163988D01*
X0140659Y0163848D01*
X0140445Y0163703D01*
X0140233Y0163552D01*
X0140026Y0163396D01*
X0139823Y0163235D01*
X0139623Y0163069D01*
X0139428Y0162898D01*
X0139237Y0162723D01*
X0139050Y0162543D01*
X0138867Y0162358D01*
X0138690Y0162169D01*
X0138516Y0161976D01*
X0138348Y0161779D01*
X0138185Y0161577D01*
X0138026Y0161372D01*
X0137873Y0161162D01*
X0137725Y0160949D01*
X0137582Y0160733D01*
X0137444Y0160513D01*
X0137312Y0160290D01*
X0137185Y0160063D01*
X0137064Y0159834D01*
X0136949Y0159601D01*
X0136839Y0159366D01*
X0136735Y0159129D01*
X0136637Y0158888D01*
X0136545Y0158646D01*
X0136458Y0158401D01*
X0136378Y0158154D01*
X0136432Y0158138D01*
X0136511Y0158383D01*
X0136597Y0158627D01*
X0136689Y0158868D01*
X0136787Y0159107D01*
X0136890Y0159343D01*
X0136999Y0159577D01*
X0137114Y0159808D01*
X0137234Y0160037D01*
X0137360Y0160262D01*
X0137492Y0160484D01*
X0137629Y0160703D01*
X0137771Y0160918D01*
X0137918Y0161130D01*
X0138071Y0161338D01*
X0138229Y0161542D01*
X0138391Y0161743D01*
X0138559Y0161939D01*
X0138731Y0162132D01*
X0138908Y0162320D01*
X0139089Y0162503D01*
X0139275Y0162682D01*
X0139465Y0162857D01*
X0139659Y0163027D01*
X0139858Y0163192D01*
X0140060Y0163352D01*
X0140267Y0163507D01*
X0140477Y0163657D01*
X0140690Y0163801D01*
X0140907Y0163941D01*
X0141128Y0164075D01*
X0141352Y0164204D01*
X0141578Y0164327D01*
X0141808Y0164445D01*
X0142041Y0164557D01*
X0142276Y0164663D01*
X0142513Y0164763D01*
X0142754Y0164858D01*
X0142996Y0164947D01*
X0143240Y0165030D01*
X0143487Y0165106D01*
X0143735Y0165177D01*
X0143985Y0165242D01*
X0144236Y0165300D01*
X0144489Y0165352D01*
X0144743Y0165399D01*
X0144998Y0165438D01*
X0145254Y0165472D01*
X0145510Y0165499D01*
X0145768Y0165521D01*
X0146025Y0165535D01*
X0146283Y0165544D01*
X0146541Y0165546D01*
X0146799Y0165542D01*
X0147057Y0165531D01*
X0147315Y0165514D01*
X0147572Y0165491D01*
X0147828Y0165462D01*
X0148084Y0165426D01*
X0148339Y0165385D01*
X0148592Y0165336D01*
X0148844Y0165282D01*
X0149095Y0165222D01*
X0149345Y0165155D01*
X0149592Y0165082D01*
X0149838Y0165004D01*
X0150082Y0164919D01*
X0150324Y0164828D01*
X0150563Y0164732D01*
X0150800Y0164630D01*
X0151034Y0164522D01*
X0151266Y0164408D01*
X0151495Y0164288D01*
X0151720Y0164163D01*
X0151943Y0164033D01*
X0152162Y0163897D01*
X0152379Y0163756D01*
X0152591Y0163609D01*
X0152800Y0163458D01*
X0153005Y0163301D01*
X0152970Y0163257D01*
X0152766Y0163413D01*
X0152559Y0163564D01*
X0152347Y0163709D01*
X0152132Y0163850D01*
X0151914Y0163985D01*
X0151693Y0164115D01*
X0151468Y0164239D01*
X0151240Y0164358D01*
X0151010Y0164471D01*
X0150777Y0164579D01*
X0150541Y0164680D01*
X0150303Y0164776D01*
X0150063Y0164866D01*
X0149820Y0164951D01*
X0149576Y0165029D01*
X0149329Y0165101D01*
X0149081Y0165167D01*
X0148832Y0165228D01*
X0148581Y0165282D01*
X0148329Y0165329D01*
X0148075Y0165371D01*
X0147821Y0165406D01*
X0147566Y0165436D01*
X0147310Y0165459D01*
X0147054Y0165475D01*
X0146798Y0165486D01*
X0146541Y0165490D01*
X0146284Y0165488D01*
X0146028Y0165479D01*
X0145772Y0165465D01*
X0145516Y0165444D01*
X0145260Y0165416D01*
X0145006Y0165383D01*
X0144752Y0165343D01*
X0144500Y0165298D01*
X0144248Y0165245D01*
X0143998Y0165187D01*
X0143750Y0165123D01*
X0143503Y0165053D01*
X0143258Y0164976D01*
X0143015Y0164894D01*
X0142774Y0164806D01*
X0142535Y0164712D01*
X0142298Y0164612D01*
X0142064Y0164506D01*
X0141833Y0164395D01*
X0141604Y0164278D01*
X0141379Y0164155D01*
X0141156Y0164027D01*
X0140937Y0163894D01*
X0140721Y0163755D01*
X0140509Y0163611D01*
X0140300Y0163462D01*
X0140095Y0163307D01*
X0139893Y0163148D01*
X0139696Y0162984D01*
X0139502Y0162815D01*
X0139313Y0162641D01*
X0139129Y0162463D01*
X0138948Y0162281D01*
X0138772Y0162094D01*
X0138601Y0161903D01*
X0138434Y0161707D01*
X0138273Y0161508D01*
X0138116Y0161305D01*
X0137964Y0161097D01*
X0137817Y0160887D01*
X0137676Y0160673D01*
X0137540Y0160455D01*
X0137409Y0160234D01*
X0137284Y0160010D01*
X0137164Y0159783D01*
X0137050Y0159553D01*
X0136941Y0159320D01*
X0136838Y0159085D01*
X0136741Y0158848D01*
X0136650Y0158608D01*
X0136565Y0158366D01*
X0136485Y0158121D01*
X0136539Y0158105D01*
X0136618Y0158348D01*
X0136703Y0158589D01*
X0136793Y0158827D01*
X0136890Y0159064D01*
X0136992Y0159298D01*
X0137100Y0159529D01*
X0137214Y0159758D01*
X0137333Y0159983D01*
X0137458Y0160206D01*
X0137588Y0160426D01*
X0137723Y0160642D01*
X0137864Y0160855D01*
X0138010Y0161065D01*
X0138161Y0161271D01*
X0138317Y0161473D01*
X0138477Y0161671D01*
X0138643Y0161866D01*
X0138814Y0162056D01*
X0138988Y0162242D01*
X0139168Y0162424D01*
X0139352Y0162601D01*
X0139540Y0162773D01*
X0139732Y0162941D01*
X0139929Y0163105D01*
X0140129Y0163263D01*
X0140333Y0163416D01*
X0140541Y0163565D01*
X0140752Y0163708D01*
X0140967Y0163846D01*
X0141185Y0163979D01*
X0141406Y0164106D01*
X0141631Y0164228D01*
X0141858Y0164344D01*
X0142088Y0164455D01*
X0142321Y0164560D01*
X0142556Y0164660D01*
X0142793Y0164753D01*
X0143033Y0164841D01*
X0143275Y0164923D01*
X0143519Y0164999D01*
X0143764Y0165069D01*
X0144012Y0165133D01*
X0144260Y0165191D01*
X0144510Y0165243D01*
X0144762Y0165288D01*
X0145014Y0165328D01*
X0145267Y0165361D01*
X0145521Y0165388D01*
X0145775Y0165409D01*
X0146030Y0165423D01*
X0146285Y0165432D01*
X0146541Y0165434D01*
X0146796Y0165430D01*
X0147051Y0165419D01*
X0147306Y0165403D01*
X0147560Y0165380D01*
X0147814Y0165351D01*
X0148067Y0165316D01*
X0148319Y0165274D01*
X0148570Y0165227D01*
X0148819Y0165173D01*
X0149068Y0165113D01*
X0149314Y0165047D01*
X0149559Y0164975D01*
X0149802Y0164898D01*
X0150044Y0164814D01*
X0150283Y0164724D01*
X0150520Y0164629D01*
X0150754Y0164527D01*
X0150986Y0164420D01*
X0151215Y0164308D01*
X0151441Y0164190D01*
X0151665Y0164066D01*
X0151885Y0163937D01*
X0152102Y0163803D01*
X0152316Y0163663D01*
X0152526Y0163518D01*
X0152733Y0163368D01*
X0152936Y0163213D01*
X0152901Y0163169D01*
X0152699Y0163323D01*
X0152494Y0163472D01*
X0152284Y0163616D01*
X0152072Y0163755D01*
X0151856Y0163889D01*
X0151637Y0164017D01*
X0151415Y0164140D01*
X0151190Y0164258D01*
X0150962Y0164370D01*
X0150731Y0164476D01*
X0150498Y0164577D01*
X0150262Y0164672D01*
X0150025Y0164761D01*
X0149785Y0164844D01*
X0149543Y0164922D01*
X0149299Y0164993D01*
X0149054Y0165059D01*
X0148807Y0165118D01*
X0148559Y0165172D01*
X0148309Y0165219D01*
X0148058Y0165260D01*
X0147807Y0165295D01*
X0147555Y0165324D01*
X0147302Y0165347D01*
X0147048Y0165364D01*
X0146794Y0165374D01*
X0146541Y0165378D01*
X0146287Y0165376D01*
X0146033Y0165367D01*
X0145779Y0165353D01*
X0145526Y0165332D01*
X0145274Y0165305D01*
X0145022Y0165272D01*
X0144771Y0165233D01*
X0144521Y0165188D01*
X0144272Y0165136D01*
X0144025Y0165079D01*
X0143779Y0165015D01*
X0143535Y0164945D01*
X0143292Y0164870D01*
X0143052Y0164788D01*
X0142813Y0164701D01*
X0142577Y0164608D01*
X0142343Y0164509D01*
X0142112Y0164405D01*
X0141883Y0164294D01*
X0141657Y0164179D01*
X0141434Y0164057D01*
X0141214Y0163931D01*
X0140997Y0163799D01*
X0140783Y0163661D01*
X0140573Y0163519D01*
X0140366Y0163371D01*
X0140163Y0163219D01*
X0139964Y0163061D01*
X0139769Y0162899D01*
X0139577Y0162732D01*
X0139390Y0162560D01*
X0139207Y0162384D01*
X0139029Y0162203D01*
X0138855Y0162018D01*
X0138685Y0161829D01*
X0138521Y0161636D01*
X0138361Y0161438D01*
X0138206Y0161237D01*
X0138055Y0161033D01*
X0137910Y0160824D01*
X0137770Y0160612D01*
X0137636Y0160397D01*
X0137506Y0160178D01*
X0137382Y0159957D01*
X0137264Y0159732D01*
X0137151Y0159505D01*
X0137043Y0159275D01*
X0136941Y0159042D01*
X0136845Y0158807D01*
X0136755Y0158569D01*
X0136671Y0158330D01*
X0136592Y0158088D01*
X0136646Y0158072D01*
X0136724Y0158312D01*
X0136808Y0158550D01*
X0136898Y0158786D01*
X0136993Y0159020D01*
X0137094Y0159252D01*
X0137201Y0159481D01*
X0137314Y0159707D01*
X0137431Y0159930D01*
X0137555Y0160151D01*
X0137684Y0160368D01*
X0137818Y0160582D01*
X0137957Y0160793D01*
X0138101Y0161000D01*
X0138250Y0161204D01*
X0138405Y0161404D01*
X0138564Y0161600D01*
X0138728Y0161792D01*
X0138896Y0161980D01*
X0139069Y0162164D01*
X0139247Y0162344D01*
X0139429Y0162519D01*
X0139615Y0162690D01*
X0139805Y0162856D01*
X0139999Y0163018D01*
X0140197Y0163174D01*
X0140399Y0163326D01*
X0140605Y0163473D01*
X0140814Y0163615D01*
X0141026Y0163751D01*
X0141242Y0163882D01*
X0141461Y0164008D01*
X0141683Y0164129D01*
X0141908Y0164244D01*
X0142135Y0164354D01*
X0142366Y0164458D01*
X0142598Y0164556D01*
X0142833Y0164649D01*
X0143070Y0164736D01*
X0143310Y0164817D01*
X0143551Y0164892D01*
X0143794Y0164961D01*
X0144038Y0165024D01*
X0144284Y0165081D01*
X0144532Y0165133D01*
X0144780Y0165178D01*
X0145030Y0165217D01*
X0145280Y0165250D01*
X0145531Y0165276D01*
X0145783Y0165297D01*
X0146035Y0165312D01*
X0146288Y0165320D01*
X0146540Y0165322D01*
X0146793Y0165318D01*
X0147045Y0165308D01*
X0147297Y0165291D01*
X0147549Y0165269D01*
X0147800Y0165240D01*
X0148050Y0165205D01*
X0148299Y0165164D01*
X0148547Y0165117D01*
X0148794Y0165064D01*
X0149040Y0165005D01*
X0149284Y0164940D01*
X0149526Y0164868D01*
X0149767Y0164791D01*
X0150005Y0164709D01*
X0150242Y0164620D01*
X0150476Y0164525D01*
X0150708Y0164425D01*
X0150937Y0164319D01*
X0151164Y0164208D01*
X0151388Y0164091D01*
X0151609Y0163969D01*
X0151827Y0163841D01*
X0152042Y0163708D01*
X0152253Y0163570D01*
X0152461Y0163427D01*
X0152666Y0163278D01*
X0152866Y0163125D01*
X0152832Y0163081D01*
X0152632Y0163233D01*
X0152429Y0163381D01*
X0152222Y0163524D01*
X0152012Y0163661D01*
X0151798Y0163793D01*
X0151581Y0163920D01*
X0151361Y0164042D01*
X0151139Y0164158D01*
X0150913Y0164269D01*
X0150685Y0164374D01*
X0150455Y0164474D01*
X0150222Y0164568D01*
X0149986Y0164656D01*
X0149749Y0164738D01*
X0149510Y0164815D01*
X0149269Y0164886D01*
X0149026Y0164950D01*
X0148782Y0165009D01*
X0148536Y0165062D01*
X0148289Y0165109D01*
X0148041Y0165150D01*
X0147793Y0165184D01*
X0147543Y0165213D01*
X0147293Y0165235D01*
X0147042Y0165252D01*
X0146791Y0165262D01*
X0146540Y0165266D01*
X0146289Y0165264D01*
X0146038Y0165256D01*
X0145787Y0165241D01*
X0145537Y0165221D01*
X0145287Y0165194D01*
X0145038Y0165161D01*
X0144789Y0165122D01*
X0144542Y0165078D01*
X0144296Y0165027D01*
X0144052Y0164970D01*
X0143808Y0164907D01*
X0143567Y0164838D01*
X0143327Y0164763D01*
X0143089Y0164683D01*
X0142853Y0164596D01*
X0142619Y0164504D01*
X0142388Y0164406D01*
X0142159Y0164303D01*
X0141933Y0164194D01*
X0141709Y0164080D01*
X0141488Y0163960D01*
X0141271Y0163834D01*
X0141056Y0163704D01*
X0140845Y0163568D01*
X0140637Y0163427D01*
X0140432Y0163281D01*
X0140232Y0163130D01*
X0140034Y0162974D01*
X0139841Y0162814D01*
X0139652Y0162648D01*
X0139467Y0162479D01*
X0139286Y0162304D01*
X0139110Y0162125D01*
X0138937Y0161943D01*
X0138770Y0161755D01*
X0138607Y0161564D01*
X0138449Y0161369D01*
X0138295Y0161170D01*
X0138147Y0160968D01*
X0138003Y0160761D01*
X0137865Y0160552D01*
X0137731Y0160339D01*
X0137603Y0160123D01*
X0137481Y0159903D01*
X0137363Y0159681D01*
X0137252Y0159456D01*
X0137145Y0159229D01*
X0137045Y0158999D01*
X0136950Y0158766D01*
X0136860Y0158531D01*
X0136777Y0158294D01*
X0136699Y0158055D01*
X0156218Y0151797D02*
X0156734Y0151956D01*
X0156734Y0151955D02*
X0156811Y0151717D01*
X0156894Y0151481D01*
X0156983Y0151247D01*
X0157078Y0151015D01*
X0157178Y0150786D01*
X0157284Y0150559D01*
X0157396Y0150335D01*
X0157512Y0150114D01*
X0157635Y0149895D01*
X0157762Y0149680D01*
X0157895Y0149468D01*
X0158033Y0149259D01*
X0158176Y0149053D01*
X0158324Y0148851D01*
X0158477Y0148653D01*
X0158634Y0148459D01*
X0158797Y0148268D01*
X0158964Y0148082D01*
X0159135Y0147900D01*
X0159311Y0147721D01*
X0159492Y0147548D01*
X0159676Y0147379D01*
X0159865Y0147214D01*
X0160057Y0147054D01*
X0160253Y0146899D01*
X0160454Y0146748D01*
X0160657Y0146603D01*
X0160864Y0146462D01*
X0161075Y0146327D01*
X0161289Y0146197D01*
X0161506Y0146072D01*
X0161726Y0145952D01*
X0161949Y0145838D01*
X0162174Y0145730D01*
X0162402Y0145627D01*
X0162633Y0145529D01*
X0162866Y0145437D01*
X0163101Y0145351D01*
X0163338Y0145271D01*
X0163577Y0145196D01*
X0163818Y0145128D01*
X0164060Y0145065D01*
X0164304Y0145009D01*
X0164549Y0144958D01*
X0164795Y0144913D01*
X0165043Y0144874D01*
X0165291Y0144842D01*
X0165540Y0144815D01*
X0165789Y0144795D01*
X0166039Y0144780D01*
X0166289Y0144772D01*
X0166540Y0144770D01*
X0166790Y0144774D01*
X0167040Y0144784D01*
X0167290Y0144801D01*
X0167539Y0144823D01*
X0167788Y0144851D01*
X0168036Y0144886D01*
X0168283Y0144927D01*
X0168529Y0144973D01*
X0168774Y0145026D01*
X0169017Y0145084D01*
X0169259Y0145149D01*
X0169499Y0145219D01*
X0169737Y0145296D01*
X0169974Y0145378D01*
X0170208Y0145466D01*
X0170440Y0145559D01*
X0170670Y0145659D01*
X0170898Y0145763D01*
X0171122Y0145874D01*
X0171344Y0145990D01*
X0171563Y0146111D01*
X0171779Y0146237D01*
X0171992Y0146369D01*
X0172202Y0146506D01*
X0172408Y0146648D01*
X0172610Y0146795D01*
X0172809Y0146947D01*
X0173143Y0146524D01*
X0173143Y0146523D01*
X0172934Y0146363D01*
X0172721Y0146208D01*
X0172504Y0146059D01*
X0172283Y0145914D01*
X0172059Y0145776D01*
X0171832Y0145642D01*
X0171601Y0145515D01*
X0171367Y0145393D01*
X0171131Y0145276D01*
X0170891Y0145166D01*
X0170649Y0145061D01*
X0170405Y0144963D01*
X0170158Y0144870D01*
X0169909Y0144784D01*
X0169658Y0144703D01*
X0169405Y0144629D01*
X0169151Y0144561D01*
X0168894Y0144500D01*
X0168637Y0144444D01*
X0168378Y0144395D01*
X0168118Y0144352D01*
X0167857Y0144316D01*
X0167595Y0144286D01*
X0167332Y0144262D01*
X0167069Y0144245D01*
X0166806Y0144234D01*
X0166542Y0144230D01*
X0166279Y0144232D01*
X0166015Y0144241D01*
X0165752Y0144256D01*
X0165489Y0144278D01*
X0165227Y0144305D01*
X0164966Y0144340D01*
X0164706Y0144381D01*
X0164446Y0144428D01*
X0164188Y0144481D01*
X0163931Y0144541D01*
X0163676Y0144607D01*
X0163423Y0144679D01*
X0163171Y0144757D01*
X0162921Y0144842D01*
X0162674Y0144933D01*
X0162429Y0145029D01*
X0162186Y0145132D01*
X0161946Y0145240D01*
X0161708Y0145355D01*
X0161474Y0145475D01*
X0161242Y0145601D01*
X0161014Y0145732D01*
X0160788Y0145869D01*
X0160567Y0146012D01*
X0160348Y0146160D01*
X0160134Y0146313D01*
X0159923Y0146471D01*
X0159717Y0146635D01*
X0159514Y0146803D01*
X0159315Y0146977D01*
X0159121Y0147155D01*
X0158931Y0147338D01*
X0158746Y0147525D01*
X0158566Y0147717D01*
X0158390Y0147914D01*
X0158219Y0148114D01*
X0158053Y0148319D01*
X0157892Y0148528D01*
X0157736Y0148740D01*
X0157585Y0148957D01*
X0157440Y0149177D01*
X0157300Y0149400D01*
X0157166Y0149627D01*
X0157037Y0149857D01*
X0156914Y0150090D01*
X0156797Y0150326D01*
X0156686Y0150565D01*
X0156580Y0150806D01*
X0156480Y0151050D01*
X0156387Y0151297D01*
X0156299Y0151545D01*
X0156218Y0151796D01*
X0156271Y0151813D01*
X0156352Y0151563D01*
X0156439Y0151316D01*
X0156532Y0151071D01*
X0156632Y0150828D01*
X0156737Y0150588D01*
X0156848Y0150350D01*
X0156964Y0150115D01*
X0157087Y0149884D01*
X0157215Y0149655D01*
X0157348Y0149429D01*
X0157487Y0149207D01*
X0157632Y0148988D01*
X0157782Y0148773D01*
X0157937Y0148561D01*
X0158097Y0148354D01*
X0158262Y0148150D01*
X0158432Y0147950D01*
X0158607Y0147755D01*
X0158787Y0147564D01*
X0158971Y0147378D01*
X0159160Y0147196D01*
X0159353Y0147018D01*
X0159550Y0146846D01*
X0159752Y0146678D01*
X0159958Y0146516D01*
X0160167Y0146358D01*
X0160380Y0146206D01*
X0160598Y0146058D01*
X0160818Y0145917D01*
X0161042Y0145780D01*
X0161269Y0145650D01*
X0161500Y0145524D01*
X0161733Y0145405D01*
X0161969Y0145291D01*
X0162208Y0145183D01*
X0162450Y0145081D01*
X0162694Y0144985D01*
X0162940Y0144895D01*
X0163188Y0144811D01*
X0163439Y0144733D01*
X0163691Y0144661D01*
X0163945Y0144595D01*
X0164200Y0144536D01*
X0164457Y0144483D01*
X0164715Y0144436D01*
X0164974Y0144395D01*
X0165234Y0144361D01*
X0165495Y0144333D01*
X0165756Y0144312D01*
X0166018Y0144297D01*
X0166280Y0144288D01*
X0166542Y0144286D01*
X0166804Y0144290D01*
X0167066Y0144301D01*
X0167328Y0144318D01*
X0167589Y0144341D01*
X0167849Y0144371D01*
X0168109Y0144408D01*
X0168368Y0144450D01*
X0168625Y0144499D01*
X0168882Y0144554D01*
X0169137Y0144616D01*
X0169390Y0144683D01*
X0169642Y0144757D01*
X0169891Y0144837D01*
X0170139Y0144923D01*
X0170385Y0145015D01*
X0170628Y0145113D01*
X0170868Y0145217D01*
X0171107Y0145327D01*
X0171342Y0145443D01*
X0171574Y0145564D01*
X0171804Y0145691D01*
X0172030Y0145823D01*
X0172253Y0145962D01*
X0172472Y0146105D01*
X0172688Y0146254D01*
X0172900Y0146408D01*
X0173109Y0146567D01*
X0173074Y0146611D01*
X0172867Y0146453D01*
X0172656Y0146299D01*
X0172441Y0146151D01*
X0172223Y0146009D01*
X0172001Y0145871D01*
X0171776Y0145739D01*
X0171548Y0145613D01*
X0171317Y0145492D01*
X0171082Y0145377D01*
X0170846Y0145268D01*
X0170606Y0145165D01*
X0170364Y0145067D01*
X0170120Y0144976D01*
X0169874Y0144890D01*
X0169625Y0144810D01*
X0169375Y0144737D01*
X0169123Y0144670D01*
X0168869Y0144609D01*
X0168614Y0144554D01*
X0168358Y0144505D01*
X0168101Y0144463D01*
X0167842Y0144427D01*
X0167583Y0144397D01*
X0167323Y0144374D01*
X0167063Y0144357D01*
X0166802Y0144346D01*
X0166542Y0144342D01*
X0166281Y0144344D01*
X0166020Y0144353D01*
X0165760Y0144368D01*
X0165500Y0144389D01*
X0165240Y0144417D01*
X0164982Y0144451D01*
X0164724Y0144491D01*
X0164468Y0144538D01*
X0164212Y0144590D01*
X0163958Y0144650D01*
X0163706Y0144715D01*
X0163455Y0144786D01*
X0163206Y0144864D01*
X0162959Y0144948D01*
X0162714Y0145037D01*
X0162471Y0145133D01*
X0162231Y0145234D01*
X0161993Y0145342D01*
X0161758Y0145455D01*
X0161526Y0145574D01*
X0161297Y0145698D01*
X0161071Y0145829D01*
X0160848Y0145964D01*
X0160628Y0146105D01*
X0160412Y0146252D01*
X0160200Y0146403D01*
X0159992Y0146560D01*
X0159787Y0146722D01*
X0159587Y0146888D01*
X0159390Y0147060D01*
X0159198Y0147236D01*
X0159010Y0147417D01*
X0158827Y0147603D01*
X0158648Y0147793D01*
X0158474Y0147987D01*
X0158305Y0148186D01*
X0158141Y0148388D01*
X0157981Y0148595D01*
X0157827Y0148805D01*
X0157678Y0149019D01*
X0157534Y0149237D01*
X0157396Y0149458D01*
X0157263Y0149683D01*
X0157136Y0149910D01*
X0157014Y0150141D01*
X0156898Y0150374D01*
X0156788Y0150611D01*
X0156683Y0150850D01*
X0156585Y0151091D01*
X0156492Y0151335D01*
X0156405Y0151581D01*
X0156325Y0151829D01*
X0156378Y0151846D01*
X0156458Y0151599D01*
X0156545Y0151354D01*
X0156637Y0151112D01*
X0156735Y0150871D01*
X0156839Y0150634D01*
X0156949Y0150399D01*
X0157064Y0150166D01*
X0157185Y0149937D01*
X0157312Y0149710D01*
X0157444Y0149487D01*
X0157582Y0149267D01*
X0157725Y0149051D01*
X0157873Y0148838D01*
X0158026Y0148628D01*
X0158185Y0148423D01*
X0158348Y0148221D01*
X0158516Y0148024D01*
X0158689Y0147831D01*
X0158867Y0147642D01*
X0159050Y0147457D01*
X0159236Y0147277D01*
X0159428Y0147102D01*
X0159623Y0146931D01*
X0159822Y0146765D01*
X0160026Y0146604D01*
X0160233Y0146448D01*
X0160445Y0146297D01*
X0160659Y0146152D01*
X0160878Y0146012D01*
X0161099Y0145877D01*
X0161324Y0145747D01*
X0161552Y0145623D01*
X0161783Y0145505D01*
X0162017Y0145393D01*
X0162253Y0145286D01*
X0162492Y0145185D01*
X0162734Y0145090D01*
X0162977Y0145000D01*
X0163223Y0144917D01*
X0163471Y0144840D01*
X0163720Y0144769D01*
X0163971Y0144704D01*
X0164224Y0144645D01*
X0164478Y0144593D01*
X0164733Y0144546D01*
X0164990Y0144506D01*
X0165247Y0144472D01*
X0165505Y0144445D01*
X0165764Y0144424D01*
X0166023Y0144409D01*
X0166282Y0144400D01*
X0166541Y0144398D01*
X0166801Y0144402D01*
X0167060Y0144413D01*
X0167319Y0144430D01*
X0167577Y0144453D01*
X0167835Y0144482D01*
X0168092Y0144518D01*
X0168348Y0144560D01*
X0168603Y0144609D01*
X0168857Y0144663D01*
X0169109Y0144724D01*
X0169360Y0144791D01*
X0169609Y0144864D01*
X0169856Y0144943D01*
X0170101Y0145028D01*
X0170344Y0145119D01*
X0170584Y0145216D01*
X0170823Y0145319D01*
X0171058Y0145428D01*
X0171291Y0145542D01*
X0171521Y0145662D01*
X0171748Y0145788D01*
X0171972Y0145919D01*
X0172193Y0146056D01*
X0172410Y0146198D01*
X0172623Y0146345D01*
X0172833Y0146498D01*
X0173039Y0146655D01*
X0173005Y0146699D01*
X0172800Y0146542D01*
X0172591Y0146391D01*
X0172378Y0146244D01*
X0172162Y0146103D01*
X0171943Y0145967D01*
X0171720Y0145837D01*
X0171494Y0145712D01*
X0171266Y0145592D01*
X0171034Y0145478D01*
X0170800Y0145370D01*
X0170563Y0145268D01*
X0170323Y0145171D01*
X0170082Y0145081D01*
X0169838Y0144996D01*
X0169592Y0144917D01*
X0169344Y0144845D01*
X0169095Y0144778D01*
X0168844Y0144718D01*
X0168592Y0144664D01*
X0168338Y0144615D01*
X0168084Y0144574D01*
X0167828Y0144538D01*
X0167572Y0144509D01*
X0167315Y0144486D01*
X0167057Y0144469D01*
X0166799Y0144458D01*
X0166541Y0144454D01*
X0166283Y0144456D01*
X0166025Y0144465D01*
X0165767Y0144479D01*
X0165510Y0144501D01*
X0165254Y0144528D01*
X0164998Y0144562D01*
X0164743Y0144601D01*
X0164489Y0144648D01*
X0164236Y0144700D01*
X0163985Y0144758D01*
X0163735Y0144823D01*
X0163487Y0144894D01*
X0163240Y0144970D01*
X0162996Y0145053D01*
X0162753Y0145142D01*
X0162513Y0145237D01*
X0162276Y0145337D01*
X0162040Y0145443D01*
X0161808Y0145555D01*
X0161578Y0145673D01*
X0161351Y0145796D01*
X0161128Y0145925D01*
X0160907Y0146059D01*
X0160690Y0146199D01*
X0160477Y0146343D01*
X0160267Y0146493D01*
X0160060Y0146649D01*
X0159858Y0146809D01*
X0159659Y0146974D01*
X0159465Y0147143D01*
X0159275Y0147318D01*
X0159089Y0147497D01*
X0158908Y0147681D01*
X0158731Y0147869D01*
X0158559Y0148061D01*
X0158391Y0148257D01*
X0158229Y0148458D01*
X0158071Y0148662D01*
X0157918Y0148870D01*
X0157771Y0149082D01*
X0157629Y0149297D01*
X0157492Y0149516D01*
X0157360Y0149738D01*
X0157234Y0149963D01*
X0157114Y0150192D01*
X0156999Y0150423D01*
X0156890Y0150657D01*
X0156787Y0150893D01*
X0156689Y0151132D01*
X0156597Y0151373D01*
X0156511Y0151617D01*
X0156432Y0151862D01*
X0156485Y0151879D01*
X0156565Y0151635D01*
X0156650Y0151392D01*
X0156741Y0151152D01*
X0156838Y0150915D01*
X0156941Y0150680D01*
X0157050Y0150447D01*
X0157164Y0150217D01*
X0157284Y0149990D01*
X0157409Y0149766D01*
X0157540Y0149545D01*
X0157676Y0149328D01*
X0157817Y0149113D01*
X0157964Y0148903D01*
X0158116Y0148696D01*
X0158273Y0148492D01*
X0158434Y0148293D01*
X0158601Y0148098D01*
X0158772Y0147906D01*
X0158948Y0147719D01*
X0159128Y0147537D01*
X0159313Y0147359D01*
X0159502Y0147185D01*
X0159696Y0147016D01*
X0159893Y0146852D01*
X0160094Y0146693D01*
X0160300Y0146539D01*
X0160509Y0146389D01*
X0160721Y0146245D01*
X0160937Y0146107D01*
X0161156Y0145973D01*
X0161379Y0145845D01*
X0161604Y0145722D01*
X0161833Y0145605D01*
X0162064Y0145494D01*
X0162298Y0145388D01*
X0162535Y0145288D01*
X0162773Y0145194D01*
X0163014Y0145106D01*
X0163258Y0145024D01*
X0163503Y0144947D01*
X0163750Y0144877D01*
X0163998Y0144813D01*
X0164248Y0144755D01*
X0164499Y0144703D01*
X0164752Y0144657D01*
X0165006Y0144617D01*
X0165260Y0144584D01*
X0165515Y0144556D01*
X0165771Y0144535D01*
X0166028Y0144521D01*
X0166284Y0144512D01*
X0166541Y0144510D01*
X0166798Y0144514D01*
X0167054Y0144525D01*
X0167310Y0144541D01*
X0167566Y0144564D01*
X0167821Y0144594D01*
X0168075Y0144629D01*
X0168329Y0144671D01*
X0168581Y0144718D01*
X0168832Y0144772D01*
X0169081Y0144833D01*
X0169329Y0144899D01*
X0169576Y0144971D01*
X0169820Y0145049D01*
X0170063Y0145133D01*
X0170303Y0145224D01*
X0170541Y0145320D01*
X0170777Y0145421D01*
X0171010Y0145529D01*
X0171240Y0145642D01*
X0171468Y0145761D01*
X0171692Y0145885D01*
X0171914Y0146015D01*
X0172132Y0146150D01*
X0172347Y0146291D01*
X0172558Y0146436D01*
X0172766Y0146587D01*
X0172970Y0146743D01*
X0172935Y0146787D01*
X0172733Y0146632D01*
X0172526Y0146482D01*
X0172316Y0146337D01*
X0172102Y0146197D01*
X0171885Y0146063D01*
X0171665Y0145934D01*
X0171441Y0145810D01*
X0171215Y0145692D01*
X0170986Y0145579D01*
X0170754Y0145472D01*
X0170519Y0145371D01*
X0170283Y0145276D01*
X0170043Y0145186D01*
X0169802Y0145102D01*
X0169559Y0145025D01*
X0169314Y0144953D01*
X0169067Y0144887D01*
X0168819Y0144827D01*
X0168570Y0144773D01*
X0168319Y0144726D01*
X0168067Y0144684D01*
X0167814Y0144649D01*
X0167560Y0144620D01*
X0167306Y0144597D01*
X0167051Y0144581D01*
X0166796Y0144570D01*
X0166541Y0144566D01*
X0166285Y0144568D01*
X0166030Y0144577D01*
X0165775Y0144591D01*
X0165521Y0144612D01*
X0165267Y0144639D01*
X0165014Y0144672D01*
X0164761Y0144712D01*
X0164510Y0144757D01*
X0164260Y0144809D01*
X0164011Y0144867D01*
X0163764Y0144931D01*
X0163519Y0145001D01*
X0163275Y0145077D01*
X0163033Y0145159D01*
X0162793Y0145247D01*
X0162556Y0145340D01*
X0162321Y0145440D01*
X0162088Y0145545D01*
X0161858Y0145656D01*
X0161631Y0145772D01*
X0161406Y0145894D01*
X0161185Y0146021D01*
X0160967Y0146154D01*
X0160752Y0146292D01*
X0160541Y0146435D01*
X0160333Y0146584D01*
X0160129Y0146737D01*
X0159928Y0146896D01*
X0159732Y0147059D01*
X0159540Y0147227D01*
X0159352Y0147399D01*
X0159168Y0147577D01*
X0158988Y0147758D01*
X0158813Y0147944D01*
X0158643Y0148134D01*
X0158477Y0148329D01*
X0158317Y0148527D01*
X0158161Y0148729D01*
X0158010Y0148935D01*
X0157864Y0149145D01*
X0157723Y0149358D01*
X0157588Y0149574D01*
X0157458Y0149794D01*
X0157333Y0150017D01*
X0157214Y0150243D01*
X0157100Y0150471D01*
X0156992Y0150703D01*
X0156890Y0150937D01*
X0156793Y0151173D01*
X0156702Y0151412D01*
X0156618Y0151652D01*
X0156539Y0151895D01*
X0156592Y0151912D01*
X0156671Y0151670D01*
X0156755Y0151431D01*
X0156845Y0151193D01*
X0156941Y0150958D01*
X0157043Y0150726D01*
X0157151Y0150495D01*
X0157264Y0150268D01*
X0157382Y0150043D01*
X0157506Y0149822D01*
X0157636Y0149603D01*
X0157770Y0149388D01*
X0157910Y0149176D01*
X0158055Y0148968D01*
X0158205Y0148763D01*
X0158361Y0148562D01*
X0158521Y0148364D01*
X0158685Y0148171D01*
X0158855Y0147982D01*
X0159029Y0147797D01*
X0159207Y0147616D01*
X0159390Y0147440D01*
X0159577Y0147268D01*
X0159768Y0147101D01*
X0159964Y0146939D01*
X0160163Y0146781D01*
X0160366Y0146629D01*
X0160573Y0146481D01*
X0160783Y0146339D01*
X0160996Y0146201D01*
X0161213Y0146069D01*
X0161434Y0145943D01*
X0161657Y0145821D01*
X0161883Y0145706D01*
X0162112Y0145596D01*
X0162343Y0145491D01*
X0162577Y0145392D01*
X0162813Y0145299D01*
X0163052Y0145212D01*
X0163292Y0145130D01*
X0163535Y0145055D01*
X0163779Y0144985D01*
X0164025Y0144922D01*
X0164272Y0144864D01*
X0164521Y0144812D01*
X0164771Y0144767D01*
X0165022Y0144728D01*
X0165273Y0144695D01*
X0165526Y0144668D01*
X0165779Y0144647D01*
X0166033Y0144633D01*
X0166286Y0144624D01*
X0166540Y0144622D01*
X0166794Y0144626D01*
X0167048Y0144636D01*
X0167301Y0144653D01*
X0167554Y0144676D01*
X0167807Y0144705D01*
X0168058Y0144740D01*
X0168309Y0144781D01*
X0168558Y0144828D01*
X0168807Y0144882D01*
X0169054Y0144941D01*
X0169299Y0145007D01*
X0169543Y0145078D01*
X0169784Y0145155D01*
X0170024Y0145239D01*
X0170262Y0145328D01*
X0170498Y0145423D01*
X0170731Y0145524D01*
X0170961Y0145630D01*
X0171189Y0145742D01*
X0171415Y0145859D01*
X0171637Y0145982D01*
X0171856Y0146111D01*
X0172072Y0146245D01*
X0172284Y0146383D01*
X0172493Y0146528D01*
X0172699Y0146677D01*
X0172901Y0146831D01*
X0172866Y0146875D01*
X0172665Y0146722D01*
X0172461Y0146573D01*
X0172253Y0146430D01*
X0172042Y0146292D01*
X0171827Y0146159D01*
X0171609Y0146031D01*
X0171388Y0145909D01*
X0171164Y0145792D01*
X0170937Y0145680D01*
X0170708Y0145575D01*
X0170476Y0145475D01*
X0170242Y0145380D01*
X0170005Y0145291D01*
X0169767Y0145209D01*
X0169526Y0145132D01*
X0169284Y0145060D01*
X0169040Y0144995D01*
X0168794Y0144936D01*
X0168547Y0144883D01*
X0168299Y0144836D01*
X0168050Y0144795D01*
X0167800Y0144760D01*
X0167549Y0144731D01*
X0167297Y0144709D01*
X0167045Y0144692D01*
X0166793Y0144682D01*
X0166540Y0144678D01*
X0166288Y0144680D01*
X0166035Y0144688D01*
X0165783Y0144703D01*
X0165531Y0144724D01*
X0165280Y0144750D01*
X0165030Y0144783D01*
X0164780Y0144822D01*
X0164531Y0144867D01*
X0164284Y0144919D01*
X0164038Y0144976D01*
X0163794Y0145039D01*
X0163551Y0145108D01*
X0163310Y0145183D01*
X0163070Y0145264D01*
X0162833Y0145351D01*
X0162598Y0145444D01*
X0162365Y0145542D01*
X0162135Y0145646D01*
X0161908Y0145756D01*
X0161683Y0145871D01*
X0161461Y0145992D01*
X0161242Y0146118D01*
X0161026Y0146249D01*
X0160814Y0146385D01*
X0160605Y0146527D01*
X0160399Y0146674D01*
X0160197Y0146826D01*
X0159999Y0146982D01*
X0159805Y0147144D01*
X0159615Y0147310D01*
X0159429Y0147481D01*
X0159247Y0147656D01*
X0159069Y0147836D01*
X0158896Y0148020D01*
X0158728Y0148208D01*
X0158564Y0148400D01*
X0158405Y0148596D01*
X0158250Y0148796D01*
X0158101Y0149000D01*
X0157957Y0149207D01*
X0157817Y0149418D01*
X0157683Y0149632D01*
X0157555Y0149850D01*
X0157431Y0150070D01*
X0157314Y0150293D01*
X0157201Y0150520D01*
X0157094Y0150748D01*
X0156993Y0150980D01*
X0156898Y0151214D01*
X0156808Y0151450D01*
X0156724Y0151688D01*
X0156646Y0151928D01*
X0156699Y0151945D01*
X0156777Y0151706D01*
X0156860Y0151469D01*
X0156950Y0151234D01*
X0157045Y0151002D01*
X0157145Y0150771D01*
X0157252Y0150544D01*
X0157363Y0150319D01*
X0157481Y0150097D01*
X0157603Y0149877D01*
X0157731Y0149661D01*
X0157865Y0149448D01*
X0158003Y0149239D01*
X0158147Y0149032D01*
X0158295Y0148830D01*
X0158449Y0148631D01*
X0158607Y0148436D01*
X0158770Y0148245D01*
X0158937Y0148058D01*
X0159109Y0147875D01*
X0159286Y0147696D01*
X0159467Y0147522D01*
X0159652Y0147352D01*
X0159841Y0147186D01*
X0160034Y0147026D01*
X0160231Y0146870D01*
X0160432Y0146719D01*
X0160637Y0146573D01*
X0160845Y0146432D01*
X0161056Y0146296D01*
X0161271Y0146166D01*
X0161488Y0146040D01*
X0161709Y0145921D01*
X0161933Y0145806D01*
X0162159Y0145697D01*
X0162388Y0145594D01*
X0162619Y0145496D01*
X0162853Y0145404D01*
X0163089Y0145317D01*
X0163327Y0145237D01*
X0163567Y0145162D01*
X0163808Y0145093D01*
X0164051Y0145030D01*
X0164296Y0144973D01*
X0164542Y0144922D01*
X0164789Y0144878D01*
X0165038Y0144839D01*
X0165287Y0144806D01*
X0165536Y0144779D01*
X0165787Y0144759D01*
X0166038Y0144744D01*
X0166289Y0144736D01*
X0166540Y0144734D01*
X0166791Y0144738D01*
X0167042Y0144748D01*
X0167293Y0144765D01*
X0167543Y0144787D01*
X0167792Y0144816D01*
X0168041Y0144850D01*
X0168289Y0144891D01*
X0168536Y0144938D01*
X0168782Y0144991D01*
X0169026Y0145050D01*
X0169269Y0145114D01*
X0169510Y0145185D01*
X0169749Y0145262D01*
X0169986Y0145344D01*
X0170221Y0145432D01*
X0170454Y0145526D01*
X0170685Y0145626D01*
X0170913Y0145731D01*
X0171139Y0145842D01*
X0171361Y0145958D01*
X0171581Y0146080D01*
X0171798Y0146207D01*
X0172011Y0146339D01*
X0172222Y0146476D01*
X0172429Y0146619D01*
X0172632Y0146766D01*
X0172831Y0146919D01*
X0173143Y0163476D02*
X0172809Y0163052D01*
X0172809Y0163053D02*
X0172610Y0163205D01*
X0172408Y0163352D01*
X0172202Y0163494D01*
X0171992Y0163631D01*
X0171779Y0163763D01*
X0171563Y0163889D01*
X0171344Y0164010D01*
X0171122Y0164126D01*
X0170898Y0164237D01*
X0170670Y0164341D01*
X0170441Y0164441D01*
X0170208Y0164534D01*
X0169974Y0164622D01*
X0169738Y0164704D01*
X0169499Y0164780D01*
X0169259Y0164851D01*
X0169017Y0164916D01*
X0168774Y0164974D01*
X0168529Y0165027D01*
X0168283Y0165073D01*
X0168036Y0165114D01*
X0167788Y0165149D01*
X0167539Y0165177D01*
X0167290Y0165199D01*
X0167040Y0165216D01*
X0166790Y0165226D01*
X0166540Y0165230D01*
X0166289Y0165228D01*
X0166039Y0165220D01*
X0165789Y0165205D01*
X0165540Y0165185D01*
X0165291Y0165158D01*
X0165043Y0165126D01*
X0164795Y0165087D01*
X0164549Y0165042D01*
X0164304Y0164992D01*
X0164060Y0164935D01*
X0163818Y0164872D01*
X0163577Y0164804D01*
X0163338Y0164729D01*
X0163101Y0164649D01*
X0162866Y0164563D01*
X0162633Y0164471D01*
X0162402Y0164374D01*
X0162174Y0164270D01*
X0161949Y0164162D01*
X0161726Y0164048D01*
X0161506Y0163928D01*
X0161289Y0163803D01*
X0161075Y0163673D01*
X0160865Y0163538D01*
X0160657Y0163397D01*
X0160454Y0163252D01*
X0160254Y0163102D01*
X0160057Y0162946D01*
X0159865Y0162786D01*
X0159676Y0162622D01*
X0159492Y0162452D01*
X0159311Y0162279D01*
X0159136Y0162101D01*
X0158964Y0161918D01*
X0158797Y0161732D01*
X0158635Y0161541D01*
X0158477Y0161347D01*
X0158324Y0161149D01*
X0158176Y0160947D01*
X0158033Y0160741D01*
X0157895Y0160532D01*
X0157762Y0160320D01*
X0157635Y0160105D01*
X0157512Y0159886D01*
X0157396Y0159665D01*
X0157284Y0159441D01*
X0157178Y0159214D01*
X0157078Y0158985D01*
X0156983Y0158753D01*
X0156894Y0158519D01*
X0156811Y0158283D01*
X0156734Y0158045D01*
X0156218Y0158203D01*
X0156218Y0158204D01*
X0156299Y0158455D01*
X0156387Y0158703D01*
X0156480Y0158950D01*
X0156580Y0159194D01*
X0156686Y0159435D01*
X0156797Y0159674D01*
X0156914Y0159910D01*
X0157037Y0160143D01*
X0157166Y0160373D01*
X0157300Y0160600D01*
X0157440Y0160823D01*
X0157585Y0161043D01*
X0157736Y0161260D01*
X0157892Y0161472D01*
X0158053Y0161681D01*
X0158219Y0161886D01*
X0158390Y0162086D01*
X0158566Y0162283D01*
X0158746Y0162475D01*
X0158931Y0162662D01*
X0159121Y0162845D01*
X0159315Y0163023D01*
X0159514Y0163197D01*
X0159717Y0163365D01*
X0159923Y0163529D01*
X0160134Y0163687D01*
X0160349Y0163840D01*
X0160567Y0163988D01*
X0160788Y0164131D01*
X0161014Y0164268D01*
X0161242Y0164399D01*
X0161474Y0164525D01*
X0161708Y0164645D01*
X0161946Y0164760D01*
X0162186Y0164868D01*
X0162429Y0164971D01*
X0162674Y0165067D01*
X0162922Y0165158D01*
X0163171Y0165243D01*
X0163423Y0165321D01*
X0163676Y0165393D01*
X0163932Y0165459D01*
X0164188Y0165519D01*
X0164446Y0165572D01*
X0164706Y0165619D01*
X0164966Y0165660D01*
X0165227Y0165695D01*
X0165490Y0165722D01*
X0165752Y0165744D01*
X0166015Y0165759D01*
X0166279Y0165768D01*
X0166542Y0165770D01*
X0166806Y0165766D01*
X0167069Y0165755D01*
X0167332Y0165738D01*
X0167595Y0165714D01*
X0167857Y0165684D01*
X0168118Y0165648D01*
X0168378Y0165605D01*
X0168637Y0165556D01*
X0168895Y0165500D01*
X0169151Y0165439D01*
X0169405Y0165371D01*
X0169658Y0165296D01*
X0169909Y0165216D01*
X0170158Y0165130D01*
X0170405Y0165037D01*
X0170650Y0164938D01*
X0170892Y0164834D01*
X0171131Y0164724D01*
X0171368Y0164607D01*
X0171601Y0164485D01*
X0171832Y0164358D01*
X0172059Y0164224D01*
X0172283Y0164086D01*
X0172504Y0163941D01*
X0172721Y0163792D01*
X0172934Y0163637D01*
X0173144Y0163477D01*
X0173109Y0163433D01*
X0172901Y0163592D01*
X0172688Y0163746D01*
X0172473Y0163895D01*
X0172253Y0164038D01*
X0172030Y0164176D01*
X0171804Y0164309D01*
X0171575Y0164436D01*
X0171342Y0164557D01*
X0171107Y0164673D01*
X0170869Y0164783D01*
X0170628Y0164887D01*
X0170385Y0164985D01*
X0170139Y0165077D01*
X0169892Y0165163D01*
X0169642Y0165243D01*
X0169390Y0165317D01*
X0169137Y0165384D01*
X0168882Y0165446D01*
X0168626Y0165501D01*
X0168368Y0165550D01*
X0168109Y0165592D01*
X0167850Y0165629D01*
X0167589Y0165658D01*
X0167328Y0165682D01*
X0167066Y0165699D01*
X0166804Y0165710D01*
X0166542Y0165714D01*
X0166280Y0165712D01*
X0166018Y0165703D01*
X0165756Y0165688D01*
X0165495Y0165667D01*
X0165234Y0165639D01*
X0164974Y0165605D01*
X0164715Y0165564D01*
X0164457Y0165517D01*
X0164200Y0165464D01*
X0163945Y0165405D01*
X0163691Y0165339D01*
X0163439Y0165267D01*
X0163188Y0165189D01*
X0162940Y0165105D01*
X0162694Y0165015D01*
X0162450Y0164919D01*
X0162208Y0164817D01*
X0161969Y0164709D01*
X0161733Y0164595D01*
X0161500Y0164476D01*
X0161269Y0164350D01*
X0161042Y0164220D01*
X0160818Y0164083D01*
X0160598Y0163942D01*
X0160381Y0163794D01*
X0160167Y0163642D01*
X0159958Y0163485D01*
X0159752Y0163322D01*
X0159550Y0163154D01*
X0159353Y0162982D01*
X0159160Y0162804D01*
X0158971Y0162622D01*
X0158787Y0162436D01*
X0158607Y0162245D01*
X0158432Y0162050D01*
X0158262Y0161850D01*
X0158097Y0161646D01*
X0157937Y0161439D01*
X0157782Y0161227D01*
X0157632Y0161012D01*
X0157487Y0160793D01*
X0157348Y0160571D01*
X0157215Y0160345D01*
X0157087Y0160117D01*
X0156964Y0159885D01*
X0156848Y0159650D01*
X0156737Y0159412D01*
X0156632Y0159172D01*
X0156533Y0158929D01*
X0156439Y0158684D01*
X0156352Y0158437D01*
X0156271Y0158187D01*
X0156325Y0158171D01*
X0156405Y0158419D01*
X0156492Y0158665D01*
X0156585Y0158909D01*
X0156683Y0159150D01*
X0156788Y0159389D01*
X0156898Y0159626D01*
X0157014Y0159859D01*
X0157136Y0160090D01*
X0157263Y0160318D01*
X0157396Y0160542D01*
X0157535Y0160763D01*
X0157678Y0160981D01*
X0157827Y0161195D01*
X0157981Y0161405D01*
X0158141Y0161612D01*
X0158305Y0161814D01*
X0158474Y0162013D01*
X0158648Y0162207D01*
X0158827Y0162397D01*
X0159010Y0162583D01*
X0159198Y0162764D01*
X0159390Y0162940D01*
X0159587Y0163112D01*
X0159787Y0163278D01*
X0159992Y0163440D01*
X0160200Y0163597D01*
X0160413Y0163749D01*
X0160629Y0163895D01*
X0160848Y0164036D01*
X0161071Y0164171D01*
X0161297Y0164302D01*
X0161526Y0164426D01*
X0161758Y0164545D01*
X0161993Y0164658D01*
X0162231Y0164766D01*
X0162471Y0164867D01*
X0162714Y0164963D01*
X0162959Y0165052D01*
X0163206Y0165136D01*
X0163455Y0165214D01*
X0163706Y0165285D01*
X0163958Y0165350D01*
X0164212Y0165410D01*
X0164468Y0165462D01*
X0164724Y0165509D01*
X0164982Y0165549D01*
X0165241Y0165583D01*
X0165500Y0165611D01*
X0165760Y0165632D01*
X0166020Y0165647D01*
X0166281Y0165656D01*
X0166542Y0165658D01*
X0166803Y0165654D01*
X0167063Y0165643D01*
X0167324Y0165626D01*
X0167583Y0165603D01*
X0167843Y0165573D01*
X0168101Y0165537D01*
X0168358Y0165495D01*
X0168614Y0165446D01*
X0168869Y0165391D01*
X0169123Y0165330D01*
X0169375Y0165263D01*
X0169625Y0165189D01*
X0169874Y0165110D01*
X0170120Y0165024D01*
X0170364Y0164933D01*
X0170606Y0164835D01*
X0170846Y0164732D01*
X0171083Y0164623D01*
X0171317Y0164507D01*
X0171548Y0164387D01*
X0171776Y0164260D01*
X0172001Y0164129D01*
X0172223Y0163991D01*
X0172441Y0163848D01*
X0172656Y0163700D01*
X0172867Y0163547D01*
X0173074Y0163389D01*
X0173040Y0163345D01*
X0172833Y0163502D01*
X0172623Y0163655D01*
X0172410Y0163802D01*
X0172193Y0163944D01*
X0171972Y0164081D01*
X0171748Y0164212D01*
X0171521Y0164338D01*
X0171291Y0164458D01*
X0171058Y0164572D01*
X0170823Y0164681D01*
X0170585Y0164784D01*
X0170344Y0164881D01*
X0170101Y0164972D01*
X0169856Y0165057D01*
X0169609Y0165136D01*
X0169360Y0165209D01*
X0169109Y0165276D01*
X0168857Y0165337D01*
X0168603Y0165391D01*
X0168348Y0165440D01*
X0168092Y0165482D01*
X0167835Y0165518D01*
X0167578Y0165547D01*
X0167319Y0165570D01*
X0167060Y0165587D01*
X0166801Y0165598D01*
X0166542Y0165602D01*
X0166282Y0165600D01*
X0166023Y0165591D01*
X0165764Y0165576D01*
X0165505Y0165555D01*
X0165247Y0165528D01*
X0164990Y0165494D01*
X0164734Y0165454D01*
X0164478Y0165407D01*
X0164224Y0165355D01*
X0163972Y0165296D01*
X0163720Y0165231D01*
X0163471Y0165160D01*
X0163223Y0165083D01*
X0162977Y0165000D01*
X0162734Y0164910D01*
X0162492Y0164815D01*
X0162253Y0164714D01*
X0162017Y0164607D01*
X0161783Y0164495D01*
X0161552Y0164377D01*
X0161324Y0164253D01*
X0161099Y0164123D01*
X0160878Y0163988D01*
X0160659Y0163848D01*
X0160445Y0163703D01*
X0160233Y0163552D01*
X0160026Y0163396D01*
X0159823Y0163235D01*
X0159623Y0163069D01*
X0159428Y0162898D01*
X0159237Y0162723D01*
X0159050Y0162543D01*
X0158867Y0162358D01*
X0158690Y0162169D01*
X0158516Y0161976D01*
X0158348Y0161779D01*
X0158185Y0161577D01*
X0158026Y0161372D01*
X0157873Y0161162D01*
X0157725Y0160949D01*
X0157582Y0160733D01*
X0157444Y0160513D01*
X0157312Y0160290D01*
X0157185Y0160063D01*
X0157064Y0159834D01*
X0156949Y0159601D01*
X0156839Y0159366D01*
X0156735Y0159129D01*
X0156637Y0158888D01*
X0156545Y0158646D01*
X0156458Y0158401D01*
X0156378Y0158154D01*
X0156432Y0158138D01*
X0156511Y0158383D01*
X0156597Y0158627D01*
X0156689Y0158868D01*
X0156787Y0159107D01*
X0156890Y0159343D01*
X0156999Y0159577D01*
X0157114Y0159808D01*
X0157234Y0160037D01*
X0157360Y0160262D01*
X0157492Y0160484D01*
X0157629Y0160703D01*
X0157771Y0160918D01*
X0157918Y0161130D01*
X0158071Y0161338D01*
X0158229Y0161542D01*
X0158391Y0161743D01*
X0158559Y0161939D01*
X0158731Y0162132D01*
X0158908Y0162320D01*
X0159089Y0162503D01*
X0159275Y0162682D01*
X0159465Y0162857D01*
X0159659Y0163027D01*
X0159858Y0163192D01*
X0160060Y0163352D01*
X0160267Y0163507D01*
X0160477Y0163657D01*
X0160690Y0163801D01*
X0160907Y0163941D01*
X0161128Y0164075D01*
X0161352Y0164204D01*
X0161578Y0164327D01*
X0161808Y0164445D01*
X0162041Y0164557D01*
X0162276Y0164663D01*
X0162513Y0164763D01*
X0162754Y0164858D01*
X0162996Y0164947D01*
X0163240Y0165030D01*
X0163487Y0165106D01*
X0163735Y0165177D01*
X0163985Y0165242D01*
X0164236Y0165300D01*
X0164489Y0165352D01*
X0164743Y0165399D01*
X0164998Y0165438D01*
X0165254Y0165472D01*
X0165510Y0165499D01*
X0165768Y0165521D01*
X0166025Y0165535D01*
X0166283Y0165544D01*
X0166541Y0165546D01*
X0166799Y0165542D01*
X0167057Y0165531D01*
X0167315Y0165514D01*
X0167572Y0165491D01*
X0167828Y0165462D01*
X0168084Y0165426D01*
X0168339Y0165385D01*
X0168592Y0165336D01*
X0168844Y0165282D01*
X0169095Y0165222D01*
X0169345Y0165155D01*
X0169592Y0165082D01*
X0169838Y0165004D01*
X0170082Y0164919D01*
X0170324Y0164828D01*
X0170563Y0164732D01*
X0170800Y0164630D01*
X0171034Y0164522D01*
X0171266Y0164408D01*
X0171495Y0164288D01*
X0171720Y0164163D01*
X0171943Y0164033D01*
X0172162Y0163897D01*
X0172379Y0163756D01*
X0172591Y0163609D01*
X0172800Y0163458D01*
X0173005Y0163301D01*
X0172970Y0163257D01*
X0172766Y0163413D01*
X0172559Y0163564D01*
X0172347Y0163709D01*
X0172132Y0163850D01*
X0171914Y0163985D01*
X0171693Y0164115D01*
X0171468Y0164239D01*
X0171240Y0164358D01*
X0171010Y0164471D01*
X0170777Y0164579D01*
X0170541Y0164680D01*
X0170303Y0164776D01*
X0170063Y0164866D01*
X0169820Y0164951D01*
X0169576Y0165029D01*
X0169329Y0165101D01*
X0169081Y0165167D01*
X0168832Y0165228D01*
X0168581Y0165282D01*
X0168329Y0165329D01*
X0168075Y0165371D01*
X0167821Y0165406D01*
X0167566Y0165436D01*
X0167310Y0165459D01*
X0167054Y0165475D01*
X0166798Y0165486D01*
X0166541Y0165490D01*
X0166284Y0165488D01*
X0166028Y0165479D01*
X0165772Y0165465D01*
X0165516Y0165444D01*
X0165260Y0165416D01*
X0165006Y0165383D01*
X0164752Y0165343D01*
X0164500Y0165298D01*
X0164248Y0165245D01*
X0163998Y0165187D01*
X0163750Y0165123D01*
X0163503Y0165053D01*
X0163258Y0164976D01*
X0163015Y0164894D01*
X0162774Y0164806D01*
X0162535Y0164712D01*
X0162298Y0164612D01*
X0162064Y0164506D01*
X0161833Y0164395D01*
X0161604Y0164278D01*
X0161379Y0164155D01*
X0161156Y0164027D01*
X0160937Y0163894D01*
X0160721Y0163755D01*
X0160509Y0163611D01*
X0160300Y0163462D01*
X0160095Y0163307D01*
X0159893Y0163148D01*
X0159696Y0162984D01*
X0159502Y0162815D01*
X0159313Y0162641D01*
X0159129Y0162463D01*
X0158948Y0162281D01*
X0158772Y0162094D01*
X0158601Y0161903D01*
X0158434Y0161707D01*
X0158273Y0161508D01*
X0158116Y0161305D01*
X0157964Y0161097D01*
X0157817Y0160887D01*
X0157676Y0160673D01*
X0157540Y0160455D01*
X0157409Y0160234D01*
X0157284Y0160010D01*
X0157164Y0159783D01*
X0157050Y0159553D01*
X0156941Y0159320D01*
X0156838Y0159085D01*
X0156741Y0158848D01*
X0156650Y0158608D01*
X0156565Y0158366D01*
X0156485Y0158121D01*
X0156539Y0158105D01*
X0156618Y0158348D01*
X0156703Y0158589D01*
X0156793Y0158827D01*
X0156890Y0159064D01*
X0156992Y0159298D01*
X0157100Y0159529D01*
X0157214Y0159758D01*
X0157333Y0159983D01*
X0157458Y0160206D01*
X0157588Y0160426D01*
X0157723Y0160642D01*
X0157864Y0160855D01*
X0158010Y0161065D01*
X0158161Y0161271D01*
X0158317Y0161473D01*
X0158477Y0161671D01*
X0158643Y0161866D01*
X0158814Y0162056D01*
X0158988Y0162242D01*
X0159168Y0162424D01*
X0159352Y0162601D01*
X0159540Y0162773D01*
X0159732Y0162941D01*
X0159929Y0163105D01*
X0160129Y0163263D01*
X0160333Y0163416D01*
X0160541Y0163565D01*
X0160752Y0163708D01*
X0160967Y0163846D01*
X0161185Y0163979D01*
X0161406Y0164106D01*
X0161631Y0164228D01*
X0161858Y0164344D01*
X0162088Y0164455D01*
X0162321Y0164560D01*
X0162556Y0164660D01*
X0162793Y0164753D01*
X0163033Y0164841D01*
X0163275Y0164923D01*
X0163519Y0164999D01*
X0163764Y0165069D01*
X0164012Y0165133D01*
X0164260Y0165191D01*
X0164510Y0165243D01*
X0164762Y0165288D01*
X0165014Y0165328D01*
X0165267Y0165361D01*
X0165521Y0165388D01*
X0165775Y0165409D01*
X0166030Y0165423D01*
X0166285Y0165432D01*
X0166541Y0165434D01*
X0166796Y0165430D01*
X0167051Y0165419D01*
X0167306Y0165403D01*
X0167560Y0165380D01*
X0167814Y0165351D01*
X0168067Y0165316D01*
X0168319Y0165274D01*
X0168570Y0165227D01*
X0168819Y0165173D01*
X0169068Y0165113D01*
X0169314Y0165047D01*
X0169559Y0164975D01*
X0169802Y0164898D01*
X0170044Y0164814D01*
X0170283Y0164724D01*
X0170520Y0164629D01*
X0170754Y0164527D01*
X0170986Y0164420D01*
X0171215Y0164308D01*
X0171441Y0164190D01*
X0171665Y0164066D01*
X0171885Y0163937D01*
X0172102Y0163803D01*
X0172316Y0163663D01*
X0172526Y0163518D01*
X0172733Y0163368D01*
X0172936Y0163213D01*
X0172901Y0163169D01*
X0172699Y0163323D01*
X0172494Y0163472D01*
X0172284Y0163616D01*
X0172072Y0163755D01*
X0171856Y0163889D01*
X0171637Y0164017D01*
X0171415Y0164140D01*
X0171190Y0164258D01*
X0170962Y0164370D01*
X0170731Y0164476D01*
X0170498Y0164577D01*
X0170262Y0164672D01*
X0170025Y0164761D01*
X0169785Y0164844D01*
X0169543Y0164922D01*
X0169299Y0164993D01*
X0169054Y0165059D01*
X0168807Y0165118D01*
X0168559Y0165172D01*
X0168309Y0165219D01*
X0168058Y0165260D01*
X0167807Y0165295D01*
X0167555Y0165324D01*
X0167302Y0165347D01*
X0167048Y0165364D01*
X0166794Y0165374D01*
X0166541Y0165378D01*
X0166287Y0165376D01*
X0166033Y0165367D01*
X0165779Y0165353D01*
X0165526Y0165332D01*
X0165274Y0165305D01*
X0165022Y0165272D01*
X0164771Y0165233D01*
X0164521Y0165188D01*
X0164272Y0165136D01*
X0164025Y0165079D01*
X0163779Y0165015D01*
X0163535Y0164945D01*
X0163292Y0164870D01*
X0163052Y0164788D01*
X0162813Y0164701D01*
X0162577Y0164608D01*
X0162343Y0164509D01*
X0162112Y0164405D01*
X0161883Y0164294D01*
X0161657Y0164179D01*
X0161434Y0164057D01*
X0161214Y0163931D01*
X0160997Y0163799D01*
X0160783Y0163661D01*
X0160573Y0163519D01*
X0160366Y0163371D01*
X0160163Y0163219D01*
X0159964Y0163061D01*
X0159769Y0162899D01*
X0159577Y0162732D01*
X0159390Y0162560D01*
X0159207Y0162384D01*
X0159029Y0162203D01*
X0158855Y0162018D01*
X0158685Y0161829D01*
X0158521Y0161636D01*
X0158361Y0161438D01*
X0158206Y0161237D01*
X0158055Y0161033D01*
X0157910Y0160824D01*
X0157770Y0160612D01*
X0157636Y0160397D01*
X0157506Y0160178D01*
X0157382Y0159957D01*
X0157264Y0159732D01*
X0157151Y0159505D01*
X0157043Y0159275D01*
X0156941Y0159042D01*
X0156845Y0158807D01*
X0156755Y0158569D01*
X0156671Y0158330D01*
X0156592Y0158088D01*
X0156646Y0158072D01*
X0156724Y0158312D01*
X0156808Y0158550D01*
X0156898Y0158786D01*
X0156993Y0159020D01*
X0157094Y0159252D01*
X0157201Y0159481D01*
X0157314Y0159707D01*
X0157431Y0159930D01*
X0157555Y0160151D01*
X0157684Y0160368D01*
X0157818Y0160582D01*
X0157957Y0160793D01*
X0158101Y0161000D01*
X0158250Y0161204D01*
X0158405Y0161404D01*
X0158564Y0161600D01*
X0158728Y0161792D01*
X0158896Y0161980D01*
X0159069Y0162164D01*
X0159247Y0162344D01*
X0159429Y0162519D01*
X0159615Y0162690D01*
X0159805Y0162856D01*
X0159999Y0163018D01*
X0160197Y0163174D01*
X0160399Y0163326D01*
X0160605Y0163473D01*
X0160814Y0163615D01*
X0161026Y0163751D01*
X0161242Y0163882D01*
X0161461Y0164008D01*
X0161683Y0164129D01*
X0161908Y0164244D01*
X0162135Y0164354D01*
X0162366Y0164458D01*
X0162598Y0164556D01*
X0162833Y0164649D01*
X0163070Y0164736D01*
X0163310Y0164817D01*
X0163551Y0164892D01*
X0163794Y0164961D01*
X0164038Y0165024D01*
X0164284Y0165081D01*
X0164532Y0165133D01*
X0164780Y0165178D01*
X0165030Y0165217D01*
X0165280Y0165250D01*
X0165531Y0165276D01*
X0165783Y0165297D01*
X0166035Y0165312D01*
X0166288Y0165320D01*
X0166540Y0165322D01*
X0166793Y0165318D01*
X0167045Y0165308D01*
X0167297Y0165291D01*
X0167549Y0165269D01*
X0167800Y0165240D01*
X0168050Y0165205D01*
X0168299Y0165164D01*
X0168547Y0165117D01*
X0168794Y0165064D01*
X0169040Y0165005D01*
X0169284Y0164940D01*
X0169526Y0164868D01*
X0169767Y0164791D01*
X0170005Y0164709D01*
X0170242Y0164620D01*
X0170476Y0164525D01*
X0170708Y0164425D01*
X0170937Y0164319D01*
X0171164Y0164208D01*
X0171388Y0164091D01*
X0171609Y0163969D01*
X0171827Y0163841D01*
X0172042Y0163708D01*
X0172253Y0163570D01*
X0172461Y0163427D01*
X0172666Y0163278D01*
X0172866Y0163125D01*
X0172832Y0163081D01*
X0172632Y0163233D01*
X0172429Y0163381D01*
X0172222Y0163524D01*
X0172012Y0163661D01*
X0171798Y0163793D01*
X0171581Y0163920D01*
X0171361Y0164042D01*
X0171139Y0164158D01*
X0170913Y0164269D01*
X0170685Y0164374D01*
X0170455Y0164474D01*
X0170222Y0164568D01*
X0169986Y0164656D01*
X0169749Y0164738D01*
X0169510Y0164815D01*
X0169269Y0164886D01*
X0169026Y0164950D01*
X0168782Y0165009D01*
X0168536Y0165062D01*
X0168289Y0165109D01*
X0168041Y0165150D01*
X0167793Y0165184D01*
X0167543Y0165213D01*
X0167293Y0165235D01*
X0167042Y0165252D01*
X0166791Y0165262D01*
X0166540Y0165266D01*
X0166289Y0165264D01*
X0166038Y0165256D01*
X0165787Y0165241D01*
X0165537Y0165221D01*
X0165287Y0165194D01*
X0165038Y0165161D01*
X0164789Y0165122D01*
X0164542Y0165078D01*
X0164296Y0165027D01*
X0164052Y0164970D01*
X0163808Y0164907D01*
X0163567Y0164838D01*
X0163327Y0164763D01*
X0163089Y0164683D01*
X0162853Y0164596D01*
X0162619Y0164504D01*
X0162388Y0164406D01*
X0162159Y0164303D01*
X0161933Y0164194D01*
X0161709Y0164080D01*
X0161488Y0163960D01*
X0161271Y0163834D01*
X0161056Y0163704D01*
X0160845Y0163568D01*
X0160637Y0163427D01*
X0160432Y0163281D01*
X0160232Y0163130D01*
X0160034Y0162974D01*
X0159841Y0162814D01*
X0159652Y0162648D01*
X0159467Y0162479D01*
X0159286Y0162304D01*
X0159110Y0162125D01*
X0158937Y0161943D01*
X0158770Y0161755D01*
X0158607Y0161564D01*
X0158449Y0161369D01*
X0158295Y0161170D01*
X0158147Y0160968D01*
X0158003Y0160761D01*
X0157865Y0160552D01*
X0157731Y0160339D01*
X0157603Y0160123D01*
X0157481Y0159903D01*
X0157363Y0159681D01*
X0157252Y0159456D01*
X0157145Y0159229D01*
X0157045Y0158999D01*
X0156950Y0158766D01*
X0156860Y0158531D01*
X0156777Y0158294D01*
X0156699Y0158055D01*
M02*
