G75*
%MOIN*%
%OFA0B0*%
%FSLAX25Y25*%
%IPPOS*%
%LPD*%
%AMOC8*
5,1,8,0,0,1.08239X$1,22.5*
%
%ADD10OC8,0.06300*%
%ADD11C,0.06600*%
%ADD12OC8,0.08500*%
%ADD13OC8,0.05200*%
%ADD14R,0.07000X0.07000*%
%ADD15C,0.07000*%
%ADD16R,0.04331X0.07874*%
%ADD17C,0.01000*%
%ADD18C,0.04000*%
%ADD19C,0.03200*%
%ADD20C,0.01600*%
D10*
X0121500Y0145000D03*
X0121500Y0165000D03*
X0071500Y0170000D03*
X0071500Y0150000D03*
D11*
X0051500Y0145000D03*
X0016500Y0145000D03*
X0016500Y0185000D03*
X0051500Y0185000D03*
X0136500Y0185000D03*
X0176500Y0185000D03*
D12*
X0221500Y0200000D03*
X0246500Y0200000D03*
X0041500Y0200000D03*
X0016500Y0200000D03*
D13*
X0086500Y0170000D03*
X0096500Y0155000D03*
X0086500Y0140000D03*
X0091500Y0135000D03*
X0071500Y0130000D03*
X0041500Y0130000D03*
X0096500Y0185000D03*
X0106500Y0195000D03*
X0136500Y0195000D03*
X0146500Y0160000D03*
X0139000Y0155000D03*
X0146500Y0150000D03*
X0159000Y0155000D03*
X0166500Y0150000D03*
X0166500Y0160000D03*
X0211500Y0130000D03*
X0241500Y0130000D03*
X0121500Y0135000D03*
D14*
X0039453Y0104331D03*
D15*
X0049453Y0104331D03*
X0059453Y0104331D03*
X0069453Y0104331D03*
X0079453Y0104331D03*
X0089453Y0104331D03*
X0099453Y0104331D03*
X0109453Y0104331D03*
X0119453Y0104331D03*
X0129453Y0104331D03*
X0139453Y0104331D03*
X0149453Y0104331D03*
X0159453Y0104331D03*
X0169453Y0104331D03*
X0179453Y0104331D03*
X0189453Y0104331D03*
X0199453Y0104331D03*
X0209453Y0104331D03*
X0219453Y0104331D03*
X0229453Y0104331D03*
X0229453Y0114331D03*
X0219453Y0114331D03*
X0209453Y0114331D03*
X0199453Y0114331D03*
X0189453Y0114331D03*
X0179453Y0114331D03*
X0169453Y0114331D03*
X0159453Y0114331D03*
X0149453Y0114331D03*
X0139453Y0114331D03*
X0129453Y0114331D03*
X0119453Y0114331D03*
X0109453Y0114331D03*
X0099453Y0114331D03*
X0089453Y0114331D03*
X0079453Y0114331D03*
X0069453Y0114331D03*
X0059453Y0114331D03*
X0049453Y0114331D03*
X0039453Y0114331D03*
D16*
X0184807Y0147126D03*
X0198193Y0147126D03*
X0214807Y0147126D03*
X0228193Y0147126D03*
X0228193Y0162874D03*
X0214807Y0162874D03*
X0198193Y0162874D03*
X0184807Y0162874D03*
D17*
X0006000Y0204201D02*
X0006000Y0099500D01*
X0018108Y0099500D01*
X0014664Y0100927D01*
X0011875Y0103715D01*
X0010366Y0107359D01*
X0010366Y0111303D01*
X0011875Y0114946D01*
X0014664Y0117735D01*
X0018308Y0119244D01*
X0022251Y0119244D01*
X0025895Y0117735D01*
X0028684Y0114946D01*
X0030193Y0111303D01*
X0030193Y0107359D01*
X0028684Y0103715D01*
X0025895Y0100927D01*
X0022451Y0099500D01*
X0035162Y0099500D01*
X0034453Y0100209D01*
X0034453Y0108452D01*
X0035331Y0109331D01*
X0043574Y0109331D01*
X0044453Y0108452D01*
X0044453Y0100209D01*
X0043743Y0099500D01*
X0048050Y0099500D01*
X0046620Y0100092D01*
X0045214Y0101498D01*
X0044453Y0103336D01*
X0044453Y0105325D01*
X0045214Y0107163D01*
X0046620Y0108569D01*
X0048458Y0109331D01*
X0050447Y0109331D01*
X0052285Y0110092D01*
X0053692Y0111498D01*
X0054453Y0113336D01*
X0055214Y0111498D01*
X0056620Y0110092D01*
X0058458Y0109331D01*
X0060447Y0109331D01*
X0062285Y0110092D01*
X0063692Y0111498D01*
X0064453Y0113336D01*
X0065214Y0111498D01*
X0066620Y0110092D01*
X0068458Y0109331D01*
X0070447Y0109331D01*
X0072285Y0110092D01*
X0073692Y0111498D01*
X0074453Y0113336D01*
X0075214Y0111498D01*
X0076620Y0110092D01*
X0078458Y0109331D01*
X0080447Y0109331D01*
X0082285Y0110092D01*
X0083692Y0111498D01*
X0084453Y0113336D01*
X0085214Y0111498D01*
X0086620Y0110092D01*
X0088458Y0109331D01*
X0090447Y0109331D01*
X0092285Y0110092D01*
X0093692Y0111498D01*
X0094453Y0113336D01*
X0095214Y0111498D01*
X0096620Y0110092D01*
X0098458Y0109331D01*
X0100447Y0109331D01*
X0102285Y0110092D01*
X0103692Y0111498D01*
X0104453Y0113336D01*
X0105214Y0111498D01*
X0106620Y0110092D01*
X0108458Y0109331D01*
X0110447Y0109331D01*
X0112285Y0110092D01*
X0113692Y0111498D01*
X0114453Y0113336D01*
X0115214Y0111498D01*
X0116620Y0110092D01*
X0118458Y0109331D01*
X0120447Y0109331D01*
X0122285Y0110092D01*
X0123692Y0111498D01*
X0124453Y0113336D01*
X0124453Y0115325D01*
X0123692Y0117163D01*
X0122285Y0118569D01*
X0120447Y0119331D01*
X0118458Y0119331D01*
X0116620Y0118569D01*
X0115214Y0117163D01*
X0114453Y0115325D01*
X0114453Y0113336D01*
X0114453Y0115325D01*
X0113692Y0117163D01*
X0112285Y0118569D01*
X0110447Y0119331D01*
X0108458Y0119331D01*
X0106620Y0118569D01*
X0105214Y0117163D01*
X0104453Y0115325D01*
X0104453Y0113336D01*
X0104453Y0115325D01*
X0103692Y0117163D01*
X0102285Y0118569D01*
X0100447Y0119331D01*
X0098458Y0119331D01*
X0096620Y0118569D01*
X0095214Y0117163D01*
X0094453Y0115325D01*
X0094453Y0113336D01*
X0094453Y0115325D01*
X0093692Y0117163D01*
X0092285Y0118569D01*
X0090447Y0119331D01*
X0088458Y0119331D01*
X0086620Y0118569D01*
X0085214Y0117163D01*
X0084453Y0115325D01*
X0084453Y0113336D01*
X0084453Y0115325D01*
X0083692Y0117163D01*
X0082285Y0118569D01*
X0080447Y0119331D01*
X0078458Y0119331D01*
X0076620Y0118569D01*
X0075214Y0117163D01*
X0074453Y0115325D01*
X0074453Y0113336D01*
X0074453Y0115325D01*
X0073692Y0117163D01*
X0072285Y0118569D01*
X0070447Y0119331D01*
X0068458Y0119331D01*
X0066620Y0118569D01*
X0065214Y0117163D01*
X0064453Y0115325D01*
X0064453Y0113336D01*
X0064453Y0115325D01*
X0063692Y0117163D01*
X0062285Y0118569D01*
X0060447Y0119331D01*
X0058458Y0119331D01*
X0056620Y0118569D01*
X0055214Y0117163D01*
X0055000Y0116646D01*
X0055000Y0126500D01*
X0062196Y0126500D01*
X0063483Y0127033D01*
X0064467Y0128017D01*
X0065000Y0129304D01*
X0065000Y0186500D01*
X0075333Y0186500D01*
X0094201Y0172349D01*
X0094517Y0172033D01*
X0094753Y0171935D01*
X0094957Y0171782D01*
X0095390Y0171671D01*
X0095804Y0171500D01*
X0096059Y0171500D01*
X0096306Y0171437D01*
X0096749Y0171500D01*
X0193400Y0171500D01*
X0193400Y0162257D01*
X0193872Y0161118D01*
X0194528Y0160462D01*
X0194528Y0158316D01*
X0195406Y0157437D01*
X0200980Y0157437D01*
X0201858Y0158316D01*
X0201858Y0167432D01*
X0200980Y0168311D01*
X0199600Y0168311D01*
X0199600Y0171500D01*
X0219064Y0171500D01*
X0224528Y0162203D01*
X0224528Y0158316D01*
X0225406Y0157437D01*
X0230980Y0157437D01*
X0231858Y0158316D01*
X0231858Y0167432D01*
X0230980Y0168311D01*
X0229057Y0168311D01*
X0224208Y0176564D01*
X0224034Y0176983D01*
X0223858Y0177159D01*
X0223732Y0177373D01*
X0223370Y0177647D01*
X0223050Y0177967D01*
X0222819Y0178062D01*
X0222621Y0178213D01*
X0222182Y0178327D01*
X0221763Y0178500D01*
X0221514Y0178500D01*
X0221273Y0178563D01*
X0220824Y0178500D01*
X0097667Y0178500D01*
X0078799Y0192651D01*
X0078483Y0192967D01*
X0078247Y0193065D01*
X0078043Y0193218D01*
X0077610Y0193329D01*
X0077196Y0193500D01*
X0076941Y0193500D01*
X0076694Y0193563D01*
X0076251Y0193500D01*
X0060804Y0193500D01*
X0059517Y0192967D01*
X0058533Y0191983D01*
X0058000Y0190696D01*
X0058000Y0133500D01*
X0050804Y0133500D01*
X0049517Y0132967D01*
X0048533Y0131983D01*
X0048000Y0130696D01*
X0048000Y0119141D01*
X0046620Y0118569D01*
X0045214Y0117163D01*
X0044453Y0115325D01*
X0044453Y0113336D01*
X0045214Y0111498D01*
X0046620Y0110092D01*
X0048458Y0109331D01*
X0050447Y0109331D01*
X0052285Y0108569D01*
X0053692Y0107163D01*
X0054453Y0105325D01*
X0054453Y0103336D01*
X0055214Y0101498D01*
X0056620Y0100092D01*
X0058050Y0099500D01*
X0050856Y0099500D01*
X0052285Y0100092D01*
X0053692Y0101498D01*
X0054453Y0103336D01*
X0054453Y0105325D01*
X0055214Y0107163D01*
X0056620Y0108569D01*
X0058458Y0109331D01*
X0060447Y0109331D01*
X0062285Y0108569D01*
X0063692Y0107163D01*
X0064453Y0105325D01*
X0064453Y0103336D01*
X0065214Y0101498D01*
X0066620Y0100092D01*
X0068050Y0099500D01*
X0060856Y0099500D01*
X0062285Y0100092D01*
X0063692Y0101498D01*
X0064453Y0103336D01*
X0064453Y0105325D01*
X0065214Y0107163D01*
X0066620Y0108569D01*
X0068458Y0109331D01*
X0070447Y0109331D01*
X0072285Y0108569D01*
X0073692Y0107163D01*
X0074453Y0105325D01*
X0074453Y0103336D01*
X0075214Y0101498D01*
X0076620Y0100092D01*
X0078050Y0099500D01*
X0070856Y0099500D01*
X0072285Y0100092D01*
X0073692Y0101498D01*
X0074453Y0103336D01*
X0074453Y0105325D01*
X0075214Y0107163D01*
X0076620Y0108569D01*
X0078458Y0109331D01*
X0080447Y0109331D01*
X0082285Y0108569D01*
X0083692Y0107163D01*
X0084453Y0105325D01*
X0084453Y0103336D01*
X0085214Y0101498D01*
X0086620Y0100092D01*
X0088050Y0099500D01*
X0080856Y0099500D01*
X0082285Y0100092D01*
X0083692Y0101498D01*
X0084453Y0103336D01*
X0084453Y0105325D01*
X0085214Y0107163D01*
X0086620Y0108569D01*
X0088458Y0109331D01*
X0090447Y0109331D01*
X0092285Y0108569D01*
X0093692Y0107163D01*
X0094453Y0105325D01*
X0094453Y0103336D01*
X0095214Y0101498D01*
X0096620Y0100092D01*
X0098050Y0099500D01*
X0090856Y0099500D01*
X0092285Y0100092D01*
X0093692Y0101498D01*
X0094453Y0103336D01*
X0094453Y0105325D01*
X0095214Y0107163D01*
X0096620Y0108569D01*
X0098458Y0109331D01*
X0100447Y0109331D01*
X0102285Y0108569D01*
X0103692Y0107163D01*
X0104453Y0105325D01*
X0104453Y0103336D01*
X0105214Y0101498D01*
X0106620Y0100092D01*
X0108050Y0099500D01*
X0100856Y0099500D01*
X0102285Y0100092D01*
X0103692Y0101498D01*
X0104453Y0103336D01*
X0104453Y0105325D01*
X0105214Y0107163D01*
X0106620Y0108569D01*
X0108458Y0109331D01*
X0110447Y0109331D01*
X0112285Y0108569D01*
X0113692Y0107163D01*
X0114453Y0105325D01*
X0114453Y0103336D01*
X0115214Y0101498D01*
X0116620Y0100092D01*
X0118050Y0099500D01*
X0110856Y0099500D01*
X0112285Y0100092D01*
X0113692Y0101498D01*
X0114453Y0103336D01*
X0114453Y0105325D01*
X0115214Y0107163D01*
X0116620Y0108569D01*
X0118458Y0109331D01*
X0120447Y0109331D01*
X0122285Y0108569D01*
X0123692Y0107163D01*
X0124453Y0105325D01*
X0124453Y0103336D01*
X0125214Y0101498D01*
X0126620Y0100092D01*
X0128050Y0099500D01*
X0120856Y0099500D01*
X0122285Y0100092D01*
X0123692Y0101498D01*
X0124453Y0103336D01*
X0124453Y0105325D01*
X0125214Y0107163D01*
X0126620Y0108569D01*
X0128458Y0109331D01*
X0130447Y0109331D01*
X0132285Y0108569D01*
X0133692Y0107163D01*
X0134453Y0105325D01*
X0134453Y0103336D01*
X0135214Y0101498D01*
X0136620Y0100092D01*
X0138050Y0099500D01*
X0130856Y0099500D01*
X0132285Y0100092D01*
X0133692Y0101498D01*
X0134453Y0103336D01*
X0134453Y0105325D01*
X0135214Y0107163D01*
X0136620Y0108569D01*
X0138458Y0109331D01*
X0140447Y0109331D01*
X0142285Y0110092D01*
X0143692Y0111498D01*
X0144453Y0113336D01*
X0145214Y0111498D01*
X0146620Y0110092D01*
X0148458Y0109331D01*
X0150447Y0109331D01*
X0152285Y0110092D01*
X0153692Y0111498D01*
X0154453Y0113336D01*
X0155214Y0111498D01*
X0156620Y0110092D01*
X0158458Y0109331D01*
X0160447Y0109331D01*
X0162285Y0110092D01*
X0163692Y0111498D01*
X0164453Y0113336D01*
X0165214Y0111498D01*
X0166620Y0110092D01*
X0168458Y0109331D01*
X0170447Y0109331D01*
X0172285Y0110092D01*
X0173692Y0111498D01*
X0174453Y0113336D01*
X0175214Y0111498D01*
X0176620Y0110092D01*
X0178458Y0109331D01*
X0180447Y0109331D01*
X0182285Y0110092D01*
X0183692Y0111498D01*
X0184453Y0113336D01*
X0185214Y0111498D01*
X0186620Y0110092D01*
X0188458Y0109331D01*
X0190447Y0109331D01*
X0192285Y0110092D01*
X0193692Y0111498D01*
X0194453Y0113336D01*
X0194453Y0115325D01*
X0193692Y0117163D01*
X0192285Y0118569D01*
X0190447Y0119331D01*
X0188458Y0119331D01*
X0186620Y0118569D01*
X0185214Y0117163D01*
X0184453Y0115325D01*
X0184453Y0113336D01*
X0184453Y0115325D01*
X0183692Y0117163D01*
X0182285Y0118569D01*
X0180447Y0119331D01*
X0178458Y0119331D01*
X0176620Y0118569D01*
X0175214Y0117163D01*
X0174453Y0115325D01*
X0174453Y0113336D01*
X0174453Y0115325D01*
X0173692Y0117163D01*
X0172285Y0118569D01*
X0170447Y0119331D01*
X0168458Y0119331D01*
X0166620Y0118569D01*
X0165214Y0117163D01*
X0164453Y0115325D01*
X0164453Y0113336D01*
X0164453Y0115325D01*
X0163692Y0117163D01*
X0162285Y0118569D01*
X0160447Y0119331D01*
X0158458Y0119331D01*
X0156620Y0118569D01*
X0155214Y0117163D01*
X0154453Y0115325D01*
X0154453Y0113336D01*
X0154453Y0115325D01*
X0153692Y0117163D01*
X0152285Y0118569D01*
X0150447Y0119331D01*
X0148458Y0119331D01*
X0146620Y0118569D01*
X0145214Y0117163D01*
X0144453Y0115325D01*
X0144453Y0113336D01*
X0144453Y0115325D01*
X0143692Y0117163D01*
X0142285Y0118569D01*
X0140447Y0119331D01*
X0138458Y0119331D01*
X0136620Y0118569D01*
X0135214Y0117163D01*
X0134453Y0115325D01*
X0134453Y0113336D01*
X0135214Y0111498D01*
X0136620Y0110092D01*
X0138458Y0109331D01*
X0140447Y0109331D01*
X0142285Y0108569D01*
X0143692Y0107163D01*
X0144453Y0105325D01*
X0144453Y0103336D01*
X0145214Y0101498D01*
X0146620Y0100092D01*
X0148050Y0099500D01*
X0140856Y0099500D01*
X0142285Y0100092D01*
X0143692Y0101498D01*
X0144453Y0103336D01*
X0144453Y0105325D01*
X0145214Y0107163D01*
X0146620Y0108569D01*
X0148458Y0109331D01*
X0150447Y0109331D01*
X0152285Y0108569D01*
X0153692Y0107163D01*
X0154453Y0105325D01*
X0154453Y0103336D01*
X0155214Y0101498D01*
X0156620Y0100092D01*
X0158050Y0099500D01*
X0150856Y0099500D01*
X0152285Y0100092D01*
X0153692Y0101498D01*
X0154453Y0103336D01*
X0154453Y0105325D01*
X0155214Y0107163D01*
X0156620Y0108569D01*
X0158458Y0109331D01*
X0160447Y0109331D01*
X0162285Y0108569D01*
X0163692Y0107163D01*
X0164453Y0105325D01*
X0164453Y0103336D01*
X0165214Y0101498D01*
X0166620Y0100092D01*
X0168050Y0099500D01*
X0160856Y0099500D01*
X0162285Y0100092D01*
X0163692Y0101498D01*
X0164453Y0103336D01*
X0164453Y0105325D01*
X0165214Y0107163D01*
X0166620Y0108569D01*
X0168458Y0109331D01*
X0170447Y0109331D01*
X0172285Y0108569D01*
X0173692Y0107163D01*
X0174453Y0105325D01*
X0174453Y0103336D01*
X0175214Y0101498D01*
X0176620Y0100092D01*
X0178050Y0099500D01*
X0170856Y0099500D01*
X0172285Y0100092D01*
X0173692Y0101498D01*
X0174453Y0103336D01*
X0174453Y0105325D01*
X0175214Y0107163D01*
X0176620Y0108569D01*
X0178458Y0109331D01*
X0180447Y0109331D01*
X0182285Y0108569D01*
X0183692Y0107163D01*
X0184453Y0105325D01*
X0184453Y0103336D01*
X0185214Y0101498D01*
X0186620Y0100092D01*
X0188050Y0099500D01*
X0180856Y0099500D01*
X0182285Y0100092D01*
X0183692Y0101498D01*
X0184453Y0103336D01*
X0184453Y0105325D01*
X0185214Y0107163D01*
X0186620Y0108569D01*
X0188458Y0109331D01*
X0190447Y0109331D01*
X0192285Y0108569D01*
X0193692Y0107163D01*
X0194453Y0105325D01*
X0194453Y0103336D01*
X0195214Y0101498D01*
X0196620Y0100092D01*
X0198050Y0099500D01*
X0190856Y0099500D01*
X0192285Y0100092D01*
X0193692Y0101498D01*
X0194453Y0103336D01*
X0194453Y0105325D01*
X0195214Y0107163D01*
X0196620Y0108569D01*
X0198458Y0109331D01*
X0200447Y0109331D01*
X0202285Y0108569D01*
X0203692Y0107163D01*
X0204453Y0105325D01*
X0204453Y0103336D01*
X0205214Y0101498D01*
X0206620Y0100092D01*
X0208050Y0099500D01*
X0200856Y0099500D01*
X0202285Y0100092D01*
X0203692Y0101498D01*
X0204453Y0103336D01*
X0204453Y0105325D01*
X0205214Y0107163D01*
X0206620Y0108569D01*
X0208458Y0109331D01*
X0210447Y0109331D01*
X0212285Y0110092D01*
X0213692Y0111498D01*
X0213744Y0111625D01*
X0214467Y0112348D01*
X0214665Y0112825D01*
X0215214Y0111498D01*
X0216620Y0110092D01*
X0218458Y0109331D01*
X0220447Y0109331D01*
X0222285Y0110092D01*
X0223692Y0111498D01*
X0224453Y0113336D01*
X0225214Y0111498D01*
X0226620Y0110092D01*
X0228458Y0109331D01*
X0230447Y0109331D01*
X0232285Y0110092D01*
X0233692Y0111498D01*
X0234453Y0113336D01*
X0234453Y0115325D01*
X0233692Y0117163D01*
X0232285Y0118569D01*
X0230447Y0119331D01*
X0228458Y0119331D01*
X0226620Y0118569D01*
X0225214Y0117163D01*
X0224453Y0115325D01*
X0224453Y0113336D01*
X0224453Y0115325D01*
X0223692Y0117163D01*
X0222285Y0118569D01*
X0220447Y0119331D01*
X0218458Y0119331D01*
X0216620Y0118569D01*
X0215214Y0117163D01*
X0215000Y0116646D01*
X0215000Y0127702D01*
X0215600Y0128302D01*
X0215600Y0131698D01*
X0213198Y0134100D01*
X0209802Y0134100D01*
X0207400Y0131698D01*
X0207400Y0128302D01*
X0208000Y0127702D01*
X0208000Y0119141D01*
X0206620Y0118569D01*
X0205214Y0117163D01*
X0204453Y0115325D01*
X0204453Y0113336D01*
X0205214Y0111498D01*
X0206620Y0110092D01*
X0208458Y0109331D01*
X0210447Y0109331D01*
X0212285Y0108569D01*
X0213692Y0107163D01*
X0214453Y0105325D01*
X0214453Y0103336D01*
X0215214Y0101498D01*
X0216620Y0100092D01*
X0218050Y0099500D01*
X0210856Y0099500D01*
X0212285Y0100092D01*
X0213692Y0101498D01*
X0214453Y0103336D01*
X0214453Y0105325D01*
X0215214Y0107163D01*
X0216620Y0108569D01*
X0218458Y0109331D01*
X0220447Y0109331D01*
X0222285Y0108569D01*
X0223692Y0107163D01*
X0224453Y0105325D01*
X0224453Y0103336D01*
X0223692Y0101498D01*
X0222285Y0100092D01*
X0220856Y0099500D01*
X0228140Y0099500D01*
X0227533Y0099697D01*
X0226832Y0100054D01*
X0226195Y0100517D01*
X0225639Y0101073D01*
X0225176Y0101710D01*
X0224819Y0102411D01*
X0224576Y0103160D01*
X0224467Y0103846D01*
X0228968Y0103846D01*
X0228968Y0104815D01*
X0224467Y0104815D01*
X0224576Y0105502D01*
X0224819Y0106250D01*
X0225176Y0106951D01*
X0225639Y0107588D01*
X0226195Y0108144D01*
X0226832Y0108607D01*
X0227533Y0108964D01*
X0228282Y0109208D01*
X0228968Y0109316D01*
X0228968Y0104815D01*
X0229937Y0104815D01*
X0229937Y0109316D01*
X0230624Y0109208D01*
X0231372Y0108964D01*
X0232073Y0108607D01*
X0232710Y0108144D01*
X0233267Y0107588D01*
X0233729Y0106951D01*
X0234086Y0106250D01*
X0234330Y0105502D01*
X0234438Y0104815D01*
X0229937Y0104815D01*
X0229937Y0103846D01*
X0234438Y0103846D01*
X0234330Y0103160D01*
X0234086Y0102411D01*
X0233729Y0101710D01*
X0233267Y0101073D01*
X0232710Y0100517D01*
X0232073Y0100054D01*
X0231372Y0099697D01*
X0230766Y0099500D01*
X0246455Y0099500D01*
X0243010Y0100927D01*
X0240222Y0103715D01*
X0238713Y0107359D01*
X0238713Y0111303D01*
X0240222Y0114946D01*
X0243010Y0117735D01*
X0246654Y0119244D01*
X0250598Y0119244D01*
X0254241Y0117735D01*
X0257030Y0114946D01*
X0258539Y0111303D01*
X0258539Y0107359D01*
X0257030Y0103715D01*
X0254241Y0100927D01*
X0250797Y0099500D01*
X0261921Y0099500D01*
X0261921Y0204201D01*
X0250431Y0204201D01*
X0252250Y0202382D01*
X0252250Y0197618D01*
X0248882Y0194250D01*
X0244118Y0194250D01*
X0240750Y0197618D01*
X0240750Y0202382D01*
X0242569Y0204201D01*
X0225431Y0204201D01*
X0227250Y0202382D01*
X0227250Y0197618D01*
X0223882Y0194250D01*
X0219118Y0194250D01*
X0215750Y0197618D01*
X0215750Y0202382D01*
X0217569Y0204201D01*
X0045431Y0204201D01*
X0047250Y0202382D01*
X0047250Y0200500D01*
X0042000Y0200500D01*
X0042000Y0199500D01*
X0047250Y0199500D01*
X0047250Y0197618D01*
X0043882Y0194250D01*
X0042000Y0194250D01*
X0042000Y0199500D01*
X0041000Y0199500D01*
X0035750Y0199500D01*
X0035750Y0197618D01*
X0039118Y0194250D01*
X0041000Y0194250D01*
X0041000Y0199500D01*
X0041000Y0200500D01*
X0035750Y0200500D01*
X0035750Y0202382D01*
X0037569Y0204201D01*
X0020431Y0204201D01*
X0022250Y0202382D01*
X0022250Y0197618D01*
X0018882Y0194250D01*
X0014118Y0194250D01*
X0010750Y0197618D01*
X0010750Y0202382D01*
X0012569Y0204201D01*
X0006000Y0204201D01*
X0006000Y0203838D02*
X0012206Y0203838D01*
X0011208Y0202839D02*
X0006000Y0202839D01*
X0006000Y0201841D02*
X0010750Y0201841D01*
X0010750Y0200842D02*
X0006000Y0200842D01*
X0006000Y0199844D02*
X0010750Y0199844D01*
X0010750Y0198845D02*
X0006000Y0198845D01*
X0006000Y0197847D02*
X0010750Y0197847D01*
X0011520Y0196848D02*
X0006000Y0196848D01*
X0006000Y0195850D02*
X0012519Y0195850D01*
X0013517Y0194851D02*
X0006000Y0194851D01*
X0006000Y0193853D02*
X0102400Y0193853D01*
X0102400Y0193302D02*
X0104802Y0190900D01*
X0108198Y0190900D01*
X0110600Y0193302D01*
X0110600Y0196698D01*
X0108198Y0199100D01*
X0104802Y0199100D01*
X0102400Y0196698D01*
X0102400Y0193302D01*
X0102848Y0192854D02*
X0078596Y0192854D01*
X0079859Y0191856D02*
X0103846Y0191856D01*
X0102400Y0194851D02*
X0044483Y0194851D01*
X0045481Y0195850D02*
X0102400Y0195850D01*
X0102550Y0196848D02*
X0046480Y0196848D01*
X0047250Y0197847D02*
X0103548Y0197847D01*
X0104547Y0198845D02*
X0047250Y0198845D01*
X0047250Y0200842D02*
X0215750Y0200842D01*
X0215750Y0199844D02*
X0042000Y0199844D01*
X0042000Y0198845D02*
X0041000Y0198845D01*
X0041000Y0197847D02*
X0042000Y0197847D01*
X0042000Y0196848D02*
X0041000Y0196848D01*
X0041000Y0195850D02*
X0042000Y0195850D01*
X0042000Y0194851D02*
X0041000Y0194851D01*
X0038517Y0194851D02*
X0019483Y0194851D01*
X0020481Y0195850D02*
X0037519Y0195850D01*
X0036520Y0196848D02*
X0021480Y0196848D01*
X0022250Y0197847D02*
X0035750Y0197847D01*
X0035750Y0198845D02*
X0022250Y0198845D01*
X0022250Y0199844D02*
X0041000Y0199844D01*
X0035750Y0200842D02*
X0022250Y0200842D01*
X0022250Y0201841D02*
X0035750Y0201841D01*
X0036208Y0202839D02*
X0021792Y0202839D01*
X0020794Y0203838D02*
X0037206Y0203838D01*
X0045794Y0203838D02*
X0217206Y0203838D01*
X0216208Y0202839D02*
X0046792Y0202839D01*
X0047250Y0201841D02*
X0215750Y0201841D01*
X0215750Y0198845D02*
X0138453Y0198845D01*
X0138198Y0199100D02*
X0134802Y0199100D01*
X0132400Y0196698D01*
X0132400Y0193302D01*
X0134802Y0190900D01*
X0138198Y0190900D01*
X0140600Y0193302D01*
X0140600Y0196698D01*
X0138198Y0199100D01*
X0139452Y0197847D02*
X0215750Y0197847D01*
X0216520Y0196848D02*
X0140450Y0196848D01*
X0140600Y0195850D02*
X0217519Y0195850D01*
X0218517Y0194851D02*
X0140600Y0194851D01*
X0140600Y0193853D02*
X0261921Y0193853D01*
X0261921Y0194851D02*
X0249483Y0194851D01*
X0250481Y0195850D02*
X0261921Y0195850D01*
X0261921Y0196848D02*
X0251480Y0196848D01*
X0252250Y0197847D02*
X0261921Y0197847D01*
X0261921Y0198845D02*
X0252250Y0198845D01*
X0252250Y0199844D02*
X0261921Y0199844D01*
X0261921Y0200842D02*
X0252250Y0200842D01*
X0252250Y0201841D02*
X0261921Y0201841D01*
X0261921Y0202839D02*
X0251792Y0202839D01*
X0250794Y0203838D02*
X0261921Y0203838D01*
X0261921Y0192854D02*
X0140152Y0192854D01*
X0139154Y0191856D02*
X0261921Y0191856D01*
X0261921Y0190857D02*
X0081191Y0190857D01*
X0082522Y0189859D02*
X0261921Y0189859D01*
X0261921Y0188860D02*
X0179428Y0188860D01*
X0179219Y0189069D02*
X0177455Y0189800D01*
X0175545Y0189800D01*
X0173781Y0189069D01*
X0172431Y0187719D01*
X0171700Y0185955D01*
X0171700Y0184045D01*
X0172431Y0182281D01*
X0173781Y0180931D01*
X0175545Y0180200D01*
X0177455Y0180200D01*
X0179219Y0180931D01*
X0180569Y0182281D01*
X0181300Y0184045D01*
X0181300Y0185955D01*
X0180569Y0187719D01*
X0179219Y0189069D01*
X0180427Y0187862D02*
X0261921Y0187862D01*
X0261921Y0186863D02*
X0180924Y0186863D01*
X0181300Y0185865D02*
X0261921Y0185865D01*
X0261921Y0184866D02*
X0181300Y0184866D01*
X0181226Y0183868D02*
X0261921Y0183868D01*
X0261921Y0182869D02*
X0180813Y0182869D01*
X0180159Y0181870D02*
X0261921Y0181870D01*
X0261921Y0180872D02*
X0179077Y0180872D01*
X0173923Y0180872D02*
X0139077Y0180872D01*
X0139219Y0180931D02*
X0140569Y0182281D01*
X0141300Y0184045D01*
X0141300Y0185955D01*
X0140569Y0187719D01*
X0139219Y0189069D01*
X0137455Y0189800D01*
X0135545Y0189800D01*
X0133781Y0189069D01*
X0132431Y0187719D01*
X0131700Y0185955D01*
X0131700Y0184045D01*
X0132431Y0182281D01*
X0133781Y0180931D01*
X0135545Y0180200D01*
X0137455Y0180200D01*
X0139219Y0180931D01*
X0140159Y0181870D02*
X0172841Y0181870D01*
X0172187Y0182869D02*
X0140813Y0182869D01*
X0141226Y0183868D02*
X0171774Y0183868D01*
X0171700Y0184866D02*
X0141300Y0184866D01*
X0141300Y0185865D02*
X0171700Y0185865D01*
X0172076Y0186863D02*
X0140924Y0186863D01*
X0140427Y0187862D02*
X0172573Y0187862D01*
X0173572Y0188860D02*
X0139428Y0188860D01*
X0133572Y0188860D02*
X0098438Y0188860D01*
X0098198Y0189100D02*
X0096800Y0189100D01*
X0096800Y0185300D01*
X0096200Y0185300D01*
X0096200Y0189100D01*
X0094802Y0189100D01*
X0092400Y0186698D01*
X0092400Y0185300D01*
X0096200Y0185300D01*
X0096200Y0184700D01*
X0092400Y0184700D01*
X0092400Y0183302D01*
X0094802Y0180900D01*
X0096200Y0180900D01*
X0096200Y0184700D01*
X0096800Y0184700D01*
X0096800Y0185300D01*
X0100600Y0185300D01*
X0100600Y0186698D01*
X0098198Y0189100D01*
X0096800Y0188860D02*
X0096200Y0188860D01*
X0096200Y0187862D02*
X0096800Y0187862D01*
X0096800Y0186863D02*
X0096200Y0186863D01*
X0096200Y0185865D02*
X0096800Y0185865D01*
X0096800Y0184866D02*
X0131700Y0184866D01*
X0131700Y0185865D02*
X0100600Y0185865D01*
X0100435Y0186863D02*
X0132076Y0186863D01*
X0132573Y0187862D02*
X0099437Y0187862D01*
X0100600Y0184700D02*
X0096800Y0184700D01*
X0096800Y0180900D01*
X0098198Y0180900D01*
X0100600Y0183302D01*
X0100600Y0184700D01*
X0100600Y0183868D02*
X0131774Y0183868D01*
X0132187Y0182869D02*
X0100167Y0182869D01*
X0099169Y0181870D02*
X0132841Y0181870D01*
X0133923Y0180872D02*
X0094504Y0180872D01*
X0093831Y0181870D02*
X0093173Y0181870D01*
X0092833Y0182869D02*
X0091841Y0182869D01*
X0092400Y0183868D02*
X0090510Y0183868D01*
X0089179Y0184866D02*
X0096200Y0184866D01*
X0096200Y0183868D02*
X0096800Y0183868D01*
X0096800Y0182869D02*
X0096200Y0182869D01*
X0096200Y0181870D02*
X0096800Y0181870D01*
X0095835Y0179873D02*
X0261921Y0179873D01*
X0261921Y0178875D02*
X0097167Y0178875D01*
X0092157Y0173882D02*
X0088416Y0173882D01*
X0088198Y0174100D02*
X0086800Y0174100D01*
X0086800Y0170300D01*
X0086200Y0170300D01*
X0086200Y0174100D01*
X0084802Y0174100D01*
X0082400Y0171698D01*
X0082400Y0170300D01*
X0086200Y0170300D01*
X0086200Y0169700D01*
X0082400Y0169700D01*
X0082400Y0168302D01*
X0084802Y0165900D01*
X0086200Y0165900D01*
X0086200Y0169700D01*
X0086800Y0169700D01*
X0086800Y0170300D01*
X0090600Y0170300D01*
X0090600Y0171698D01*
X0088198Y0174100D01*
X0086800Y0173882D02*
X0086200Y0173882D01*
X0086200Y0172884D02*
X0086800Y0172884D01*
X0086800Y0171885D02*
X0086200Y0171885D01*
X0086200Y0170887D02*
X0086800Y0170887D01*
X0086800Y0169888D02*
X0193400Y0169888D01*
X0193400Y0168890D02*
X0124186Y0168890D01*
X0123426Y0169650D02*
X0121800Y0169650D01*
X0121800Y0165300D01*
X0121200Y0165300D01*
X0121200Y0169650D01*
X0119574Y0169650D01*
X0116850Y0166926D01*
X0116850Y0165300D01*
X0121200Y0165300D01*
X0121200Y0164700D01*
X0116850Y0164700D01*
X0116850Y0163074D01*
X0119574Y0160350D01*
X0121200Y0160350D01*
X0121200Y0164700D01*
X0121800Y0164700D01*
X0121800Y0165300D01*
X0126150Y0165300D01*
X0126150Y0166926D01*
X0123426Y0169650D01*
X0121800Y0168890D02*
X0121200Y0168890D01*
X0121200Y0167891D02*
X0121800Y0167891D01*
X0121800Y0166893D02*
X0121200Y0166893D01*
X0121200Y0165894D02*
X0121800Y0165894D01*
X0121800Y0164896D02*
X0181142Y0164896D01*
X0181142Y0165894D02*
X0126150Y0165894D01*
X0126150Y0166893D02*
X0181142Y0166893D01*
X0181142Y0167432D02*
X0181142Y0158316D01*
X0182020Y0157437D01*
X0187594Y0157437D01*
X0188472Y0158316D01*
X0188472Y0167432D01*
X0187594Y0168311D01*
X0182020Y0168311D01*
X0181142Y0167432D01*
X0181601Y0167891D02*
X0125185Y0167891D01*
X0126150Y0164700D02*
X0121800Y0164700D01*
X0121800Y0160350D01*
X0123426Y0160350D01*
X0126150Y0163074D01*
X0126150Y0164700D01*
X0126150Y0163897D02*
X0144599Y0163897D01*
X0144802Y0164100D02*
X0142400Y0161698D01*
X0142400Y0158302D01*
X0144802Y0155900D01*
X0148198Y0155900D01*
X0150600Y0158302D01*
X0150600Y0161698D01*
X0148198Y0164100D01*
X0144802Y0164100D01*
X0143601Y0162899D02*
X0125975Y0162899D01*
X0124976Y0161900D02*
X0142602Y0161900D01*
X0142400Y0160902D02*
X0123978Y0160902D01*
X0121800Y0160902D02*
X0121200Y0160902D01*
X0121200Y0161900D02*
X0121800Y0161900D01*
X0121800Y0162899D02*
X0121200Y0162899D01*
X0121200Y0163897D02*
X0121800Y0163897D01*
X0121200Y0164896D02*
X0065000Y0164896D01*
X0065000Y0165894D02*
X0069030Y0165894D01*
X0069574Y0165350D02*
X0073426Y0165350D01*
X0076150Y0168074D01*
X0076150Y0171926D01*
X0073426Y0174650D01*
X0069574Y0174650D01*
X0066850Y0171926D01*
X0066850Y0168074D01*
X0069574Y0165350D01*
X0068031Y0166893D02*
X0065000Y0166893D01*
X0065000Y0167891D02*
X0067033Y0167891D01*
X0066850Y0168890D02*
X0065000Y0168890D01*
X0065000Y0169888D02*
X0066850Y0169888D01*
X0066850Y0170887D02*
X0065000Y0170887D01*
X0065000Y0171885D02*
X0066850Y0171885D01*
X0067808Y0172884D02*
X0065000Y0172884D01*
X0065000Y0173882D02*
X0068806Y0173882D01*
X0065000Y0174881D02*
X0090825Y0174881D01*
X0089494Y0175879D02*
X0065000Y0175879D01*
X0065000Y0176878D02*
X0088163Y0176878D01*
X0086831Y0177876D02*
X0065000Y0177876D01*
X0065000Y0178875D02*
X0085500Y0178875D01*
X0084169Y0179873D02*
X0065000Y0179873D01*
X0065000Y0180872D02*
X0082837Y0180872D01*
X0081506Y0181870D02*
X0065000Y0181870D01*
X0065000Y0182869D02*
X0080175Y0182869D01*
X0078843Y0183868D02*
X0065000Y0183868D01*
X0065000Y0184866D02*
X0077512Y0184866D01*
X0076181Y0185865D02*
X0065000Y0185865D01*
X0058000Y0185865D02*
X0056223Y0185865D01*
X0056182Y0186124D02*
X0055948Y0186843D01*
X0055605Y0187516D01*
X0055161Y0188127D01*
X0054627Y0188661D01*
X0054016Y0189105D01*
X0053343Y0189448D01*
X0052624Y0189682D01*
X0052000Y0189781D01*
X0052000Y0185500D01*
X0051000Y0185500D01*
X0051000Y0189781D01*
X0050376Y0189682D01*
X0049657Y0189448D01*
X0048984Y0189105D01*
X0048373Y0188661D01*
X0047839Y0188127D01*
X0047395Y0187516D01*
X0047052Y0186843D01*
X0046818Y0186124D01*
X0046719Y0185500D01*
X0051000Y0185500D01*
X0051000Y0184500D01*
X0046719Y0184500D01*
X0046818Y0183876D01*
X0047052Y0183157D01*
X0047395Y0182484D01*
X0047839Y0181873D01*
X0048373Y0181339D01*
X0048984Y0180895D01*
X0049657Y0180552D01*
X0050376Y0180318D01*
X0051000Y0180219D01*
X0051000Y0184500D01*
X0052000Y0184500D01*
X0052000Y0185500D01*
X0056281Y0185500D01*
X0056182Y0186124D01*
X0055938Y0186863D02*
X0058000Y0186863D01*
X0058000Y0187862D02*
X0055354Y0187862D01*
X0054353Y0188860D02*
X0058000Y0188860D01*
X0058000Y0189859D02*
X0006000Y0189859D01*
X0006000Y0190857D02*
X0058067Y0190857D01*
X0058480Y0191856D02*
X0006000Y0191856D01*
X0006000Y0192854D02*
X0059404Y0192854D01*
X0052000Y0188860D02*
X0051000Y0188860D01*
X0051000Y0187862D02*
X0052000Y0187862D01*
X0052000Y0186863D02*
X0051000Y0186863D01*
X0051000Y0185865D02*
X0052000Y0185865D01*
X0052000Y0184866D02*
X0058000Y0184866D01*
X0058000Y0183868D02*
X0056179Y0183868D01*
X0056182Y0183876D02*
X0056281Y0184500D01*
X0052000Y0184500D01*
X0052000Y0180219D01*
X0052624Y0180318D01*
X0053343Y0180552D01*
X0054016Y0180895D01*
X0054627Y0181339D01*
X0055161Y0181873D01*
X0055605Y0182484D01*
X0055948Y0183157D01*
X0056182Y0183876D01*
X0055801Y0182869D02*
X0058000Y0182869D01*
X0058000Y0181870D02*
X0055159Y0181870D01*
X0053971Y0180872D02*
X0058000Y0180872D01*
X0058000Y0179873D02*
X0006000Y0179873D01*
X0006000Y0178875D02*
X0058000Y0178875D01*
X0058000Y0177876D02*
X0006000Y0177876D01*
X0006000Y0176878D02*
X0058000Y0176878D01*
X0058000Y0175879D02*
X0006000Y0175879D01*
X0006000Y0174881D02*
X0058000Y0174881D01*
X0058000Y0173882D02*
X0006000Y0173882D01*
X0006000Y0172884D02*
X0058000Y0172884D01*
X0058000Y0171885D02*
X0006000Y0171885D01*
X0006000Y0170887D02*
X0058000Y0170887D01*
X0058000Y0169888D02*
X0006000Y0169888D01*
X0006000Y0168890D02*
X0058000Y0168890D01*
X0058000Y0167891D02*
X0006000Y0167891D01*
X0006000Y0166893D02*
X0058000Y0166893D01*
X0058000Y0165894D02*
X0006000Y0165894D01*
X0006000Y0164896D02*
X0058000Y0164896D01*
X0058000Y0163897D02*
X0006000Y0163897D01*
X0006000Y0162899D02*
X0058000Y0162899D01*
X0058000Y0161900D02*
X0006000Y0161900D01*
X0006000Y0160902D02*
X0058000Y0160902D01*
X0058000Y0159903D02*
X0006000Y0159903D01*
X0006000Y0158905D02*
X0058000Y0158905D01*
X0058000Y0157906D02*
X0006000Y0157906D01*
X0006000Y0156908D02*
X0058000Y0156908D01*
X0058000Y0155909D02*
X0006000Y0155909D01*
X0006000Y0154911D02*
X0058000Y0154911D01*
X0058000Y0153912D02*
X0006000Y0153912D01*
X0006000Y0152914D02*
X0058000Y0152914D01*
X0058000Y0151915D02*
X0006000Y0151915D01*
X0006000Y0150917D02*
X0058000Y0150917D01*
X0058000Y0149918D02*
X0006000Y0149918D01*
X0006000Y0148920D02*
X0013631Y0148920D01*
X0013781Y0149069D02*
X0012431Y0147719D01*
X0011700Y0145955D01*
X0011700Y0144045D01*
X0012431Y0142281D01*
X0013781Y0140931D01*
X0015545Y0140200D01*
X0017455Y0140200D01*
X0019219Y0140931D01*
X0020569Y0142281D01*
X0021300Y0144045D01*
X0021300Y0145955D01*
X0020569Y0147719D01*
X0019219Y0149069D01*
X0017455Y0149800D01*
X0015545Y0149800D01*
X0013781Y0149069D01*
X0012633Y0147921D02*
X0006000Y0147921D01*
X0006000Y0146923D02*
X0012101Y0146923D01*
X0011700Y0145924D02*
X0006000Y0145924D01*
X0006000Y0144926D02*
X0011700Y0144926D01*
X0011749Y0143927D02*
X0006000Y0143927D01*
X0006000Y0142929D02*
X0012163Y0142929D01*
X0012782Y0141930D02*
X0006000Y0141930D01*
X0006000Y0140932D02*
X0013780Y0140932D01*
X0019220Y0140932D02*
X0048780Y0140932D01*
X0048781Y0140931D02*
X0050545Y0140200D01*
X0052455Y0140200D01*
X0054219Y0140931D01*
X0055569Y0142281D01*
X0056300Y0144045D01*
X0056300Y0145955D01*
X0055569Y0147719D01*
X0054219Y0149069D01*
X0052455Y0149800D01*
X0050545Y0149800D01*
X0048781Y0149069D01*
X0047431Y0147719D01*
X0046700Y0145955D01*
X0046700Y0144045D01*
X0047431Y0142281D01*
X0048781Y0140931D01*
X0047782Y0141930D02*
X0020218Y0141930D01*
X0020837Y0142929D02*
X0047163Y0142929D01*
X0046749Y0143927D02*
X0021251Y0143927D01*
X0021300Y0144926D02*
X0046700Y0144926D01*
X0046700Y0145924D02*
X0021300Y0145924D01*
X0020899Y0146923D02*
X0047101Y0146923D01*
X0047633Y0147921D02*
X0020367Y0147921D01*
X0019369Y0148920D02*
X0048631Y0148920D01*
X0054369Y0148920D02*
X0058000Y0148920D01*
X0058000Y0147921D02*
X0055367Y0147921D01*
X0055899Y0146923D02*
X0058000Y0146923D01*
X0058000Y0145924D02*
X0056300Y0145924D01*
X0056300Y0144926D02*
X0058000Y0144926D01*
X0058000Y0143927D02*
X0056251Y0143927D01*
X0055837Y0142929D02*
X0058000Y0142929D01*
X0058000Y0141930D02*
X0055218Y0141930D01*
X0054220Y0140932D02*
X0058000Y0140932D01*
X0058000Y0139933D02*
X0006000Y0139933D01*
X0006000Y0138934D02*
X0058000Y0138934D01*
X0058000Y0137936D02*
X0006000Y0137936D01*
X0006000Y0136937D02*
X0058000Y0136937D01*
X0058000Y0135939D02*
X0006000Y0135939D01*
X0006000Y0134940D02*
X0058000Y0134940D01*
X0058000Y0133942D02*
X0043356Y0133942D01*
X0043198Y0134100D02*
X0039802Y0134100D01*
X0037400Y0131698D01*
X0037400Y0128302D01*
X0039802Y0125900D01*
X0043198Y0125900D01*
X0045600Y0128302D01*
X0045600Y0131698D01*
X0043198Y0134100D01*
X0044355Y0132943D02*
X0049494Y0132943D01*
X0048517Y0131945D02*
X0045353Y0131945D01*
X0045600Y0130946D02*
X0048104Y0130946D01*
X0048000Y0129948D02*
X0045600Y0129948D01*
X0045600Y0128949D02*
X0048000Y0128949D01*
X0048000Y0127951D02*
X0045249Y0127951D01*
X0044251Y0126952D02*
X0048000Y0126952D01*
X0048000Y0125954D02*
X0043252Y0125954D01*
X0048000Y0124955D02*
X0006000Y0124955D01*
X0006000Y0123957D02*
X0048000Y0123957D01*
X0048000Y0122958D02*
X0006000Y0122958D01*
X0006000Y0121960D02*
X0048000Y0121960D01*
X0048000Y0120961D02*
X0006000Y0120961D01*
X0006000Y0119963D02*
X0048000Y0119963D01*
X0047574Y0118964D02*
X0041332Y0118964D01*
X0040447Y0119331D02*
X0038458Y0119331D01*
X0036620Y0118569D01*
X0035214Y0117163D01*
X0034453Y0115325D01*
X0034453Y0113336D01*
X0035214Y0111498D01*
X0036620Y0110092D01*
X0038458Y0109331D01*
X0040447Y0109331D01*
X0042285Y0110092D01*
X0043692Y0111498D01*
X0044453Y0113336D01*
X0044453Y0115325D01*
X0043692Y0117163D01*
X0042285Y0118569D01*
X0040447Y0119331D01*
X0042889Y0117966D02*
X0046017Y0117966D01*
X0045133Y0116967D02*
X0043773Y0116967D01*
X0044186Y0115969D02*
X0044719Y0115969D01*
X0044453Y0114970D02*
X0044453Y0114970D01*
X0044453Y0113972D02*
X0044453Y0113972D01*
X0044302Y0112973D02*
X0044603Y0112973D01*
X0045017Y0111975D02*
X0043889Y0111975D01*
X0043169Y0110976D02*
X0045736Y0110976D01*
X0046896Y0109978D02*
X0042009Y0109978D01*
X0043926Y0108979D02*
X0047610Y0108979D01*
X0046032Y0107981D02*
X0044453Y0107981D01*
X0044453Y0106982D02*
X0045139Y0106982D01*
X0044725Y0105984D02*
X0044453Y0105984D01*
X0044453Y0104985D02*
X0044453Y0104985D01*
X0044453Y0103987D02*
X0044453Y0103987D01*
X0044453Y0102988D02*
X0044597Y0102988D01*
X0044453Y0101990D02*
X0045011Y0101990D01*
X0044453Y0100991D02*
X0045721Y0100991D01*
X0046860Y0099993D02*
X0044236Y0099993D01*
X0052045Y0099993D02*
X0056860Y0099993D01*
X0055721Y0100991D02*
X0053184Y0100991D01*
X0053895Y0101990D02*
X0055011Y0101990D01*
X0054597Y0102988D02*
X0054309Y0102988D01*
X0054453Y0103987D02*
X0054453Y0103987D01*
X0054453Y0104985D02*
X0054453Y0104985D01*
X0054180Y0105984D02*
X0054725Y0105984D01*
X0055139Y0106982D02*
X0053766Y0106982D01*
X0052874Y0107981D02*
X0056032Y0107981D01*
X0057610Y0108979D02*
X0051296Y0108979D01*
X0052009Y0109978D02*
X0056896Y0109978D01*
X0055736Y0110976D02*
X0053169Y0110976D01*
X0053889Y0111975D02*
X0055017Y0111975D01*
X0054603Y0112973D02*
X0054302Y0112973D01*
X0054453Y0113336D02*
X0054453Y0114381D01*
X0054453Y0113336D01*
X0054453Y0113972D02*
X0054453Y0113972D01*
X0054453Y0114381D02*
X0054453Y0114381D01*
X0055000Y0116967D02*
X0055133Y0116967D01*
X0055000Y0117966D02*
X0056017Y0117966D01*
X0055000Y0118964D02*
X0057574Y0118964D01*
X0055000Y0119963D02*
X0208000Y0119963D01*
X0208000Y0120961D02*
X0055000Y0120961D01*
X0055000Y0121960D02*
X0208000Y0121960D01*
X0208000Y0122958D02*
X0055000Y0122958D01*
X0055000Y0123957D02*
X0208000Y0123957D01*
X0208000Y0124955D02*
X0055000Y0124955D01*
X0055000Y0125954D02*
X0069748Y0125954D01*
X0069802Y0125900D02*
X0073198Y0125900D01*
X0075600Y0128302D01*
X0075600Y0131698D01*
X0073198Y0134100D01*
X0069802Y0134100D01*
X0067400Y0131698D01*
X0067400Y0128302D01*
X0069802Y0125900D01*
X0068749Y0126952D02*
X0063288Y0126952D01*
X0064401Y0127951D02*
X0067751Y0127951D01*
X0067400Y0128949D02*
X0064853Y0128949D01*
X0065000Y0129948D02*
X0067400Y0129948D01*
X0067400Y0130946D02*
X0065000Y0130946D01*
X0065000Y0131945D02*
X0067647Y0131945D01*
X0068645Y0132943D02*
X0065000Y0132943D01*
X0065000Y0133942D02*
X0069644Y0133942D01*
X0065000Y0134940D02*
X0087400Y0134940D01*
X0087400Y0135900D02*
X0087400Y0133302D01*
X0089802Y0130900D01*
X0093198Y0130900D01*
X0095600Y0133302D01*
X0095600Y0136698D01*
X0093198Y0139100D01*
X0090600Y0139100D01*
X0090600Y0141698D01*
X0088198Y0144100D01*
X0084802Y0144100D01*
X0082400Y0141698D01*
X0082400Y0138302D01*
X0084802Y0135900D01*
X0087400Y0135900D01*
X0087400Y0133942D02*
X0073356Y0133942D01*
X0074355Y0132943D02*
X0087758Y0132943D01*
X0088757Y0131945D02*
X0075353Y0131945D01*
X0075600Y0130946D02*
X0089755Y0130946D01*
X0093245Y0130946D02*
X0119755Y0130946D01*
X0119802Y0130900D02*
X0123198Y0130900D01*
X0125600Y0133302D01*
X0125600Y0136698D01*
X0123198Y0139100D01*
X0119802Y0139100D01*
X0117400Y0136698D01*
X0117400Y0133302D01*
X0119802Y0130900D01*
X0118757Y0131945D02*
X0094243Y0131945D01*
X0095242Y0132943D02*
X0117758Y0132943D01*
X0117400Y0133942D02*
X0095600Y0133942D01*
X0095600Y0134940D02*
X0117400Y0134940D01*
X0117400Y0135939D02*
X0095600Y0135939D01*
X0095361Y0136937D02*
X0117639Y0136937D01*
X0118638Y0137936D02*
X0094362Y0137936D01*
X0093364Y0138934D02*
X0119636Y0138934D01*
X0119574Y0140350D02*
X0123426Y0140350D01*
X0126150Y0143074D01*
X0126150Y0146926D01*
X0123426Y0149650D01*
X0119574Y0149650D01*
X0116850Y0146926D01*
X0116850Y0143074D01*
X0119574Y0140350D01*
X0118992Y0140932D02*
X0090600Y0140932D01*
X0090600Y0139933D02*
X0238000Y0139933D01*
X0238000Y0138934D02*
X0123364Y0138934D01*
X0124362Y0137936D02*
X0238000Y0137936D01*
X0238000Y0136937D02*
X0125361Y0136937D01*
X0125600Y0135939D02*
X0238000Y0135939D01*
X0238000Y0134940D02*
X0125600Y0134940D01*
X0125600Y0133942D02*
X0209644Y0133942D01*
X0208645Y0132943D02*
X0125242Y0132943D01*
X0124243Y0131945D02*
X0207647Y0131945D01*
X0207400Y0130946D02*
X0123245Y0130946D01*
X0124008Y0140932D02*
X0238000Y0140932D01*
X0238000Y0141500D02*
X0238000Y0132298D01*
X0237400Y0131698D01*
X0237400Y0128302D01*
X0239802Y0125900D01*
X0243198Y0125900D01*
X0245600Y0128302D01*
X0245600Y0131698D01*
X0245000Y0132298D01*
X0245000Y0145696D01*
X0244467Y0146983D01*
X0243483Y0147967D01*
X0242196Y0148500D01*
X0231858Y0148500D01*
X0231858Y0151684D01*
X0230980Y0152563D01*
X0225406Y0152563D01*
X0224528Y0151684D01*
X0224528Y0142568D01*
X0225406Y0141689D01*
X0227040Y0141689D01*
X0227497Y0141500D01*
X0238000Y0141500D01*
X0245000Y0141930D02*
X0261921Y0141930D01*
X0261921Y0140932D02*
X0245000Y0140932D01*
X0245000Y0139933D02*
X0261921Y0139933D01*
X0261921Y0138934D02*
X0245000Y0138934D01*
X0245000Y0137936D02*
X0261921Y0137936D01*
X0261921Y0136937D02*
X0245000Y0136937D01*
X0245000Y0135939D02*
X0261921Y0135939D01*
X0261921Y0134940D02*
X0245000Y0134940D01*
X0245000Y0133942D02*
X0261921Y0133942D01*
X0261921Y0132943D02*
X0245000Y0132943D01*
X0245353Y0131945D02*
X0261921Y0131945D01*
X0261921Y0130946D02*
X0245600Y0130946D01*
X0245600Y0129948D02*
X0261921Y0129948D01*
X0261921Y0128949D02*
X0245600Y0128949D01*
X0245249Y0127951D02*
X0261921Y0127951D01*
X0261921Y0126952D02*
X0244251Y0126952D01*
X0243252Y0125954D02*
X0261921Y0125954D01*
X0261921Y0124955D02*
X0215000Y0124955D01*
X0215000Y0123957D02*
X0261921Y0123957D01*
X0261921Y0122958D02*
X0215000Y0122958D01*
X0215000Y0121960D02*
X0261921Y0121960D01*
X0261921Y0120961D02*
X0215000Y0120961D01*
X0215000Y0119963D02*
X0261921Y0119963D01*
X0261921Y0118964D02*
X0251273Y0118964D01*
X0253684Y0117966D02*
X0261921Y0117966D01*
X0261921Y0116967D02*
X0255009Y0116967D01*
X0256008Y0115969D02*
X0261921Y0115969D01*
X0261921Y0114970D02*
X0257006Y0114970D01*
X0257434Y0113972D02*
X0261921Y0113972D01*
X0261921Y0112973D02*
X0257847Y0112973D01*
X0258261Y0111975D02*
X0261921Y0111975D01*
X0261921Y0110976D02*
X0258539Y0110976D01*
X0258539Y0109978D02*
X0261921Y0109978D01*
X0261921Y0108979D02*
X0258539Y0108979D01*
X0258539Y0107981D02*
X0261921Y0107981D01*
X0261921Y0106982D02*
X0258383Y0106982D01*
X0257970Y0105984D02*
X0261921Y0105984D01*
X0261921Y0104985D02*
X0257556Y0104985D01*
X0257143Y0103987D02*
X0261921Y0103987D01*
X0261921Y0102988D02*
X0256303Y0102988D01*
X0255304Y0101990D02*
X0261921Y0101990D01*
X0261921Y0100991D02*
X0254306Y0100991D01*
X0251987Y0099993D02*
X0261921Y0099993D01*
X0245265Y0099993D02*
X0231952Y0099993D01*
X0233184Y0100991D02*
X0242946Y0100991D01*
X0241947Y0101990D02*
X0233872Y0101990D01*
X0234274Y0102988D02*
X0240949Y0102988D01*
X0240109Y0103987D02*
X0229937Y0103987D01*
X0228968Y0103987D02*
X0224453Y0103987D01*
X0224453Y0104985D02*
X0224494Y0104985D01*
X0224733Y0105984D02*
X0224180Y0105984D01*
X0223766Y0106982D02*
X0225199Y0106982D01*
X0226032Y0107981D02*
X0222874Y0107981D01*
X0221296Y0108979D02*
X0227579Y0108979D01*
X0226896Y0109978D02*
X0222009Y0109978D01*
X0223169Y0110976D02*
X0225736Y0110976D01*
X0225017Y0111975D02*
X0223889Y0111975D01*
X0224302Y0112973D02*
X0224603Y0112973D01*
X0224453Y0113972D02*
X0224453Y0113972D01*
X0224453Y0114970D02*
X0224453Y0114970D01*
X0224719Y0115969D02*
X0224186Y0115969D01*
X0223773Y0116967D02*
X0225133Y0116967D01*
X0226017Y0117966D02*
X0222889Y0117966D01*
X0221332Y0118964D02*
X0227574Y0118964D01*
X0231332Y0118964D02*
X0245979Y0118964D01*
X0243568Y0117966D02*
X0232889Y0117966D01*
X0233773Y0116967D02*
X0242243Y0116967D01*
X0241244Y0115969D02*
X0234186Y0115969D01*
X0234453Y0114970D02*
X0240246Y0114970D01*
X0239818Y0113972D02*
X0234453Y0113972D01*
X0234302Y0112973D02*
X0239405Y0112973D01*
X0238991Y0111975D02*
X0233889Y0111975D01*
X0233169Y0110976D02*
X0238713Y0110976D01*
X0238713Y0109978D02*
X0232009Y0109978D01*
X0231327Y0108979D02*
X0238713Y0108979D01*
X0238713Y0107981D02*
X0232874Y0107981D01*
X0233707Y0106982D02*
X0238869Y0106982D01*
X0239282Y0105984D02*
X0234173Y0105984D01*
X0234411Y0104985D02*
X0239696Y0104985D01*
X0229937Y0104985D02*
X0228968Y0104985D01*
X0228968Y0105984D02*
X0229937Y0105984D01*
X0229937Y0106982D02*
X0228968Y0106982D01*
X0228968Y0107981D02*
X0229937Y0107981D01*
X0229937Y0108979D02*
X0228968Y0108979D01*
X0224632Y0102988D02*
X0224309Y0102988D01*
X0223895Y0101990D02*
X0225034Y0101990D01*
X0225721Y0100991D02*
X0223184Y0100991D01*
X0222045Y0099993D02*
X0226953Y0099993D01*
X0216860Y0099993D02*
X0212045Y0099993D01*
X0213184Y0100991D02*
X0215721Y0100991D01*
X0215011Y0101990D02*
X0213895Y0101990D01*
X0214309Y0102988D02*
X0214597Y0102988D01*
X0214453Y0103987D02*
X0214453Y0103987D01*
X0214453Y0104985D02*
X0214453Y0104985D01*
X0214180Y0105984D02*
X0214725Y0105984D01*
X0215139Y0106982D02*
X0213766Y0106982D01*
X0212874Y0107981D02*
X0216032Y0107981D01*
X0217610Y0108979D02*
X0211296Y0108979D01*
X0212009Y0109978D02*
X0216896Y0109978D01*
X0215736Y0110976D02*
X0213169Y0110976D01*
X0214094Y0111975D02*
X0215017Y0111975D01*
X0215000Y0116967D02*
X0215133Y0116967D01*
X0215000Y0117966D02*
X0216017Y0117966D01*
X0215000Y0118964D02*
X0217574Y0118964D01*
X0215000Y0125954D02*
X0239748Y0125954D01*
X0238749Y0126952D02*
X0215000Y0126952D01*
X0215249Y0127951D02*
X0237751Y0127951D01*
X0237400Y0128949D02*
X0215600Y0128949D01*
X0215600Y0129948D02*
X0237400Y0129948D01*
X0237400Y0130946D02*
X0215600Y0130946D01*
X0215353Y0131945D02*
X0237647Y0131945D01*
X0238000Y0132943D02*
X0214355Y0132943D01*
X0213356Y0133942D02*
X0238000Y0133942D01*
X0245000Y0142929D02*
X0261921Y0142929D01*
X0261921Y0143927D02*
X0245000Y0143927D01*
X0245000Y0144926D02*
X0261921Y0144926D01*
X0261921Y0145924D02*
X0244906Y0145924D01*
X0244492Y0146923D02*
X0261921Y0146923D01*
X0261921Y0147921D02*
X0243529Y0147921D01*
X0231858Y0148920D02*
X0261921Y0148920D01*
X0261921Y0149918D02*
X0231858Y0149918D01*
X0231858Y0150917D02*
X0261921Y0150917D01*
X0261921Y0151915D02*
X0231627Y0151915D01*
X0231449Y0157906D02*
X0261921Y0157906D01*
X0261921Y0156908D02*
X0208800Y0156908D01*
X0208800Y0157906D02*
X0211551Y0157906D01*
X0211142Y0158316D02*
X0212020Y0157437D01*
X0217594Y0157437D01*
X0218472Y0158316D01*
X0218472Y0167432D01*
X0217594Y0168311D01*
X0212020Y0168311D01*
X0211142Y0167432D01*
X0211142Y0165174D01*
X0205547Y0165174D01*
X0204200Y0163827D01*
X0204200Y0152300D01*
X0201243Y0152300D01*
X0200980Y0152563D01*
X0195406Y0152563D01*
X0194528Y0151684D01*
X0194528Y0142568D01*
X0195406Y0141689D01*
X0200980Y0141689D01*
X0201858Y0142568D01*
X0201858Y0147700D01*
X0207453Y0147700D01*
X0208800Y0149047D01*
X0208800Y0160574D01*
X0211142Y0160574D01*
X0211142Y0158316D01*
X0211142Y0158905D02*
X0208800Y0158905D01*
X0208800Y0159903D02*
X0211142Y0159903D01*
X0208800Y0155909D02*
X0261921Y0155909D01*
X0261921Y0154911D02*
X0208800Y0154911D01*
X0208800Y0153912D02*
X0261921Y0153912D01*
X0261921Y0152914D02*
X0208800Y0152914D01*
X0208800Y0151915D02*
X0211402Y0151915D01*
X0211441Y0151984D02*
X0211244Y0151642D01*
X0211142Y0151260D01*
X0211142Y0147626D01*
X0214307Y0147626D01*
X0214307Y0146626D01*
X0211142Y0146626D01*
X0211142Y0142991D01*
X0211244Y0142610D01*
X0211441Y0142268D01*
X0211721Y0141989D01*
X0212063Y0141791D01*
X0212444Y0141689D01*
X0214307Y0141689D01*
X0214307Y0146626D01*
X0215307Y0146626D01*
X0215307Y0141689D01*
X0217170Y0141689D01*
X0217551Y0141791D01*
X0217893Y0141989D01*
X0218173Y0142268D01*
X0218370Y0142610D01*
X0218472Y0142991D01*
X0218472Y0146626D01*
X0215307Y0146626D01*
X0215307Y0147626D01*
X0214307Y0147626D01*
X0214307Y0152563D01*
X0212444Y0152563D01*
X0212063Y0152461D01*
X0211721Y0152263D01*
X0211441Y0151984D01*
X0211142Y0150917D02*
X0208800Y0150917D01*
X0208800Y0149918D02*
X0211142Y0149918D01*
X0211142Y0148920D02*
X0208672Y0148920D01*
X0207674Y0147921D02*
X0211142Y0147921D01*
X0211142Y0145924D02*
X0201858Y0145924D01*
X0201858Y0144926D02*
X0211142Y0144926D01*
X0211142Y0143927D02*
X0201858Y0143927D01*
X0201858Y0142929D02*
X0211159Y0142929D01*
X0211822Y0141930D02*
X0201221Y0141930D01*
X0201858Y0146923D02*
X0214307Y0146923D01*
X0214307Y0147921D02*
X0215307Y0147921D01*
X0215307Y0147626D02*
X0215307Y0152563D01*
X0217170Y0152563D01*
X0217551Y0152461D01*
X0217893Y0152263D01*
X0218173Y0151984D01*
X0218370Y0151642D01*
X0218472Y0151260D01*
X0218472Y0147626D01*
X0215307Y0147626D01*
X0215307Y0146923D02*
X0224528Y0146923D01*
X0224528Y0147921D02*
X0218472Y0147921D01*
X0218472Y0148920D02*
X0224528Y0148920D01*
X0224528Y0149918D02*
X0218472Y0149918D01*
X0218472Y0150917D02*
X0224528Y0150917D01*
X0224758Y0151915D02*
X0218212Y0151915D01*
X0215307Y0151915D02*
X0214307Y0151915D01*
X0214307Y0150917D02*
X0215307Y0150917D01*
X0215307Y0149918D02*
X0214307Y0149918D01*
X0214307Y0148920D02*
X0215307Y0148920D01*
X0215307Y0145924D02*
X0214307Y0145924D01*
X0214307Y0144926D02*
X0215307Y0144926D01*
X0215307Y0143927D02*
X0214307Y0143927D01*
X0214307Y0142929D02*
X0215307Y0142929D01*
X0215307Y0141930D02*
X0214307Y0141930D01*
X0217792Y0141930D02*
X0225165Y0141930D01*
X0224528Y0142929D02*
X0218456Y0142929D01*
X0218472Y0143927D02*
X0224528Y0143927D01*
X0224528Y0144926D02*
X0218472Y0144926D01*
X0218472Y0145924D02*
X0224528Y0145924D01*
X0224937Y0157906D02*
X0218063Y0157906D01*
X0218472Y0158905D02*
X0224528Y0158905D01*
X0224528Y0159903D02*
X0218472Y0159903D01*
X0218472Y0160902D02*
X0224528Y0160902D01*
X0224528Y0161900D02*
X0218472Y0161900D01*
X0218472Y0162899D02*
X0224119Y0162899D01*
X0223532Y0163897D02*
X0218472Y0163897D01*
X0218472Y0164896D02*
X0222945Y0164896D01*
X0222358Y0165894D02*
X0218472Y0165894D01*
X0218472Y0166893D02*
X0221772Y0166893D01*
X0221185Y0167891D02*
X0218013Y0167891D01*
X0220598Y0168890D02*
X0199600Y0168890D01*
X0199600Y0169888D02*
X0220011Y0169888D01*
X0219424Y0170887D02*
X0199600Y0170887D01*
X0201399Y0167891D02*
X0211601Y0167891D01*
X0211142Y0166893D02*
X0201858Y0166893D01*
X0201858Y0165894D02*
X0211142Y0165894D01*
X0205269Y0164896D02*
X0201858Y0164896D01*
X0201858Y0163897D02*
X0204271Y0163897D01*
X0204200Y0162899D02*
X0201858Y0162899D01*
X0201858Y0161900D02*
X0204200Y0161900D01*
X0204200Y0160902D02*
X0201858Y0160902D01*
X0201858Y0159903D02*
X0204200Y0159903D01*
X0204200Y0158905D02*
X0201858Y0158905D01*
X0201449Y0157906D02*
X0204200Y0157906D01*
X0204200Y0156908D02*
X0169206Y0156908D01*
X0170204Y0157906D02*
X0181551Y0157906D01*
X0181142Y0158905D02*
X0170600Y0158905D01*
X0170600Y0158302D02*
X0168198Y0155900D01*
X0164802Y0155900D01*
X0162400Y0158302D01*
X0162400Y0161698D01*
X0164802Y0164100D01*
X0168198Y0164100D01*
X0170600Y0161698D01*
X0170600Y0158302D01*
X0170600Y0159903D02*
X0181142Y0159903D01*
X0181142Y0160902D02*
X0170600Y0160902D01*
X0170398Y0161900D02*
X0181142Y0161900D01*
X0181142Y0162899D02*
X0169399Y0162899D01*
X0168401Y0163897D02*
X0181142Y0163897D01*
X0188472Y0163897D02*
X0193400Y0163897D01*
X0193400Y0162899D02*
X0188472Y0162899D01*
X0188472Y0161900D02*
X0193548Y0161900D01*
X0194088Y0160902D02*
X0188472Y0160902D01*
X0188472Y0159903D02*
X0194528Y0159903D01*
X0194528Y0158905D02*
X0188472Y0158905D01*
X0188063Y0157906D02*
X0194937Y0157906D01*
X0194758Y0151915D02*
X0188212Y0151915D01*
X0188173Y0151984D02*
X0187893Y0152263D01*
X0187551Y0152461D01*
X0187170Y0152563D01*
X0185307Y0152563D01*
X0185307Y0147626D01*
X0184307Y0147626D01*
X0184307Y0146626D01*
X0181142Y0146626D01*
X0181142Y0142991D01*
X0181244Y0142610D01*
X0181441Y0142268D01*
X0181721Y0141989D01*
X0182063Y0141791D01*
X0182444Y0141689D01*
X0184307Y0141689D01*
X0184307Y0146626D01*
X0185307Y0146626D01*
X0185307Y0141689D01*
X0187170Y0141689D01*
X0187551Y0141791D01*
X0187893Y0141989D01*
X0188173Y0142268D01*
X0188370Y0142610D01*
X0188472Y0142991D01*
X0188472Y0146626D01*
X0185307Y0146626D01*
X0185307Y0147626D01*
X0188472Y0147626D01*
X0188472Y0151260D01*
X0188370Y0151642D01*
X0188173Y0151984D01*
X0188472Y0150917D02*
X0194528Y0150917D01*
X0194528Y0149918D02*
X0188472Y0149918D01*
X0188472Y0148920D02*
X0194528Y0148920D01*
X0194528Y0147921D02*
X0188472Y0147921D01*
X0188472Y0145924D02*
X0194528Y0145924D01*
X0194528Y0144926D02*
X0188472Y0144926D01*
X0188472Y0143927D02*
X0194528Y0143927D01*
X0194528Y0142929D02*
X0188456Y0142929D01*
X0187792Y0141930D02*
X0195165Y0141930D01*
X0194528Y0146923D02*
X0185307Y0146923D01*
X0185307Y0147921D02*
X0184307Y0147921D01*
X0184307Y0147626D02*
X0184307Y0152563D01*
X0182444Y0152563D01*
X0182063Y0152461D01*
X0181721Y0152263D01*
X0181441Y0151984D01*
X0181244Y0151642D01*
X0181142Y0151260D01*
X0181142Y0147626D01*
X0184307Y0147626D01*
X0184307Y0146923D02*
X0169221Y0146923D01*
X0170219Y0147921D02*
X0181142Y0147921D01*
X0181142Y0148920D02*
X0170600Y0148920D01*
X0170600Y0148302D02*
X0170600Y0149700D01*
X0166800Y0149700D01*
X0166800Y0150300D01*
X0166200Y0150300D01*
X0166200Y0154100D01*
X0164802Y0154100D01*
X0162400Y0151698D01*
X0162400Y0150300D01*
X0166200Y0150300D01*
X0166200Y0149700D01*
X0162400Y0149700D01*
X0162400Y0148302D01*
X0164802Y0145900D01*
X0166200Y0145900D01*
X0166200Y0149700D01*
X0166800Y0149700D01*
X0166800Y0145900D01*
X0168198Y0145900D01*
X0170600Y0148302D01*
X0170600Y0150300D02*
X0166800Y0150300D01*
X0166800Y0154100D01*
X0168198Y0154100D01*
X0170600Y0151698D01*
X0170600Y0150300D01*
X0170600Y0150917D02*
X0181142Y0150917D01*
X0181142Y0149918D02*
X0166800Y0149918D01*
X0166200Y0149918D02*
X0146800Y0149918D01*
X0146800Y0149700D02*
X0146800Y0150300D01*
X0146200Y0150300D01*
X0146200Y0154100D01*
X0144802Y0154100D01*
X0142400Y0151698D01*
X0142400Y0150300D01*
X0146200Y0150300D01*
X0146200Y0149700D01*
X0142400Y0149700D01*
X0142400Y0148302D01*
X0144802Y0145900D01*
X0146200Y0145900D01*
X0146200Y0149700D01*
X0146800Y0149700D01*
X0150600Y0149700D01*
X0150600Y0148302D01*
X0148198Y0145900D01*
X0146800Y0145900D01*
X0146800Y0149700D01*
X0146800Y0150300D02*
X0150600Y0150300D01*
X0150600Y0151698D01*
X0148198Y0154100D01*
X0146800Y0154100D01*
X0146800Y0150300D01*
X0146800Y0150917D02*
X0146200Y0150917D01*
X0146200Y0151915D02*
X0146800Y0151915D01*
X0146800Y0152914D02*
X0146200Y0152914D01*
X0146200Y0153912D02*
X0146800Y0153912D01*
X0148386Y0153912D02*
X0154900Y0153912D01*
X0154900Y0153302D02*
X0157302Y0150900D01*
X0160698Y0150900D01*
X0163100Y0153302D01*
X0163100Y0156698D01*
X0160698Y0159100D01*
X0157302Y0159100D01*
X0154900Y0156698D01*
X0154900Y0153302D01*
X0155288Y0152914D02*
X0149385Y0152914D01*
X0150383Y0151915D02*
X0156287Y0151915D01*
X0157285Y0150917D02*
X0150600Y0150917D01*
X0150600Y0148920D02*
X0162400Y0148920D01*
X0162781Y0147921D02*
X0150219Y0147921D01*
X0149221Y0146923D02*
X0163779Y0146923D01*
X0164778Y0145924D02*
X0148222Y0145924D01*
X0146800Y0145924D02*
X0146200Y0145924D01*
X0146200Y0146923D02*
X0146800Y0146923D01*
X0146800Y0147921D02*
X0146200Y0147921D01*
X0146200Y0148920D02*
X0146800Y0148920D01*
X0146200Y0149918D02*
X0076150Y0149918D01*
X0076150Y0148920D02*
X0118844Y0148920D01*
X0117845Y0147921D02*
X0075997Y0147921D01*
X0076150Y0148074D02*
X0073426Y0145350D01*
X0069574Y0145350D01*
X0066850Y0148074D01*
X0066850Y0151926D01*
X0069574Y0154650D01*
X0073426Y0154650D01*
X0076150Y0151926D01*
X0076150Y0148074D01*
X0074999Y0146923D02*
X0116850Y0146923D01*
X0116850Y0145924D02*
X0074000Y0145924D01*
X0069000Y0145924D02*
X0065000Y0145924D01*
X0065000Y0144926D02*
X0116850Y0144926D01*
X0116850Y0143927D02*
X0088371Y0143927D01*
X0089370Y0142929D02*
X0116995Y0142929D01*
X0117994Y0141930D02*
X0090368Y0141930D01*
X0084629Y0143927D02*
X0065000Y0143927D01*
X0065000Y0142929D02*
X0083630Y0142929D01*
X0082632Y0141930D02*
X0065000Y0141930D01*
X0065000Y0140932D02*
X0082400Y0140932D01*
X0082400Y0139933D02*
X0065000Y0139933D01*
X0065000Y0138934D02*
X0082400Y0138934D01*
X0082766Y0137936D02*
X0065000Y0137936D01*
X0065000Y0136937D02*
X0083764Y0136937D01*
X0084763Y0135939D02*
X0065000Y0135939D01*
X0075600Y0129948D02*
X0207400Y0129948D01*
X0207400Y0128949D02*
X0075600Y0128949D01*
X0075249Y0127951D02*
X0207751Y0127951D01*
X0208000Y0126952D02*
X0074251Y0126952D01*
X0073252Y0125954D02*
X0208000Y0125954D01*
X0207574Y0118964D02*
X0201372Y0118964D01*
X0200624Y0119208D01*
X0199937Y0119316D01*
X0199937Y0114815D01*
X0198968Y0114815D01*
X0198968Y0113846D01*
X0194467Y0113846D01*
X0194576Y0113160D01*
X0194819Y0112411D01*
X0195176Y0111710D01*
X0195639Y0111073D01*
X0196195Y0110517D01*
X0196832Y0110054D01*
X0197533Y0109697D01*
X0198282Y0109454D01*
X0198968Y0109345D01*
X0198968Y0113846D01*
X0199937Y0113846D01*
X0199937Y0109345D01*
X0200624Y0109454D01*
X0201372Y0109697D01*
X0202073Y0110054D01*
X0202710Y0110517D01*
X0203267Y0111073D01*
X0203729Y0111710D01*
X0204086Y0112411D01*
X0204330Y0113160D01*
X0204438Y0113846D01*
X0199937Y0113846D01*
X0199937Y0114815D01*
X0204438Y0114815D01*
X0204330Y0115502D01*
X0204086Y0116250D01*
X0203729Y0116951D01*
X0203267Y0117588D01*
X0202710Y0118144D01*
X0202073Y0118607D01*
X0201372Y0118964D01*
X0199937Y0118964D02*
X0198968Y0118964D01*
X0198968Y0119316D02*
X0198282Y0119208D01*
X0197533Y0118964D01*
X0191332Y0118964D01*
X0192889Y0117966D02*
X0196017Y0117966D01*
X0196195Y0118144D02*
X0195639Y0117588D01*
X0195176Y0116951D01*
X0194819Y0116250D01*
X0194576Y0115502D01*
X0194467Y0114815D01*
X0198968Y0114815D01*
X0198968Y0119316D01*
X0198968Y0117966D02*
X0199937Y0117966D01*
X0199937Y0116967D02*
X0198968Y0116967D01*
X0198968Y0115969D02*
X0199937Y0115969D01*
X0199937Y0114970D02*
X0198968Y0114970D01*
X0198968Y0113972D02*
X0194453Y0113972D01*
X0194453Y0114970D02*
X0194492Y0114970D01*
X0194728Y0115969D02*
X0194186Y0115969D01*
X0193773Y0116967D02*
X0195188Y0116967D01*
X0196195Y0118144D02*
X0196832Y0118607D01*
X0197533Y0118964D01*
X0202889Y0117966D02*
X0206017Y0117966D01*
X0205133Y0116967D02*
X0203718Y0116967D01*
X0204178Y0115969D02*
X0204719Y0115969D01*
X0204453Y0114970D02*
X0204414Y0114970D01*
X0204453Y0113972D02*
X0199937Y0113972D01*
X0199937Y0112973D02*
X0198968Y0112973D01*
X0198968Y0111975D02*
X0199937Y0111975D01*
X0199937Y0110976D02*
X0198968Y0110976D01*
X0198968Y0109978D02*
X0199937Y0109978D01*
X0201296Y0108979D02*
X0207610Y0108979D01*
X0206896Y0109978D02*
X0201923Y0109978D01*
X0203169Y0110976D02*
X0205736Y0110976D01*
X0205017Y0111975D02*
X0203864Y0111975D01*
X0204269Y0112973D02*
X0204603Y0112973D01*
X0206032Y0107981D02*
X0202874Y0107981D01*
X0203766Y0106982D02*
X0205139Y0106982D01*
X0204725Y0105984D02*
X0204180Y0105984D01*
X0204453Y0104985D02*
X0204453Y0104985D01*
X0204453Y0103987D02*
X0204453Y0103987D01*
X0204309Y0102988D02*
X0204597Y0102988D01*
X0205011Y0101990D02*
X0203895Y0101990D01*
X0203184Y0100991D02*
X0205721Y0100991D01*
X0206860Y0099993D02*
X0202045Y0099993D01*
X0196860Y0099993D02*
X0192045Y0099993D01*
X0193184Y0100991D02*
X0195721Y0100991D01*
X0195011Y0101990D02*
X0193895Y0101990D01*
X0194309Y0102988D02*
X0194597Y0102988D01*
X0194453Y0103987D02*
X0194453Y0103987D01*
X0194453Y0104985D02*
X0194453Y0104985D01*
X0194180Y0105984D02*
X0194725Y0105984D01*
X0195139Y0106982D02*
X0193766Y0106982D01*
X0192874Y0107981D02*
X0196032Y0107981D01*
X0197610Y0108979D02*
X0191296Y0108979D01*
X0192009Y0109978D02*
X0196983Y0109978D01*
X0195736Y0110976D02*
X0193169Y0110976D01*
X0193889Y0111975D02*
X0195042Y0111975D01*
X0194637Y0112973D02*
X0194302Y0112973D01*
X0187610Y0108979D02*
X0181296Y0108979D01*
X0182009Y0109978D02*
X0186896Y0109978D01*
X0185736Y0110976D02*
X0183169Y0110976D01*
X0183889Y0111975D02*
X0185017Y0111975D01*
X0184603Y0112973D02*
X0184302Y0112973D01*
X0184453Y0113972D02*
X0184453Y0113972D01*
X0184453Y0114970D02*
X0184453Y0114970D01*
X0184719Y0115969D02*
X0184186Y0115969D01*
X0183773Y0116967D02*
X0185133Y0116967D01*
X0186017Y0117966D02*
X0182889Y0117966D01*
X0181332Y0118964D02*
X0187574Y0118964D01*
X0177574Y0118964D02*
X0171332Y0118964D01*
X0172889Y0117966D02*
X0176017Y0117966D01*
X0175133Y0116967D02*
X0173773Y0116967D01*
X0174186Y0115969D02*
X0174719Y0115969D01*
X0174453Y0114970D02*
X0174453Y0114970D01*
X0174453Y0113972D02*
X0174453Y0113972D01*
X0174302Y0112973D02*
X0174603Y0112973D01*
X0175017Y0111975D02*
X0173889Y0111975D01*
X0173169Y0110976D02*
X0175736Y0110976D01*
X0176896Y0109978D02*
X0172009Y0109978D01*
X0171296Y0108979D02*
X0177610Y0108979D01*
X0176032Y0107981D02*
X0172874Y0107981D01*
X0173766Y0106982D02*
X0175139Y0106982D01*
X0174725Y0105984D02*
X0174180Y0105984D01*
X0174453Y0104985D02*
X0174453Y0104985D01*
X0174453Y0103987D02*
X0174453Y0103987D01*
X0174309Y0102988D02*
X0174597Y0102988D01*
X0175011Y0101990D02*
X0173895Y0101990D01*
X0173184Y0100991D02*
X0175721Y0100991D01*
X0176860Y0099993D02*
X0172045Y0099993D01*
X0166860Y0099993D02*
X0162045Y0099993D01*
X0163184Y0100991D02*
X0165721Y0100991D01*
X0165011Y0101990D02*
X0163895Y0101990D01*
X0164309Y0102988D02*
X0164597Y0102988D01*
X0164453Y0103987D02*
X0164453Y0103987D01*
X0164453Y0104985D02*
X0164453Y0104985D01*
X0164180Y0105984D02*
X0164725Y0105984D01*
X0165139Y0106982D02*
X0163766Y0106982D01*
X0162874Y0107981D02*
X0166032Y0107981D01*
X0167610Y0108979D02*
X0161296Y0108979D01*
X0162009Y0109978D02*
X0166896Y0109978D01*
X0165736Y0110976D02*
X0163169Y0110976D01*
X0163889Y0111975D02*
X0165017Y0111975D01*
X0164603Y0112973D02*
X0164302Y0112973D01*
X0164453Y0113972D02*
X0164453Y0113972D01*
X0164453Y0114970D02*
X0164453Y0114970D01*
X0164719Y0115969D02*
X0164186Y0115969D01*
X0163773Y0116967D02*
X0165133Y0116967D01*
X0166017Y0117966D02*
X0162889Y0117966D01*
X0161332Y0118964D02*
X0167574Y0118964D01*
X0157574Y0118964D02*
X0151332Y0118964D01*
X0152889Y0117966D02*
X0156017Y0117966D01*
X0155133Y0116967D02*
X0153773Y0116967D01*
X0154186Y0115969D02*
X0154719Y0115969D01*
X0154453Y0114970D02*
X0154453Y0114970D01*
X0154453Y0113972D02*
X0154453Y0113972D01*
X0154302Y0112973D02*
X0154603Y0112973D01*
X0155017Y0111975D02*
X0153889Y0111975D01*
X0153169Y0110976D02*
X0155736Y0110976D01*
X0156896Y0109978D02*
X0152009Y0109978D01*
X0151296Y0108979D02*
X0157610Y0108979D01*
X0156032Y0107981D02*
X0152874Y0107981D01*
X0153766Y0106982D02*
X0155139Y0106982D01*
X0154725Y0105984D02*
X0154180Y0105984D01*
X0154453Y0104985D02*
X0154453Y0104985D01*
X0154453Y0103987D02*
X0154453Y0103987D01*
X0154309Y0102988D02*
X0154597Y0102988D01*
X0155011Y0101990D02*
X0153895Y0101990D01*
X0153184Y0100991D02*
X0155721Y0100991D01*
X0156860Y0099993D02*
X0152045Y0099993D01*
X0146860Y0099993D02*
X0142045Y0099993D01*
X0143184Y0100991D02*
X0145721Y0100991D01*
X0145011Y0101990D02*
X0143895Y0101990D01*
X0144309Y0102988D02*
X0144597Y0102988D01*
X0144453Y0103987D02*
X0144453Y0103987D01*
X0144453Y0104985D02*
X0144453Y0104985D01*
X0144180Y0105984D02*
X0144725Y0105984D01*
X0145139Y0106982D02*
X0143766Y0106982D01*
X0142874Y0107981D02*
X0146032Y0107981D01*
X0147610Y0108979D02*
X0141296Y0108979D01*
X0142009Y0109978D02*
X0146896Y0109978D01*
X0145736Y0110976D02*
X0143169Y0110976D01*
X0143889Y0111975D02*
X0145017Y0111975D01*
X0144603Y0112973D02*
X0144302Y0112973D01*
X0144453Y0113972D02*
X0144453Y0113972D01*
X0144453Y0114970D02*
X0144453Y0114970D01*
X0144719Y0115969D02*
X0144186Y0115969D01*
X0143773Y0116967D02*
X0145133Y0116967D01*
X0146017Y0117966D02*
X0142889Y0117966D01*
X0141332Y0118964D02*
X0147574Y0118964D01*
X0137574Y0118964D02*
X0131372Y0118964D01*
X0130624Y0119208D01*
X0129937Y0119316D01*
X0129937Y0114815D01*
X0128968Y0114815D01*
X0128968Y0113846D01*
X0124467Y0113846D01*
X0124576Y0113160D01*
X0124819Y0112411D01*
X0125176Y0111710D01*
X0125639Y0111073D01*
X0126195Y0110517D01*
X0126832Y0110054D01*
X0127533Y0109697D01*
X0128282Y0109454D01*
X0128968Y0109345D01*
X0128968Y0113846D01*
X0129937Y0113846D01*
X0129937Y0109345D01*
X0130624Y0109454D01*
X0131372Y0109697D01*
X0132073Y0110054D01*
X0132710Y0110517D01*
X0133267Y0111073D01*
X0133729Y0111710D01*
X0134086Y0112411D01*
X0134330Y0113160D01*
X0134438Y0113846D01*
X0129937Y0113846D01*
X0129937Y0114815D01*
X0134438Y0114815D01*
X0134330Y0115502D01*
X0134086Y0116250D01*
X0133729Y0116951D01*
X0133267Y0117588D01*
X0132710Y0118144D01*
X0132073Y0118607D01*
X0131372Y0118964D01*
X0129937Y0118964D02*
X0128968Y0118964D01*
X0128968Y0119316D02*
X0128282Y0119208D01*
X0127533Y0118964D01*
X0121332Y0118964D01*
X0122889Y0117966D02*
X0126017Y0117966D01*
X0126195Y0118144D02*
X0125639Y0117588D01*
X0125176Y0116951D01*
X0124819Y0116250D01*
X0124576Y0115502D01*
X0124467Y0114815D01*
X0128968Y0114815D01*
X0128968Y0119316D01*
X0128968Y0117966D02*
X0129937Y0117966D01*
X0129937Y0116967D02*
X0128968Y0116967D01*
X0128968Y0115969D02*
X0129937Y0115969D01*
X0129937Y0114970D02*
X0128968Y0114970D01*
X0128968Y0113972D02*
X0124453Y0113972D01*
X0124453Y0114970D02*
X0124492Y0114970D01*
X0124728Y0115969D02*
X0124186Y0115969D01*
X0123773Y0116967D02*
X0125188Y0116967D01*
X0126195Y0118144D02*
X0126832Y0118607D01*
X0127533Y0118964D01*
X0132889Y0117966D02*
X0136017Y0117966D01*
X0135133Y0116967D02*
X0133718Y0116967D01*
X0134178Y0115969D02*
X0134719Y0115969D01*
X0134453Y0114970D02*
X0134414Y0114970D01*
X0134453Y0113972D02*
X0129937Y0113972D01*
X0129937Y0112973D02*
X0128968Y0112973D01*
X0128968Y0111975D02*
X0129937Y0111975D01*
X0129937Y0110976D02*
X0128968Y0110976D01*
X0128968Y0109978D02*
X0129937Y0109978D01*
X0131296Y0108979D02*
X0137610Y0108979D01*
X0136896Y0109978D02*
X0131923Y0109978D01*
X0133169Y0110976D02*
X0135736Y0110976D01*
X0135017Y0111975D02*
X0133864Y0111975D01*
X0134269Y0112973D02*
X0134603Y0112973D01*
X0136032Y0107981D02*
X0132874Y0107981D01*
X0133766Y0106982D02*
X0135139Y0106982D01*
X0134725Y0105984D02*
X0134180Y0105984D01*
X0134453Y0104985D02*
X0134453Y0104985D01*
X0134453Y0103987D02*
X0134453Y0103987D01*
X0134309Y0102988D02*
X0134597Y0102988D01*
X0135011Y0101990D02*
X0133895Y0101990D01*
X0133184Y0100991D02*
X0135721Y0100991D01*
X0136860Y0099993D02*
X0132045Y0099993D01*
X0126860Y0099993D02*
X0122045Y0099993D01*
X0123184Y0100991D02*
X0125721Y0100991D01*
X0125011Y0101990D02*
X0123895Y0101990D01*
X0124309Y0102988D02*
X0124597Y0102988D01*
X0124453Y0103987D02*
X0124453Y0103987D01*
X0124453Y0104985D02*
X0124453Y0104985D01*
X0124180Y0105984D02*
X0124725Y0105984D01*
X0125139Y0106982D02*
X0123766Y0106982D01*
X0122874Y0107981D02*
X0126032Y0107981D01*
X0127610Y0108979D02*
X0121296Y0108979D01*
X0122009Y0109978D02*
X0126983Y0109978D01*
X0125736Y0110976D02*
X0123169Y0110976D01*
X0123889Y0111975D02*
X0125042Y0111975D01*
X0124637Y0112973D02*
X0124302Y0112973D01*
X0117610Y0108979D02*
X0111296Y0108979D01*
X0112009Y0109978D02*
X0116896Y0109978D01*
X0115736Y0110976D02*
X0113169Y0110976D01*
X0113889Y0111975D02*
X0115017Y0111975D01*
X0114603Y0112973D02*
X0114302Y0112973D01*
X0114453Y0113972D02*
X0114453Y0113972D01*
X0114453Y0114970D02*
X0114453Y0114970D01*
X0114719Y0115969D02*
X0114186Y0115969D01*
X0113773Y0116967D02*
X0115133Y0116967D01*
X0116017Y0117966D02*
X0112889Y0117966D01*
X0111332Y0118964D02*
X0117574Y0118964D01*
X0107574Y0118964D02*
X0101332Y0118964D01*
X0102889Y0117966D02*
X0106017Y0117966D01*
X0105133Y0116967D02*
X0103773Y0116967D01*
X0104186Y0115969D02*
X0104719Y0115969D01*
X0104453Y0114970D02*
X0104453Y0114970D01*
X0104453Y0113972D02*
X0104453Y0113972D01*
X0104302Y0112973D02*
X0104603Y0112973D01*
X0105017Y0111975D02*
X0103889Y0111975D01*
X0103169Y0110976D02*
X0105736Y0110976D01*
X0106896Y0109978D02*
X0102009Y0109978D01*
X0101296Y0108979D02*
X0107610Y0108979D01*
X0106032Y0107981D02*
X0102874Y0107981D01*
X0103766Y0106982D02*
X0105139Y0106982D01*
X0104725Y0105984D02*
X0104180Y0105984D01*
X0104453Y0104985D02*
X0104453Y0104985D01*
X0104453Y0103987D02*
X0104453Y0103987D01*
X0104309Y0102988D02*
X0104597Y0102988D01*
X0105011Y0101990D02*
X0103895Y0101990D01*
X0103184Y0100991D02*
X0105721Y0100991D01*
X0106860Y0099993D02*
X0102045Y0099993D01*
X0096860Y0099993D02*
X0092045Y0099993D01*
X0093184Y0100991D02*
X0095721Y0100991D01*
X0095011Y0101990D02*
X0093895Y0101990D01*
X0094309Y0102988D02*
X0094597Y0102988D01*
X0094453Y0103987D02*
X0094453Y0103987D01*
X0094453Y0104985D02*
X0094453Y0104985D01*
X0094180Y0105984D02*
X0094725Y0105984D01*
X0095139Y0106982D02*
X0093766Y0106982D01*
X0092874Y0107981D02*
X0096032Y0107981D01*
X0097610Y0108979D02*
X0091296Y0108979D01*
X0092009Y0109978D02*
X0096896Y0109978D01*
X0095736Y0110976D02*
X0093169Y0110976D01*
X0093889Y0111975D02*
X0095017Y0111975D01*
X0094603Y0112973D02*
X0094302Y0112973D01*
X0094453Y0113972D02*
X0094453Y0113972D01*
X0094453Y0114970D02*
X0094453Y0114970D01*
X0094719Y0115969D02*
X0094186Y0115969D01*
X0093773Y0116967D02*
X0095133Y0116967D01*
X0096017Y0117966D02*
X0092889Y0117966D01*
X0091332Y0118964D02*
X0097574Y0118964D01*
X0087574Y0118964D02*
X0081332Y0118964D01*
X0082889Y0117966D02*
X0086017Y0117966D01*
X0085133Y0116967D02*
X0083773Y0116967D01*
X0084186Y0115969D02*
X0084719Y0115969D01*
X0084453Y0114970D02*
X0084453Y0114970D01*
X0084453Y0113972D02*
X0084453Y0113972D01*
X0084302Y0112973D02*
X0084603Y0112973D01*
X0085017Y0111975D02*
X0083889Y0111975D01*
X0083169Y0110976D02*
X0085736Y0110976D01*
X0086896Y0109978D02*
X0082009Y0109978D01*
X0081296Y0108979D02*
X0087610Y0108979D01*
X0086032Y0107981D02*
X0082874Y0107981D01*
X0083766Y0106982D02*
X0085139Y0106982D01*
X0084725Y0105984D02*
X0084180Y0105984D01*
X0084453Y0104985D02*
X0084453Y0104985D01*
X0084453Y0103987D02*
X0084453Y0103987D01*
X0084309Y0102988D02*
X0084597Y0102988D01*
X0085011Y0101990D02*
X0083895Y0101990D01*
X0083184Y0100991D02*
X0085721Y0100991D01*
X0086860Y0099993D02*
X0082045Y0099993D01*
X0076860Y0099993D02*
X0072045Y0099993D01*
X0073184Y0100991D02*
X0075721Y0100991D01*
X0075011Y0101990D02*
X0073895Y0101990D01*
X0074309Y0102988D02*
X0074597Y0102988D01*
X0074453Y0103987D02*
X0074453Y0103987D01*
X0074453Y0104985D02*
X0074453Y0104985D01*
X0074180Y0105984D02*
X0074725Y0105984D01*
X0075139Y0106982D02*
X0073766Y0106982D01*
X0072874Y0107981D02*
X0076032Y0107981D01*
X0077610Y0108979D02*
X0071296Y0108979D01*
X0072009Y0109978D02*
X0076896Y0109978D01*
X0075736Y0110976D02*
X0073169Y0110976D01*
X0073889Y0111975D02*
X0075017Y0111975D01*
X0074603Y0112973D02*
X0074302Y0112973D01*
X0074453Y0113972D02*
X0074453Y0113972D01*
X0074453Y0114970D02*
X0074453Y0114970D01*
X0074719Y0115969D02*
X0074186Y0115969D01*
X0073773Y0116967D02*
X0075133Y0116967D01*
X0076017Y0117966D02*
X0072889Y0117966D01*
X0071332Y0118964D02*
X0077574Y0118964D01*
X0067574Y0118964D02*
X0061332Y0118964D01*
X0062889Y0117966D02*
X0066017Y0117966D01*
X0065133Y0116967D02*
X0063773Y0116967D01*
X0064186Y0115969D02*
X0064719Y0115969D01*
X0064453Y0114970D02*
X0064453Y0114970D01*
X0064453Y0113972D02*
X0064453Y0113972D01*
X0064302Y0112973D02*
X0064603Y0112973D01*
X0065017Y0111975D02*
X0063889Y0111975D01*
X0063169Y0110976D02*
X0065736Y0110976D01*
X0066896Y0109978D02*
X0062009Y0109978D01*
X0061296Y0108979D02*
X0067610Y0108979D01*
X0066032Y0107981D02*
X0062874Y0107981D01*
X0063766Y0106982D02*
X0065139Y0106982D01*
X0064725Y0105984D02*
X0064180Y0105984D01*
X0064453Y0104985D02*
X0064453Y0104985D01*
X0064453Y0103987D02*
X0064453Y0103987D01*
X0064309Y0102988D02*
X0064597Y0102988D01*
X0065011Y0101990D02*
X0063895Y0101990D01*
X0063184Y0100991D02*
X0065721Y0100991D01*
X0066860Y0099993D02*
X0062045Y0099993D01*
X0037574Y0118964D02*
X0022927Y0118964D01*
X0025338Y0117966D02*
X0036017Y0117966D01*
X0035133Y0116967D02*
X0026663Y0116967D01*
X0027661Y0115969D02*
X0034719Y0115969D01*
X0034453Y0114970D02*
X0028660Y0114970D01*
X0029087Y0113972D02*
X0034453Y0113972D01*
X0034603Y0112973D02*
X0029501Y0112973D01*
X0029915Y0111975D02*
X0035017Y0111975D01*
X0035736Y0110976D02*
X0030193Y0110976D01*
X0030193Y0109978D02*
X0036896Y0109978D01*
X0034980Y0108979D02*
X0030193Y0108979D01*
X0030193Y0107981D02*
X0034453Y0107981D01*
X0034453Y0106982D02*
X0030037Y0106982D01*
X0029623Y0105984D02*
X0034453Y0105984D01*
X0034453Y0104985D02*
X0029210Y0104985D01*
X0028796Y0103987D02*
X0034453Y0103987D01*
X0034453Y0102988D02*
X0027957Y0102988D01*
X0026958Y0101990D02*
X0034453Y0101990D01*
X0034453Y0100991D02*
X0025960Y0100991D01*
X0023640Y0099993D02*
X0034670Y0099993D01*
X0016919Y0099993D02*
X0006000Y0099993D01*
X0006000Y0100991D02*
X0014600Y0100991D01*
X0013601Y0101990D02*
X0006000Y0101990D01*
X0006000Y0102988D02*
X0012602Y0102988D01*
X0011763Y0103987D02*
X0006000Y0103987D01*
X0006000Y0104985D02*
X0011349Y0104985D01*
X0010936Y0105984D02*
X0006000Y0105984D01*
X0006000Y0106982D02*
X0010522Y0106982D01*
X0010366Y0107981D02*
X0006000Y0107981D01*
X0006000Y0108979D02*
X0010366Y0108979D01*
X0010366Y0109978D02*
X0006000Y0109978D01*
X0006000Y0110976D02*
X0010366Y0110976D01*
X0010645Y0111975D02*
X0006000Y0111975D01*
X0006000Y0112973D02*
X0011058Y0112973D01*
X0011472Y0113972D02*
X0006000Y0113972D01*
X0006000Y0114970D02*
X0011899Y0114970D01*
X0012898Y0115969D02*
X0006000Y0115969D01*
X0006000Y0116967D02*
X0013896Y0116967D01*
X0015221Y0117966D02*
X0006000Y0117966D01*
X0006000Y0118964D02*
X0017632Y0118964D01*
X0006000Y0125954D02*
X0039748Y0125954D01*
X0038749Y0126952D02*
X0006000Y0126952D01*
X0006000Y0127951D02*
X0037751Y0127951D01*
X0037400Y0128949D02*
X0006000Y0128949D01*
X0006000Y0129948D02*
X0037400Y0129948D01*
X0037400Y0130946D02*
X0006000Y0130946D01*
X0006000Y0131945D02*
X0037647Y0131945D01*
X0038645Y0132943D02*
X0006000Y0132943D01*
X0006000Y0133942D02*
X0039644Y0133942D01*
X0065000Y0146923D02*
X0068001Y0146923D01*
X0067003Y0147921D02*
X0065000Y0147921D01*
X0065000Y0148920D02*
X0066850Y0148920D01*
X0066850Y0149918D02*
X0065000Y0149918D01*
X0065000Y0150917D02*
X0066850Y0150917D01*
X0066850Y0151915D02*
X0065000Y0151915D01*
X0065000Y0152914D02*
X0067838Y0152914D01*
X0068836Y0153912D02*
X0065000Y0153912D01*
X0065000Y0154911D02*
X0092400Y0154911D01*
X0092400Y0155909D02*
X0065000Y0155909D01*
X0065000Y0156908D02*
X0092609Y0156908D01*
X0092400Y0156698D02*
X0092400Y0153302D01*
X0094802Y0150900D01*
X0098198Y0150900D01*
X0100600Y0153302D01*
X0100600Y0156698D01*
X0098198Y0159100D01*
X0094802Y0159100D01*
X0092400Y0156698D01*
X0093608Y0157906D02*
X0065000Y0157906D01*
X0065000Y0158905D02*
X0094606Y0158905D01*
X0098394Y0158905D02*
X0137106Y0158905D01*
X0137302Y0159100D02*
X0134900Y0156698D01*
X0134900Y0153302D01*
X0137302Y0150900D01*
X0140698Y0150900D01*
X0143100Y0153302D01*
X0143100Y0156698D01*
X0140698Y0159100D01*
X0137302Y0159100D01*
X0136108Y0157906D02*
X0099392Y0157906D01*
X0100391Y0156908D02*
X0135109Y0156908D01*
X0134900Y0155909D02*
X0100600Y0155909D01*
X0100600Y0154911D02*
X0134900Y0154911D01*
X0134900Y0153912D02*
X0100600Y0153912D01*
X0100212Y0152914D02*
X0135288Y0152914D01*
X0136287Y0151915D02*
X0099213Y0151915D01*
X0098215Y0150917D02*
X0137285Y0150917D01*
X0140715Y0150917D02*
X0142400Y0150917D01*
X0142617Y0151915D02*
X0141713Y0151915D01*
X0142712Y0152914D02*
X0143615Y0152914D01*
X0143100Y0153912D02*
X0144614Y0153912D01*
X0143100Y0154911D02*
X0154900Y0154911D01*
X0154900Y0155909D02*
X0148207Y0155909D01*
X0149206Y0156908D02*
X0155109Y0156908D01*
X0156108Y0157906D02*
X0150204Y0157906D01*
X0150600Y0158905D02*
X0157106Y0158905D01*
X0160894Y0158905D02*
X0162400Y0158905D01*
X0162400Y0159903D02*
X0150600Y0159903D01*
X0150600Y0160902D02*
X0162400Y0160902D01*
X0162602Y0161900D02*
X0150398Y0161900D01*
X0149399Y0162899D02*
X0163601Y0162899D01*
X0164599Y0163897D02*
X0148401Y0163897D01*
X0142400Y0159903D02*
X0065000Y0159903D01*
X0065000Y0160902D02*
X0119022Y0160902D01*
X0118024Y0161900D02*
X0065000Y0161900D01*
X0065000Y0162899D02*
X0117025Y0162899D01*
X0116850Y0163897D02*
X0065000Y0163897D01*
X0073970Y0165894D02*
X0116850Y0165894D01*
X0116850Y0166893D02*
X0089191Y0166893D01*
X0088198Y0165900D02*
X0090600Y0168302D01*
X0090600Y0169700D01*
X0086800Y0169700D01*
X0086800Y0165900D01*
X0088198Y0165900D01*
X0086800Y0166893D02*
X0086200Y0166893D01*
X0086200Y0167891D02*
X0086800Y0167891D01*
X0086800Y0168890D02*
X0086200Y0168890D01*
X0086200Y0169888D02*
X0076150Y0169888D01*
X0076150Y0168890D02*
X0082400Y0168890D01*
X0082810Y0167891D02*
X0075967Y0167891D01*
X0074969Y0166893D02*
X0083809Y0166893D01*
X0082400Y0170887D02*
X0076150Y0170887D01*
X0076150Y0171885D02*
X0082587Y0171885D01*
X0083586Y0172884D02*
X0075192Y0172884D01*
X0074194Y0173882D02*
X0084584Y0173882D01*
X0089414Y0172884D02*
X0093488Y0172884D01*
X0094820Y0171885D02*
X0090413Y0171885D01*
X0090600Y0170887D02*
X0193400Y0170887D01*
X0193400Y0167891D02*
X0188013Y0167891D01*
X0188472Y0166893D02*
X0193400Y0166893D01*
X0193400Y0165894D02*
X0188472Y0165894D01*
X0188472Y0164896D02*
X0193400Y0164896D01*
X0204200Y0155909D02*
X0168207Y0155909D01*
X0168386Y0153912D02*
X0204200Y0153912D01*
X0204200Y0152914D02*
X0169385Y0152914D01*
X0170383Y0151915D02*
X0181402Y0151915D01*
X0184307Y0151915D02*
X0185307Y0151915D01*
X0185307Y0150917D02*
X0184307Y0150917D01*
X0184307Y0149918D02*
X0185307Y0149918D01*
X0185307Y0148920D02*
X0184307Y0148920D01*
X0184307Y0145924D02*
X0185307Y0145924D01*
X0185307Y0144926D02*
X0184307Y0144926D01*
X0184307Y0143927D02*
X0185307Y0143927D01*
X0185307Y0142929D02*
X0184307Y0142929D01*
X0184307Y0141930D02*
X0185307Y0141930D01*
X0181822Y0141930D02*
X0125006Y0141930D01*
X0126005Y0142929D02*
X0181159Y0142929D01*
X0181142Y0143927D02*
X0126150Y0143927D01*
X0126150Y0144926D02*
X0181142Y0144926D01*
X0181142Y0145924D02*
X0168222Y0145924D01*
X0166800Y0145924D02*
X0166200Y0145924D01*
X0166200Y0146923D02*
X0166800Y0146923D01*
X0166800Y0147921D02*
X0166200Y0147921D01*
X0166200Y0148920D02*
X0166800Y0148920D01*
X0166800Y0150917D02*
X0166200Y0150917D01*
X0166200Y0151915D02*
X0166800Y0151915D01*
X0166800Y0152914D02*
X0166200Y0152914D01*
X0166200Y0153912D02*
X0166800Y0153912D01*
X0164614Y0153912D02*
X0163100Y0153912D01*
X0163100Y0154911D02*
X0204200Y0154911D01*
X0227544Y0170887D02*
X0261921Y0170887D01*
X0261921Y0171885D02*
X0226957Y0171885D01*
X0226370Y0172884D02*
X0261921Y0172884D01*
X0261921Y0173882D02*
X0225783Y0173882D01*
X0225197Y0174881D02*
X0261921Y0174881D01*
X0261921Y0175879D02*
X0224610Y0175879D01*
X0224077Y0176878D02*
X0261921Y0176878D01*
X0261921Y0177876D02*
X0223140Y0177876D01*
X0228130Y0169888D02*
X0261921Y0169888D01*
X0261921Y0168890D02*
X0228717Y0168890D01*
X0231399Y0167891D02*
X0261921Y0167891D01*
X0261921Y0166893D02*
X0231858Y0166893D01*
X0231858Y0165894D02*
X0261921Y0165894D01*
X0261921Y0164896D02*
X0231858Y0164896D01*
X0231858Y0163897D02*
X0261921Y0163897D01*
X0261921Y0162899D02*
X0231858Y0162899D01*
X0231858Y0161900D02*
X0261921Y0161900D01*
X0261921Y0160902D02*
X0231858Y0160902D01*
X0231858Y0159903D02*
X0261921Y0159903D01*
X0261921Y0158905D02*
X0231858Y0158905D01*
X0224483Y0194851D02*
X0243517Y0194851D01*
X0242519Y0195850D02*
X0225481Y0195850D01*
X0226480Y0196848D02*
X0241520Y0196848D01*
X0240750Y0197847D02*
X0227250Y0197847D01*
X0227250Y0198845D02*
X0240750Y0198845D01*
X0240750Y0199844D02*
X0227250Y0199844D01*
X0227250Y0200842D02*
X0240750Y0200842D01*
X0240750Y0201841D02*
X0227250Y0201841D01*
X0226792Y0202839D02*
X0241208Y0202839D01*
X0242206Y0203838D02*
X0225794Y0203838D01*
X0164793Y0155909D02*
X0163100Y0155909D01*
X0162891Y0156908D02*
X0163794Y0156908D01*
X0162796Y0157906D02*
X0161892Y0157906D01*
X0162712Y0152914D02*
X0163615Y0152914D01*
X0162617Y0151915D02*
X0161713Y0151915D01*
X0162400Y0150917D02*
X0160715Y0150917D01*
X0144793Y0155909D02*
X0143100Y0155909D01*
X0142891Y0156908D02*
X0143794Y0156908D01*
X0142796Y0157906D02*
X0141892Y0157906D01*
X0142400Y0158905D02*
X0140894Y0158905D01*
X0142400Y0148920D02*
X0124156Y0148920D01*
X0125155Y0147921D02*
X0142781Y0147921D01*
X0143779Y0146923D02*
X0126150Y0146923D01*
X0126150Y0145924D02*
X0144778Y0145924D01*
X0118814Y0168890D02*
X0090600Y0168890D01*
X0090190Y0167891D02*
X0117815Y0167891D01*
X0094785Y0150917D02*
X0076150Y0150917D01*
X0076150Y0151915D02*
X0093787Y0151915D01*
X0092788Y0152914D02*
X0075162Y0152914D01*
X0074164Y0153912D02*
X0092400Y0153912D01*
X0092400Y0185865D02*
X0087847Y0185865D01*
X0086516Y0186863D02*
X0092565Y0186863D01*
X0093563Y0187862D02*
X0085185Y0187862D01*
X0083853Y0188860D02*
X0094562Y0188860D01*
X0109154Y0191856D02*
X0133846Y0191856D01*
X0132848Y0192854D02*
X0110152Y0192854D01*
X0110600Y0193853D02*
X0132400Y0193853D01*
X0132400Y0194851D02*
X0110600Y0194851D01*
X0110600Y0195850D02*
X0132400Y0195850D01*
X0132550Y0196848D02*
X0110450Y0196848D01*
X0109452Y0197847D02*
X0133548Y0197847D01*
X0134547Y0198845D02*
X0108453Y0198845D01*
X0052000Y0183868D02*
X0051000Y0183868D01*
X0051000Y0184866D02*
X0021300Y0184866D01*
X0021300Y0184045D02*
X0020569Y0182281D01*
X0019219Y0180931D01*
X0017455Y0180200D01*
X0015545Y0180200D01*
X0013781Y0180931D01*
X0012431Y0182281D01*
X0011700Y0184045D01*
X0011700Y0185955D01*
X0012431Y0187719D01*
X0013781Y0189069D01*
X0015545Y0189800D01*
X0017455Y0189800D01*
X0019219Y0189069D01*
X0020569Y0187719D01*
X0021300Y0185955D01*
X0021300Y0184045D01*
X0021226Y0183868D02*
X0046821Y0183868D01*
X0047199Y0182869D02*
X0020813Y0182869D01*
X0020159Y0181870D02*
X0047841Y0181870D01*
X0049029Y0180872D02*
X0019077Y0180872D01*
X0013923Y0180872D02*
X0006000Y0180872D01*
X0006000Y0181870D02*
X0012841Y0181870D01*
X0012187Y0182869D02*
X0006000Y0182869D01*
X0006000Y0183868D02*
X0011774Y0183868D01*
X0011700Y0184866D02*
X0006000Y0184866D01*
X0006000Y0185865D02*
X0011700Y0185865D01*
X0012076Y0186863D02*
X0006000Y0186863D01*
X0006000Y0187862D02*
X0012573Y0187862D01*
X0013572Y0188860D02*
X0006000Y0188860D01*
X0019428Y0188860D02*
X0048647Y0188860D01*
X0047646Y0187862D02*
X0020427Y0187862D01*
X0020924Y0186863D02*
X0047062Y0186863D01*
X0046777Y0185865D02*
X0021300Y0185865D01*
X0051000Y0182869D02*
X0052000Y0182869D01*
X0052000Y0181870D02*
X0051000Y0181870D01*
X0051000Y0180872D02*
X0052000Y0180872D01*
X0112874Y0107981D02*
X0116032Y0107981D01*
X0115139Y0106982D02*
X0113766Y0106982D01*
X0114180Y0105984D02*
X0114725Y0105984D01*
X0114453Y0104985D02*
X0114453Y0104985D01*
X0114453Y0103987D02*
X0114453Y0103987D01*
X0114309Y0102988D02*
X0114597Y0102988D01*
X0115011Y0101990D02*
X0113895Y0101990D01*
X0113184Y0100991D02*
X0115721Y0100991D01*
X0116860Y0099993D02*
X0112045Y0099993D01*
X0182045Y0099993D02*
X0186860Y0099993D01*
X0185721Y0100991D02*
X0183184Y0100991D01*
X0183895Y0101990D02*
X0185011Y0101990D01*
X0184597Y0102988D02*
X0184309Y0102988D01*
X0184453Y0103987D02*
X0184453Y0103987D01*
X0184453Y0104985D02*
X0184453Y0104985D01*
X0184180Y0105984D02*
X0184725Y0105984D01*
X0185139Y0106982D02*
X0183766Y0106982D01*
X0182874Y0107981D02*
X0186032Y0107981D01*
D18*
X0209453Y0114331D02*
X0211500Y0114331D01*
X0211500Y0130000D01*
X0228193Y0145000D02*
X0228193Y0147126D01*
X0228193Y0145000D02*
X0241500Y0145000D01*
X0241500Y0130000D01*
X0228193Y0162874D02*
X0221067Y0175000D01*
X0196500Y0175000D01*
X0096500Y0175000D01*
X0076500Y0190000D01*
X0061500Y0190000D01*
X0061500Y0130000D01*
X0051500Y0130000D01*
X0051500Y0116378D01*
X0049453Y0114331D01*
D19*
X0196500Y0162874D02*
X0196500Y0175000D01*
X0196500Y0162874D02*
X0198193Y0162874D01*
D20*
X0206500Y0162874D02*
X0206500Y0150000D01*
X0198193Y0150000D01*
X0198193Y0147126D01*
X0206500Y0162874D02*
X0214807Y0162874D01*
M02*
