%
M48
M72
T01C0.03200
T02C0.03937
T03C0.04000
T04C0.04400
T05C0.10827
%
T01
X41000Y130000
X71000Y130000
X86000Y140000
X91000Y135000
X71000Y150000
X71000Y170000
X86000Y170000
X96000Y155000
X121000Y145000
X121000Y135000
X121000Y165000
X96000Y185000
X106000Y195000
X136000Y195000
X176000Y165000
X176000Y155000
X176000Y145000
X206000Y145000
X206000Y155000
X206000Y165000
T02
X38953Y104331
X48953Y104331
X58953Y104331
X68953Y104331
X78953Y104331
X88953Y104331
X98953Y104331
X108953Y104331
X118953Y104331
X128953Y104331
X138953Y104331
X148953Y104331
X158953Y104331
X168953Y104331
X178953Y104331
X188953Y104331
X198953Y104331
X208953Y104331
X218953Y104331
X228953Y104331
X228953Y114331
X218953Y114331
X208953Y114331
X198953Y114331
X188953Y114331
X178953Y114331
X168953Y114331
X158953Y114331
X148953Y114331
X138953Y114331
X128953Y114331
X118953Y114331
X108953Y114331
X98953Y114331
X88953Y114331
X78953Y114331
X68953Y114331
X58953Y114331
X48953Y114331
X38953Y114331
T03
X41000Y200000
X16000Y200000
X221000Y200000
X246000Y200000
T04
X176000Y185000
X136000Y185000
X51000Y185000
X16000Y185000
X16000Y145000
X51000Y145000
T05
X19780Y109331
X248126Y109331
M30
