G75*
%MOIN*%
%OFA0B0*%
%FSLAX25Y25*%
%IPPOS*%
%LPD*%
%AMOC8*
5,1,8,0,0,1.08239X$1,22.5*
%
%ADD10OC8,0.07100*%
%ADD11C,0.07400*%
%ADD12OC8,0.09300*%
%ADD13OC8,0.06000*%
%ADD14R,0.07800X0.07800*%
%ADD15C,0.07800*%
%ADD16C,0.11627*%
%ADD17R,0.05131X0.08674*%
D10*
X0121500Y0145000D03*
X0121500Y0165000D03*
X0071500Y0170000D03*
X0071500Y0150000D03*
D11*
X0051500Y0145000D03*
X0016500Y0145000D03*
X0016500Y0185000D03*
X0051500Y0185000D03*
X0136500Y0185000D03*
X0176500Y0185000D03*
D12*
X0221500Y0200000D03*
X0246500Y0200000D03*
X0041500Y0200000D03*
X0016500Y0200000D03*
D13*
X0086500Y0170000D03*
X0096500Y0155000D03*
X0086500Y0140000D03*
X0091500Y0135000D03*
X0071500Y0130000D03*
X0041500Y0130000D03*
X0096500Y0185000D03*
X0106500Y0195000D03*
X0136500Y0195000D03*
X0146500Y0160000D03*
X0139000Y0155000D03*
X0146500Y0150000D03*
X0159000Y0155000D03*
X0166500Y0150000D03*
X0166500Y0160000D03*
X0211500Y0130000D03*
X0241500Y0130000D03*
X0121500Y0135000D03*
D14*
X0039453Y0104331D03*
D15*
X0049453Y0104331D03*
X0059453Y0104331D03*
X0069453Y0104331D03*
X0079453Y0104331D03*
X0089453Y0104331D03*
X0099453Y0104331D03*
X0109453Y0104331D03*
X0119453Y0104331D03*
X0129453Y0104331D03*
X0139453Y0104331D03*
X0149453Y0104331D03*
X0159453Y0104331D03*
X0169453Y0104331D03*
X0179453Y0104331D03*
X0189453Y0104331D03*
X0199453Y0104331D03*
X0209453Y0104331D03*
X0219453Y0104331D03*
X0229453Y0104331D03*
X0229453Y0114331D03*
X0219453Y0114331D03*
X0209453Y0114331D03*
X0199453Y0114331D03*
X0189453Y0114331D03*
X0179453Y0114331D03*
X0169453Y0114331D03*
X0159453Y0114331D03*
X0149453Y0114331D03*
X0139453Y0114331D03*
X0129453Y0114331D03*
X0119453Y0114331D03*
X0109453Y0114331D03*
X0099453Y0114331D03*
X0089453Y0114331D03*
X0079453Y0114331D03*
X0069453Y0114331D03*
X0059453Y0114331D03*
X0049453Y0114331D03*
X0039453Y0114331D03*
D16*
X0020280Y0109331D03*
X0248626Y0109331D03*
D17*
X0228193Y0147126D03*
X0214807Y0147126D03*
X0198193Y0147126D03*
X0184807Y0147126D03*
X0184807Y0162874D03*
X0198193Y0162874D03*
X0214807Y0162874D03*
X0228193Y0162874D03*
M02*
