G75*
%MOIN*%
%OFA0B0*%
%FSLAX25Y25*%
%IPPOS*%
%LPD*%
%AMOC8*
5,1,8,0,0,1.08239X$1,22.5*
%
%ADD10OC8,0.07100*%
%ADD11C,0.07400*%
%ADD12OC8,0.09300*%
%ADD13C,0.06000*%
%ADD14OC8,0.06000*%
%ADD15R,0.07800X0.07800*%
%ADD16C,0.07800*%
%ADD17C,0.11627*%
D10*
X0121000Y0145000D03*
X0121000Y0165000D03*
X0071000Y0170000D03*
X0071000Y0150000D03*
D11*
X0051000Y0145000D03*
X0016000Y0145000D03*
X0016000Y0185000D03*
X0051000Y0185000D03*
X0136000Y0185000D03*
X0176000Y0185000D03*
D12*
X0221000Y0200000D03*
X0246000Y0200000D03*
X0041000Y0200000D03*
X0016000Y0200000D03*
D13*
X0173400Y0165000D02*
X0178600Y0165000D01*
X0178600Y0155000D02*
X0173400Y0155000D01*
X0173400Y0145000D02*
X0178600Y0145000D01*
X0203400Y0145000D02*
X0208600Y0145000D01*
X0208600Y0155000D02*
X0203400Y0155000D01*
X0203400Y0165000D02*
X0208600Y0165000D01*
D14*
X0136000Y0195000D03*
X0106000Y0195000D03*
X0096000Y0185000D03*
X0086000Y0170000D03*
X0096000Y0155000D03*
X0086000Y0140000D03*
X0091000Y0135000D03*
X0071000Y0130000D03*
X0041000Y0130000D03*
X0121000Y0135000D03*
D15*
X0038953Y0104331D03*
D16*
X0048953Y0104331D03*
X0058953Y0104331D03*
X0068953Y0104331D03*
X0078953Y0104331D03*
X0088953Y0104331D03*
X0098953Y0104331D03*
X0108953Y0104331D03*
X0118953Y0104331D03*
X0128953Y0104331D03*
X0138953Y0104331D03*
X0148953Y0104331D03*
X0158953Y0104331D03*
X0168953Y0104331D03*
X0178953Y0104331D03*
X0188953Y0104331D03*
X0198953Y0104331D03*
X0208953Y0104331D03*
X0218953Y0104331D03*
X0228953Y0104331D03*
X0228953Y0114331D03*
X0218953Y0114331D03*
X0208953Y0114331D03*
X0198953Y0114331D03*
X0188953Y0114331D03*
X0178953Y0114331D03*
X0168953Y0114331D03*
X0158953Y0114331D03*
X0148953Y0114331D03*
X0138953Y0114331D03*
X0128953Y0114331D03*
X0118953Y0114331D03*
X0108953Y0114331D03*
X0098953Y0114331D03*
X0088953Y0114331D03*
X0078953Y0114331D03*
X0068953Y0114331D03*
X0058953Y0114331D03*
X0048953Y0114331D03*
X0038953Y0114331D03*
D17*
X0019780Y0018780D03*
X0019780Y0109331D03*
X0248126Y0109331D03*
X0248126Y0018780D03*
M02*
